<?xml version="1.0" encoding="utf-8" standalone="no"?>
<!DOCTYPE svg PUBLIC "-//W3C//DTD SVG 1.1//EN"
  "http://www.w3.org/Graphics/SVG/1.1/DTD/svg11.dtd">
<!-- Created with matplotlib (https://matplotlib.org/) -->
<svg height="318.47625pt" version="1.1" viewBox="0 0 824.865625 318.47625" width="824.865625pt" xmlns="http://www.w3.org/2000/svg" xmlns:xlink="http://www.w3.org/1999/xlink">
 <metadata>
  <rdf:RDF xmlns:cc="http://creativecommons.org/ns#" xmlns:dc="http://purl.org/dc/elements/1.1/" xmlns:rdf="http://www.w3.org/1999/02/22-rdf-syntax-ns#">
   <cc:Work>
    <dc:type rdf:resource="http://purl.org/dc/dcmitype/StillImage"/>
    <dc:date>2020-10-07T15:52:01.142913</dc:date>
    <dc:format>image/svg+xml</dc:format>
    <dc:creator>
     <cc:Agent>
      <dc:title>Matplotlib v3.3.0, https://matplotlib.org/</dc:title>
     </cc:Agent>
    </dc:creator>
   </cc:Work>
  </rdf:RDF>
 </metadata>
 <defs>
  <style type="text/css">*{stroke-linecap:butt;stroke-linejoin:round;}</style>
 </defs>
 <g id="figure_1">
  <g id="patch_1">
   <path d="M 0 318.47625 
L 824.865625 318.47625 
L 824.865625 0 
L 0 0 
z
" style="fill:none;"/>
  </g>
  <g id="axes_1">
   <g id="patch_2">
    <path d="M 36.465625 294.598125 
L 391.556534 294.598125 
L 391.556534 22.798125 
L 36.465625 22.798125 
z
" style="fill:#ffffff;"/>
   </g>
   <g id="PathCollection_1">
    <defs>
     <path d="M 0 -3 
L -0.673542 -0.927051 
L -2.85317 -0.927051 
L -1.089814 0.354102 
L -1.763356 2.427051 
L -0 1.145898 
L 1.763356 2.427051 
L 1.089814 0.354102 
L 2.85317 -0.927051 
L 0.673542 -0.927051 
z
" id="mf4b6522a1a" style="stroke:#ff0000;"/>
    </defs>
    <g clip-path="url(#pf9e01bf88f)">
     <use style="fill:#ff0000;stroke:#ff0000;" x="52.606121" xlink:href="#mf4b6522a1a" y="282.24358"/>
     <use style="fill:#ff0000;stroke:#ff0000;" x="58.077475" xlink:href="#mf4b6522a1a" y="280.5222"/>
     <use style="fill:#ff0000;stroke:#ff0000;" x="63.54883" xlink:href="#mf4b6522a1a" y="278.640947"/>
     <use style="fill:#ff0000;stroke:#ff0000;" x="69.020184" xlink:href="#mf4b6522a1a" y="276.580459"/>
     <use style="fill:#ff0000;stroke:#ff0000;" x="74.491539" xlink:href="#mf4b6522a1a" y="274.318556"/>
     <use style="fill:#ff0000;stroke:#ff0000;" x="79.962894" xlink:href="#mf4b6522a1a" y="271.829786"/>
     <use style="fill:#ff0000;stroke:#ff0000;" x="85.434248" xlink:href="#mf4b6522a1a" y="269.084892"/>
     <use style="fill:#ff0000;stroke:#ff0000;" x="90.905603" xlink:href="#mf4b6522a1a" y="266.050199"/>
     <use style="fill:#ff0000;stroke:#ff0000;" x="96.376957" xlink:href="#mf4b6522a1a" y="262.686917"/>
     <use style="fill:#ff0000;stroke:#ff0000;" x="101.848312" xlink:href="#mf4b6522a1a" y="258.950352"/>
     <use style="fill:#ff0000;stroke:#ff0000;" x="107.319666" xlink:href="#mf4b6522a1a" y="254.789034"/>
     <use style="fill:#ff0000;stroke:#ff0000;" x="112.791021" xlink:href="#mf4b6522a1a" y="250.143796"/>
     <use style="fill:#ff0000;stroke:#ff0000;" x="118.262375" xlink:href="#mf4b6522a1a" y="244.946839"/>
     <use style="fill:#ff0000;stroke:#ff0000;" x="123.73373" xlink:href="#mf4b6522a1a" y="239.120887"/>
     <use style="fill:#ff0000;stroke:#ff0000;" x="129.205084" xlink:href="#mf4b6522a1a" y="232.578615"/>
     <use style="fill:#ff0000;stroke:#ff0000;" x="134.676439" xlink:href="#mf4b6522a1a" y="225.222601"/>
     <use style="fill:#ff0000;stroke:#ff0000;" x="140.147793" xlink:href="#mf4b6522a1a" y="216.946282"/>
     <use style="fill:#ff0000;stroke:#ff0000;" x="145.619148" xlink:href="#mf4b6522a1a" y="207.636618"/>
     <use style="fill:#ff0000;stroke:#ff0000;" x="151.090502" xlink:href="#mf4b6522a1a" y="197.179496"/>
     <use style="fill:#ff0000;stroke:#ff0000;" x="156.561857" xlink:href="#mf4b6522a1a" y="185.469413"/>
     <use style="fill:#ff0000;stroke:#ff0000;" x="162.033211" xlink:href="#mf4b6522a1a" y="172.425398"/>
     <use style="fill:#ff0000;stroke:#ff0000;" x="167.504566" xlink:href="#mf4b6522a1a" y="158.015553"/>
     <use style="fill:#ff0000;stroke:#ff0000;" x="172.975921" xlink:href="#mf4b6522a1a" y="142.29236"/>
     <use style="fill:#ff0000;stroke:#ff0000;" x="178.447275" xlink:href="#mf4b6522a1a" y="125.439431"/>
     <use style="fill:#ff0000;stroke:#ff0000;" x="183.91863" xlink:href="#mf4b6522a1a" y="107.826467"/>
     <use style="fill:#ff0000;stroke:#ff0000;" x="189.389984" xlink:href="#mf4b6522a1a" y="90.061761"/>
     <use style="fill:#ff0000;stroke:#ff0000;" x="194.861339" xlink:href="#mf4b6522a1a" y="73.021009"/>
     <use style="fill:#ff0000;stroke:#ff0000;" x="200.332693" xlink:href="#mf4b6522a1a" y="57.821561"/>
     <use style="fill:#ff0000;stroke:#ff0000;" x="205.804048" xlink:href="#mf4b6522a1a" y="45.712111"/>
     <use style="fill:#ff0000;stroke:#ff0000;" x="211.275402" xlink:href="#mf4b6522a1a" y="37.870942"/>
     <use style="fill:#ff0000;stroke:#ff0000;" x="216.746757" xlink:href="#mf4b6522a1a" y="35.15267"/>
     <use style="fill:#ff0000;stroke:#ff0000;" x="222.218111" xlink:href="#mf4b6522a1a" y="37.870942"/>
     <use style="fill:#ff0000;stroke:#ff0000;" x="227.689466" xlink:href="#mf4b6522a1a" y="45.712111"/>
     <use style="fill:#ff0000;stroke:#ff0000;" x="233.16082" xlink:href="#mf4b6522a1a" y="57.821561"/>
     <use style="fill:#ff0000;stroke:#ff0000;" x="238.632175" xlink:href="#mf4b6522a1a" y="73.021009"/>
     <use style="fill:#ff0000;stroke:#ff0000;" x="244.103529" xlink:href="#mf4b6522a1a" y="90.061761"/>
     <use style="fill:#ff0000;stroke:#ff0000;" x="249.574884" xlink:href="#mf4b6522a1a" y="107.826467"/>
     <use style="fill:#ff0000;stroke:#ff0000;" x="255.046239" xlink:href="#mf4b6522a1a" y="125.439431"/>
     <use style="fill:#ff0000;stroke:#ff0000;" x="260.517593" xlink:href="#mf4b6522a1a" y="142.29236"/>
     <use style="fill:#ff0000;stroke:#ff0000;" x="265.988948" xlink:href="#mf4b6522a1a" y="158.015553"/>
     <use style="fill:#ff0000;stroke:#ff0000;" x="271.460302" xlink:href="#mf4b6522a1a" y="172.425398"/>
     <use style="fill:#ff0000;stroke:#ff0000;" x="276.931657" xlink:href="#mf4b6522a1a" y="185.469413"/>
     <use style="fill:#ff0000;stroke:#ff0000;" x="282.403011" xlink:href="#mf4b6522a1a" y="197.179496"/>
     <use style="fill:#ff0000;stroke:#ff0000;" x="287.874366" xlink:href="#mf4b6522a1a" y="207.636618"/>
     <use style="fill:#ff0000;stroke:#ff0000;" x="293.34572" xlink:href="#mf4b6522a1a" y="216.946282"/>
     <use style="fill:#ff0000;stroke:#ff0000;" x="298.817075" xlink:href="#mf4b6522a1a" y="225.222601"/>
     <use style="fill:#ff0000;stroke:#ff0000;" x="304.288429" xlink:href="#mf4b6522a1a" y="232.578615"/>
     <use style="fill:#ff0000;stroke:#ff0000;" x="309.759784" xlink:href="#mf4b6522a1a" y="239.120887"/>
     <use style="fill:#ff0000;stroke:#ff0000;" x="315.231138" xlink:href="#mf4b6522a1a" y="244.946839"/>
     <use style="fill:#ff0000;stroke:#ff0000;" x="320.702493" xlink:href="#mf4b6522a1a" y="250.143796"/>
     <use style="fill:#ff0000;stroke:#ff0000;" x="326.173847" xlink:href="#mf4b6522a1a" y="254.789034"/>
     <use style="fill:#ff0000;stroke:#ff0000;" x="331.645202" xlink:href="#mf4b6522a1a" y="258.950352"/>
     <use style="fill:#ff0000;stroke:#ff0000;" x="337.116557" xlink:href="#mf4b6522a1a" y="262.686917"/>
     <use style="fill:#ff0000;stroke:#ff0000;" x="342.587911" xlink:href="#mf4b6522a1a" y="266.050199"/>
     <use style="fill:#ff0000;stroke:#ff0000;" x="348.059266" xlink:href="#mf4b6522a1a" y="269.084892"/>
     <use style="fill:#ff0000;stroke:#ff0000;" x="353.53062" xlink:href="#mf4b6522a1a" y="271.829786"/>
     <use style="fill:#ff0000;stroke:#ff0000;" x="359.001975" xlink:href="#mf4b6522a1a" y="274.318556"/>
     <use style="fill:#ff0000;stroke:#ff0000;" x="364.473329" xlink:href="#mf4b6522a1a" y="276.580459"/>
     <use style="fill:#ff0000;stroke:#ff0000;" x="369.944684" xlink:href="#mf4b6522a1a" y="278.640947"/>
     <use style="fill:#ff0000;stroke:#ff0000;" x="375.416038" xlink:href="#mf4b6522a1a" y="280.5222"/>
    </g>
   </g>
   <g id="matplotlib.axis_1">
    <g id="xtick_1">
     <g id="line2d_1">
      <defs>
       <path d="M 0 0 
L 0 3.5 
" id="m63e9fab431" style="stroke:#000000;stroke-width:0.8;"/>
      </defs>
      <g>
       <use style="stroke:#000000;stroke-width:0.8;" x="52.606121" xlink:href="#m63e9fab431" y="294.598125"/>
      </g>
     </g>
     <g id="text_1">
      <!-- −3 -->
      <g transform="translate(45.235027 309.196562)scale(0.1 -0.1)">
       <defs>
        <path d="M 10.59375 35.5 
L 73.1875 35.5 
L 73.1875 27.203125 
L 10.59375 27.203125 
z
" id="DejaVuSans-8722"/>
        <path d="M 40.578125 39.3125 
Q 47.65625 37.796875 51.625 33 
Q 55.609375 28.21875 55.609375 21.1875 
Q 55.609375 10.40625 48.1875 4.484375 
Q 40.765625 -1.421875 27.09375 -1.421875 
Q 22.515625 -1.421875 17.65625 -0.515625 
Q 12.796875 0.390625 7.625 2.203125 
L 7.625 11.71875 
Q 11.71875 9.328125 16.59375 8.109375 
Q 21.484375 6.890625 26.8125 6.890625 
Q 36.078125 6.890625 40.9375 10.546875 
Q 45.796875 14.203125 45.796875 21.1875 
Q 45.796875 27.640625 41.28125 31.265625 
Q 36.765625 34.90625 28.71875 34.90625 
L 20.21875 34.90625 
L 20.21875 43.015625 
L 29.109375 43.015625 
Q 36.375 43.015625 40.234375 45.921875 
Q 44.09375 48.828125 44.09375 54.296875 
Q 44.09375 59.90625 40.109375 62.90625 
Q 36.140625 65.921875 28.71875 65.921875 
Q 24.65625 65.921875 20.015625 65.03125 
Q 15.375 64.15625 9.8125 62.3125 
L 9.8125 71.09375 
Q 15.4375 72.65625 20.34375 73.4375 
Q 25.25 74.21875 29.59375 74.21875 
Q 40.828125 74.21875 47.359375 69.109375 
Q 53.90625 64.015625 53.90625 55.328125 
Q 53.90625 49.265625 50.4375 45.09375 
Q 46.96875 40.921875 40.578125 39.3125 
z
" id="DejaVuSans-51"/>
       </defs>
       <use xlink:href="#DejaVuSans-8722"/>
       <use x="83.789062" xlink:href="#DejaVuSans-51"/>
      </g>
     </g>
    </g>
    <g id="xtick_2">
     <g id="line2d_2">
      <g>
       <use style="stroke:#000000;stroke-width:0.8;" x="107.319666" xlink:href="#m63e9fab431" y="294.598125"/>
      </g>
     </g>
     <g id="text_2">
      <!-- −2 -->
      <g transform="translate(99.948572 309.196562)scale(0.1 -0.1)">
       <defs>
        <path d="M 19.1875 8.296875 
L 53.609375 8.296875 
L 53.609375 0 
L 7.328125 0 
L 7.328125 8.296875 
Q 12.9375 14.109375 22.625 23.890625 
Q 32.328125 33.6875 34.8125 36.53125 
Q 39.546875 41.84375 41.421875 45.53125 
Q 43.3125 49.21875 43.3125 52.78125 
Q 43.3125 58.59375 39.234375 62.25 
Q 35.15625 65.921875 28.609375 65.921875 
Q 23.96875 65.921875 18.8125 64.3125 
Q 13.671875 62.703125 7.8125 59.421875 
L 7.8125 69.390625 
Q 13.765625 71.78125 18.9375 73 
Q 24.125 74.21875 28.421875 74.21875 
Q 39.75 74.21875 46.484375 68.546875 
Q 53.21875 62.890625 53.21875 53.421875 
Q 53.21875 48.921875 51.53125 44.890625 
Q 49.859375 40.875 45.40625 35.40625 
Q 44.1875 33.984375 37.640625 27.21875 
Q 31.109375 20.453125 19.1875 8.296875 
z
" id="DejaVuSans-50"/>
       </defs>
       <use xlink:href="#DejaVuSans-8722"/>
       <use x="83.789062" xlink:href="#DejaVuSans-50"/>
      </g>
     </g>
    </g>
    <g id="xtick_3">
     <g id="line2d_3">
      <g>
       <use style="stroke:#000000;stroke-width:0.8;" x="162.033211" xlink:href="#m63e9fab431" y="294.598125"/>
      </g>
     </g>
     <g id="text_3">
      <!-- −1 -->
      <g transform="translate(154.662118 309.196562)scale(0.1 -0.1)">
       <defs>
        <path d="M 12.40625 8.296875 
L 28.515625 8.296875 
L 28.515625 63.921875 
L 10.984375 60.40625 
L 10.984375 69.390625 
L 28.421875 72.90625 
L 38.28125 72.90625 
L 38.28125 8.296875 
L 54.390625 8.296875 
L 54.390625 0 
L 12.40625 0 
z
" id="DejaVuSans-49"/>
       </defs>
       <use xlink:href="#DejaVuSans-8722"/>
       <use x="83.789062" xlink:href="#DejaVuSans-49"/>
      </g>
     </g>
    </g>
    <g id="xtick_4">
     <g id="line2d_4">
      <g>
       <use style="stroke:#000000;stroke-width:0.8;" x="216.746757" xlink:href="#m63e9fab431" y="294.598125"/>
      </g>
     </g>
     <g id="text_4">
      <!-- 0 -->
      <g transform="translate(213.565507 309.196562)scale(0.1 -0.1)">
       <defs>
        <path d="M 31.78125 66.40625 
Q 24.171875 66.40625 20.328125 58.90625 
Q 16.5 51.421875 16.5 36.375 
Q 16.5 21.390625 20.328125 13.890625 
Q 24.171875 6.390625 31.78125 6.390625 
Q 39.453125 6.390625 43.28125 13.890625 
Q 47.125 21.390625 47.125 36.375 
Q 47.125 51.421875 43.28125 58.90625 
Q 39.453125 66.40625 31.78125 66.40625 
z
M 31.78125 74.21875 
Q 44.046875 74.21875 50.515625 64.515625 
Q 56.984375 54.828125 56.984375 36.375 
Q 56.984375 17.96875 50.515625 8.265625 
Q 44.046875 -1.421875 31.78125 -1.421875 
Q 19.53125 -1.421875 13.0625 8.265625 
Q 6.59375 17.96875 6.59375 36.375 
Q 6.59375 54.828125 13.0625 64.515625 
Q 19.53125 74.21875 31.78125 74.21875 
z
" id="DejaVuSans-48"/>
       </defs>
       <use xlink:href="#DejaVuSans-48"/>
      </g>
     </g>
    </g>
    <g id="xtick_5">
     <g id="line2d_5">
      <g>
       <use style="stroke:#000000;stroke-width:0.8;" x="271.460302" xlink:href="#m63e9fab431" y="294.598125"/>
      </g>
     </g>
     <g id="text_5">
      <!-- 1 -->
      <g transform="translate(268.279052 309.196562)scale(0.1 -0.1)">
       <use xlink:href="#DejaVuSans-49"/>
      </g>
     </g>
    </g>
    <g id="xtick_6">
     <g id="line2d_6">
      <g>
       <use style="stroke:#000000;stroke-width:0.8;" x="326.173847" xlink:href="#m63e9fab431" y="294.598125"/>
      </g>
     </g>
     <g id="text_6">
      <!-- 2 -->
      <g transform="translate(322.992597 309.196562)scale(0.1 -0.1)">
       <use xlink:href="#DejaVuSans-50"/>
      </g>
     </g>
    </g>
    <g id="xtick_7">
     <g id="line2d_7">
      <g>
       <use style="stroke:#000000;stroke-width:0.8;" x="380.887393" xlink:href="#m63e9fab431" y="294.598125"/>
      </g>
     </g>
     <g id="text_7">
      <!-- 3 -->
      <g transform="translate(377.706143 309.196562)scale(0.1 -0.1)">
       <use xlink:href="#DejaVuSans-51"/>
      </g>
     </g>
    </g>
   </g>
   <g id="matplotlib.axis_2">
    <g id="ytick_1">
     <g id="line2d_8">
      <defs>
       <path d="M 0 0 
L -3.5 0 
" id="m2908b44e17" style="stroke:#000000;stroke-width:0.8;"/>
      </defs>
      <g>
       <use style="stroke:#000000;stroke-width:0.8;" x="36.465625" xlink:href="#m2908b44e17" y="266.572626"/>
      </g>
     </g>
     <g id="text_8">
      <!-- 0.05 -->
      <g transform="translate(7.2 270.371845)scale(0.1 -0.1)">
       <defs>
        <path d="M 10.6875 12.40625 
L 21 12.40625 
L 21 0 
L 10.6875 0 
z
" id="DejaVuSans-46"/>
        <path d="M 10.796875 72.90625 
L 49.515625 72.90625 
L 49.515625 64.59375 
L 19.828125 64.59375 
L 19.828125 46.734375 
Q 21.96875 47.46875 24.109375 47.828125 
Q 26.265625 48.1875 28.421875 48.1875 
Q 40.625 48.1875 47.75 41.5 
Q 54.890625 34.8125 54.890625 23.390625 
Q 54.890625 11.625 47.5625 5.09375 
Q 40.234375 -1.421875 26.90625 -1.421875 
Q 22.3125 -1.421875 17.546875 -0.640625 
Q 12.796875 0.140625 7.71875 1.703125 
L 7.71875 11.625 
Q 12.109375 9.234375 16.796875 8.0625 
Q 21.484375 6.890625 26.703125 6.890625 
Q 35.15625 6.890625 40.078125 11.328125 
Q 45.015625 15.765625 45.015625 23.390625 
Q 45.015625 31 40.078125 35.4375 
Q 35.15625 39.890625 26.703125 39.890625 
Q 22.75 39.890625 18.8125 39.015625 
Q 14.890625 38.140625 10.796875 36.28125 
z
" id="DejaVuSans-53"/>
       </defs>
       <use xlink:href="#DejaVuSans-48"/>
       <use x="63.623047" xlink:href="#DejaVuSans-46"/>
       <use x="95.410156" xlink:href="#DejaVuSans-48"/>
       <use x="159.033203" xlink:href="#DejaVuSans-53"/>
      </g>
     </g>
    </g>
    <g id="ytick_2">
     <g id="line2d_9">
      <g>
       <use style="stroke:#000000;stroke-width:0.8;" x="36.465625" xlink:href="#m2908b44e17" y="223.447127"/>
      </g>
     </g>
     <g id="text_9">
      <!-- 0.10 -->
      <g transform="translate(7.2 227.246345)scale(0.1 -0.1)">
       <use xlink:href="#DejaVuSans-48"/>
       <use x="63.623047" xlink:href="#DejaVuSans-46"/>
       <use x="95.410156" xlink:href="#DejaVuSans-49"/>
       <use x="159.033203" xlink:href="#DejaVuSans-48"/>
      </g>
     </g>
    </g>
    <g id="ytick_3">
     <g id="line2d_10">
      <g>
       <use style="stroke:#000000;stroke-width:0.8;" x="36.465625" xlink:href="#m2908b44e17" y="180.321628"/>
      </g>
     </g>
     <g id="text_10">
      <!-- 0.15 -->
      <g transform="translate(7.2 184.120846)scale(0.1 -0.1)">
       <use xlink:href="#DejaVuSans-48"/>
       <use x="63.623047" xlink:href="#DejaVuSans-46"/>
       <use x="95.410156" xlink:href="#DejaVuSans-49"/>
       <use x="159.033203" xlink:href="#DejaVuSans-53"/>
      </g>
     </g>
    </g>
    <g id="ytick_4">
     <g id="line2d_11">
      <g>
       <use style="stroke:#000000;stroke-width:0.8;" x="36.465625" xlink:href="#m2908b44e17" y="137.196128"/>
      </g>
     </g>
     <g id="text_11">
      <!-- 0.20 -->
      <g transform="translate(7.2 140.995347)scale(0.1 -0.1)">
       <use xlink:href="#DejaVuSans-48"/>
       <use x="63.623047" xlink:href="#DejaVuSans-46"/>
       <use x="95.410156" xlink:href="#DejaVuSans-50"/>
       <use x="159.033203" xlink:href="#DejaVuSans-48"/>
      </g>
     </g>
    </g>
    <g id="ytick_5">
     <g id="line2d_12">
      <g>
       <use style="stroke:#000000;stroke-width:0.8;" x="36.465625" xlink:href="#m2908b44e17" y="94.070629"/>
      </g>
     </g>
     <g id="text_12">
      <!-- 0.25 -->
      <g transform="translate(7.2 97.869848)scale(0.1 -0.1)">
       <use xlink:href="#DejaVuSans-48"/>
       <use x="63.623047" xlink:href="#DejaVuSans-46"/>
       <use x="95.410156" xlink:href="#DejaVuSans-50"/>
       <use x="159.033203" xlink:href="#DejaVuSans-53"/>
      </g>
     </g>
    </g>
    <g id="ytick_6">
     <g id="line2d_13">
      <g>
       <use style="stroke:#000000;stroke-width:0.8;" x="36.465625" xlink:href="#m2908b44e17" y="50.94513"/>
      </g>
     </g>
     <g id="text_13">
      <!-- 0.30 -->
      <g transform="translate(7.2 54.744349)scale(0.1 -0.1)">
       <use xlink:href="#DejaVuSans-48"/>
       <use x="63.623047" xlink:href="#DejaVuSans-46"/>
       <use x="95.410156" xlink:href="#DejaVuSans-51"/>
       <use x="159.033203" xlink:href="#DejaVuSans-48"/>
      </g>
     </g>
    </g>
   </g>
   <g id="line2d_14">
    <path clip-path="url(#pf9e01bf88f)" d="M 52.606121 282.24358 
L 58.077475 280.5222 
L 63.54883 278.640947 
L 69.020184 276.580459 
L 74.491539 274.318556 
L 79.962894 271.829786 
L 85.434248 269.084892 
L 90.905603 266.050199 
L 96.376957 262.686917 
L 101.848312 258.950352 
L 107.319666 254.789034 
L 112.791021 250.143796 
L 118.262375 244.946839 
L 123.73373 239.120887 
L 129.205084 232.578615 
L 134.676439 225.222601 
L 140.147793 216.946282 
L 145.619148 207.636618 
L 151.090502 197.179496 
L 156.561857 185.469413 
L 162.033211 172.425398 
L 167.504566 158.015553 
L 172.975921 142.29236 
L 178.447275 125.439431 
L 183.91863 107.826467 
L 189.389984 90.061761 
L 194.861339 73.021009 
L 200.332693 57.821561 
L 205.804048 45.712111 
L 211.275402 37.870942 
L 216.746757 35.15267 
L 222.218111 37.870942 
L 227.689466 45.712111 
L 233.16082 57.821561 
L 238.632175 73.021009 
L 244.103529 90.061761 
L 249.574884 107.826467 
L 255.046239 125.439431 
L 260.517593 142.29236 
L 265.988948 158.015553 
L 271.460302 172.425398 
L 276.931657 185.469413 
L 282.403011 197.179496 
L 287.874366 207.636618 
L 293.34572 216.946282 
L 298.817075 225.222601 
L 304.288429 232.578615 
L 309.759784 239.120887 
L 315.231138 244.946839 
L 320.702493 250.143796 
L 326.173847 254.789034 
L 331.645202 258.950352 
L 337.116557 262.686917 
L 342.587911 266.050199 
L 348.059266 269.084892 
L 353.53062 271.829786 
L 359.001975 274.318556 
L 364.473329 276.580459 
L 369.944684 278.640947 
L 375.416038 280.5222 
" style="fill:none;stroke:#1f77b4;stroke-linecap:square;stroke-width:1.5;"/>
   </g>
   <g id="patch_3">
    <path d="M 36.465625 294.598125 
L 36.465625 22.798125 
" style="fill:none;stroke:#000000;stroke-linecap:square;stroke-linejoin:miter;stroke-width:0.8;"/>
   </g>
   <g id="patch_4">
    <path d="M 391.556534 294.598125 
L 391.556534 22.798125 
" style="fill:none;stroke:#000000;stroke-linecap:square;stroke-linejoin:miter;stroke-width:0.8;"/>
   </g>
   <g id="patch_5">
    <path d="M 36.465625 294.598125 
L 391.556534 294.598125 
" style="fill:none;stroke:#000000;stroke-linecap:square;stroke-linejoin:miter;stroke-width:0.8;"/>
   </g>
   <g id="patch_6">
    <path d="M 36.465625 22.798125 
L 391.556534 22.798125 
" style="fill:none;stroke:#000000;stroke-linecap:square;stroke-linejoin:miter;stroke-width:0.8;"/>
   </g>
   <g id="text_14">
    <!-- t-Student e Cauchy quando m = 1 -->
    <g transform="translate(111.158892 16.798125)scale(0.12 -0.12)">
     <defs>
      <path d="M 18.3125 70.21875 
L 18.3125 54.6875 
L 36.8125 54.6875 
L 36.8125 47.703125 
L 18.3125 47.703125 
L 18.3125 18.015625 
Q 18.3125 11.328125 20.140625 9.421875 
Q 21.96875 7.515625 27.59375 7.515625 
L 36.8125 7.515625 
L 36.8125 0 
L 27.59375 0 
Q 17.1875 0 13.234375 3.875 
Q 9.28125 7.765625 9.28125 18.015625 
L 9.28125 47.703125 
L 2.6875 47.703125 
L 2.6875 54.6875 
L 9.28125 54.6875 
L 9.28125 70.21875 
z
" id="DejaVuSans-116"/>
      <path d="M 4.890625 31.390625 
L 31.203125 31.390625 
L 31.203125 23.390625 
L 4.890625 23.390625 
z
" id="DejaVuSans-45"/>
      <path d="M 53.515625 70.515625 
L 53.515625 60.890625 
Q 47.90625 63.578125 42.921875 64.890625 
Q 37.9375 66.21875 33.296875 66.21875 
Q 25.25 66.21875 20.875 63.09375 
Q 16.5 59.96875 16.5 54.203125 
Q 16.5 49.359375 19.40625 46.890625 
Q 22.3125 44.4375 30.421875 42.921875 
L 36.375 41.703125 
Q 47.40625 39.59375 52.65625 34.296875 
Q 57.90625 29 57.90625 20.125 
Q 57.90625 9.515625 50.796875 4.046875 
Q 43.703125 -1.421875 29.984375 -1.421875 
Q 24.8125 -1.421875 18.96875 -0.25 
Q 13.140625 0.921875 6.890625 3.21875 
L 6.890625 13.375 
Q 12.890625 10.015625 18.65625 8.296875 
Q 24.421875 6.59375 29.984375 6.59375 
Q 38.421875 6.59375 43.015625 9.90625 
Q 47.609375 13.234375 47.609375 19.390625 
Q 47.609375 24.75 44.3125 27.78125 
Q 41.015625 30.8125 33.5 32.328125 
L 27.484375 33.5 
Q 16.453125 35.6875 11.515625 40.375 
Q 6.59375 45.0625 6.59375 53.421875 
Q 6.59375 63.09375 13.40625 68.65625 
Q 20.21875 74.21875 32.171875 74.21875 
Q 37.3125 74.21875 42.625 73.28125 
Q 47.953125 72.359375 53.515625 70.515625 
z
" id="DejaVuSans-83"/>
      <path d="M 8.5 21.578125 
L 8.5 54.6875 
L 17.484375 54.6875 
L 17.484375 21.921875 
Q 17.484375 14.15625 20.5 10.265625 
Q 23.53125 6.390625 29.59375 6.390625 
Q 36.859375 6.390625 41.078125 11.03125 
Q 45.3125 15.671875 45.3125 23.6875 
L 45.3125 54.6875 
L 54.296875 54.6875 
L 54.296875 0 
L 45.3125 0 
L 45.3125 8.40625 
Q 42.046875 3.421875 37.71875 1 
Q 33.40625 -1.421875 27.6875 -1.421875 
Q 18.265625 -1.421875 13.375 4.4375 
Q 8.5 10.296875 8.5 21.578125 
z
M 31.109375 56 
z
" id="DejaVuSans-117"/>
      <path d="M 45.40625 46.390625 
L 45.40625 75.984375 
L 54.390625 75.984375 
L 54.390625 0 
L 45.40625 0 
L 45.40625 8.203125 
Q 42.578125 3.328125 38.25 0.953125 
Q 33.9375 -1.421875 27.875 -1.421875 
Q 17.96875 -1.421875 11.734375 6.484375 
Q 5.515625 14.40625 5.515625 27.296875 
Q 5.515625 40.1875 11.734375 48.09375 
Q 17.96875 56 27.875 56 
Q 33.9375 56 38.25 53.625 
Q 42.578125 51.265625 45.40625 46.390625 
z
M 14.796875 27.296875 
Q 14.796875 17.390625 18.875 11.75 
Q 22.953125 6.109375 30.078125 6.109375 
Q 37.203125 6.109375 41.296875 11.75 
Q 45.40625 17.390625 45.40625 27.296875 
Q 45.40625 37.203125 41.296875 42.84375 
Q 37.203125 48.484375 30.078125 48.484375 
Q 22.953125 48.484375 18.875 42.84375 
Q 14.796875 37.203125 14.796875 27.296875 
z
" id="DejaVuSans-100"/>
      <path d="M 56.203125 29.59375 
L 56.203125 25.203125 
L 14.890625 25.203125 
Q 15.484375 15.921875 20.484375 11.0625 
Q 25.484375 6.203125 34.421875 6.203125 
Q 39.59375 6.203125 44.453125 7.46875 
Q 49.3125 8.734375 54.109375 11.28125 
L 54.109375 2.78125 
Q 49.265625 0.734375 44.1875 -0.34375 
Q 39.109375 -1.421875 33.890625 -1.421875 
Q 20.796875 -1.421875 13.15625 6.1875 
Q 5.515625 13.8125 5.515625 26.8125 
Q 5.515625 40.234375 12.765625 48.109375 
Q 20.015625 56 32.328125 56 
Q 43.359375 56 49.78125 48.890625 
Q 56.203125 41.796875 56.203125 29.59375 
z
M 47.21875 32.234375 
Q 47.125 39.59375 43.09375 43.984375 
Q 39.0625 48.390625 32.421875 48.390625 
Q 24.90625 48.390625 20.390625 44.140625 
Q 15.875 39.890625 15.1875 32.171875 
z
" id="DejaVuSans-101"/>
      <path d="M 54.890625 33.015625 
L 54.890625 0 
L 45.90625 0 
L 45.90625 32.71875 
Q 45.90625 40.484375 42.875 44.328125 
Q 39.84375 48.1875 33.796875 48.1875 
Q 26.515625 48.1875 22.3125 43.546875 
Q 18.109375 38.921875 18.109375 30.90625 
L 18.109375 0 
L 9.078125 0 
L 9.078125 54.6875 
L 18.109375 54.6875 
L 18.109375 46.1875 
Q 21.34375 51.125 25.703125 53.5625 
Q 30.078125 56 35.796875 56 
Q 45.21875 56 50.046875 50.171875 
Q 54.890625 44.34375 54.890625 33.015625 
z
" id="DejaVuSans-110"/>
      <path id="DejaVuSans-32"/>
      <path d="M 64.40625 67.28125 
L 64.40625 56.890625 
Q 59.421875 61.53125 53.78125 63.8125 
Q 48.140625 66.109375 41.796875 66.109375 
Q 29.296875 66.109375 22.65625 58.46875 
Q 16.015625 50.828125 16.015625 36.375 
Q 16.015625 21.96875 22.65625 14.328125 
Q 29.296875 6.6875 41.796875 6.6875 
Q 48.140625 6.6875 53.78125 8.984375 
Q 59.421875 11.28125 64.40625 15.921875 
L 64.40625 5.609375 
Q 59.234375 2.09375 53.4375 0.328125 
Q 47.65625 -1.421875 41.21875 -1.421875 
Q 24.65625 -1.421875 15.125 8.703125 
Q 5.609375 18.84375 5.609375 36.375 
Q 5.609375 53.953125 15.125 64.078125 
Q 24.65625 74.21875 41.21875 74.21875 
Q 47.75 74.21875 53.53125 72.484375 
Q 59.328125 70.75 64.40625 67.28125 
z
" id="DejaVuSans-67"/>
      <path d="M 34.28125 27.484375 
Q 23.390625 27.484375 19.1875 25 
Q 14.984375 22.515625 14.984375 16.5 
Q 14.984375 11.71875 18.140625 8.90625 
Q 21.296875 6.109375 26.703125 6.109375 
Q 34.1875 6.109375 38.703125 11.40625 
Q 43.21875 16.703125 43.21875 25.484375 
L 43.21875 27.484375 
z
M 52.203125 31.203125 
L 52.203125 0 
L 43.21875 0 
L 43.21875 8.296875 
Q 40.140625 3.328125 35.546875 0.953125 
Q 30.953125 -1.421875 24.3125 -1.421875 
Q 15.921875 -1.421875 10.953125 3.296875 
Q 6 8.015625 6 15.921875 
Q 6 25.140625 12.171875 29.828125 
Q 18.359375 34.515625 30.609375 34.515625 
L 43.21875 34.515625 
L 43.21875 35.40625 
Q 43.21875 41.609375 39.140625 45 
Q 35.0625 48.390625 27.6875 48.390625 
Q 23 48.390625 18.546875 47.265625 
Q 14.109375 46.140625 10.015625 43.890625 
L 10.015625 52.203125 
Q 14.9375 54.109375 19.578125 55.046875 
Q 24.21875 56 28.609375 56 
Q 40.484375 56 46.34375 49.84375 
Q 52.203125 43.703125 52.203125 31.203125 
z
" id="DejaVuSans-97"/>
      <path d="M 48.78125 52.59375 
L 48.78125 44.1875 
Q 44.96875 46.296875 41.140625 47.34375 
Q 37.3125 48.390625 33.40625 48.390625 
Q 24.65625 48.390625 19.8125 42.84375 
Q 14.984375 37.3125 14.984375 27.296875 
Q 14.984375 17.28125 19.8125 11.734375 
Q 24.65625 6.203125 33.40625 6.203125 
Q 37.3125 6.203125 41.140625 7.25 
Q 44.96875 8.296875 48.78125 10.40625 
L 48.78125 2.09375 
Q 45.015625 0.34375 40.984375 -0.53125 
Q 36.96875 -1.421875 32.421875 -1.421875 
Q 20.0625 -1.421875 12.78125 6.34375 
Q 5.515625 14.109375 5.515625 27.296875 
Q 5.515625 40.671875 12.859375 48.328125 
Q 20.21875 56 33.015625 56 
Q 37.15625 56 41.109375 55.140625 
Q 45.0625 54.296875 48.78125 52.59375 
z
" id="DejaVuSans-99"/>
      <path d="M 54.890625 33.015625 
L 54.890625 0 
L 45.90625 0 
L 45.90625 32.71875 
Q 45.90625 40.484375 42.875 44.328125 
Q 39.84375 48.1875 33.796875 48.1875 
Q 26.515625 48.1875 22.3125 43.546875 
Q 18.109375 38.921875 18.109375 30.90625 
L 18.109375 0 
L 9.078125 0 
L 9.078125 75.984375 
L 18.109375 75.984375 
L 18.109375 46.1875 
Q 21.34375 51.125 25.703125 53.5625 
Q 30.078125 56 35.796875 56 
Q 45.21875 56 50.046875 50.171875 
Q 54.890625 44.34375 54.890625 33.015625 
z
" id="DejaVuSans-104"/>
      <path d="M 32.171875 -5.078125 
Q 28.375 -14.84375 24.75 -17.8125 
Q 21.140625 -20.796875 15.09375 -20.796875 
L 7.90625 -20.796875 
L 7.90625 -13.28125 
L 13.1875 -13.28125 
Q 16.890625 -13.28125 18.9375 -11.515625 
Q 21 -9.765625 23.484375 -3.21875 
L 25.09375 0.875 
L 2.984375 54.6875 
L 12.5 54.6875 
L 29.59375 11.921875 
L 46.6875 54.6875 
L 56.203125 54.6875 
z
" id="DejaVuSans-121"/>
      <path d="M 14.796875 27.296875 
Q 14.796875 17.390625 18.875 11.75 
Q 22.953125 6.109375 30.078125 6.109375 
Q 37.203125 6.109375 41.296875 11.75 
Q 45.40625 17.390625 45.40625 27.296875 
Q 45.40625 37.203125 41.296875 42.84375 
Q 37.203125 48.484375 30.078125 48.484375 
Q 22.953125 48.484375 18.875 42.84375 
Q 14.796875 37.203125 14.796875 27.296875 
z
M 45.40625 8.203125 
Q 42.578125 3.328125 38.25 0.953125 
Q 33.9375 -1.421875 27.875 -1.421875 
Q 17.96875 -1.421875 11.734375 6.484375 
Q 5.515625 14.40625 5.515625 27.296875 
Q 5.515625 40.1875 11.734375 48.09375 
Q 17.96875 56 27.875 56 
Q 33.9375 56 38.25 53.625 
Q 42.578125 51.265625 45.40625 46.390625 
L 45.40625 54.6875 
L 54.390625 54.6875 
L 54.390625 -20.796875 
L 45.40625 -20.796875 
z
" id="DejaVuSans-113"/>
      <path d="M 30.609375 48.390625 
Q 23.390625 48.390625 19.1875 42.75 
Q 14.984375 37.109375 14.984375 27.296875 
Q 14.984375 17.484375 19.15625 11.84375 
Q 23.34375 6.203125 30.609375 6.203125 
Q 37.796875 6.203125 41.984375 11.859375 
Q 46.1875 17.53125 46.1875 27.296875 
Q 46.1875 37.015625 41.984375 42.703125 
Q 37.796875 48.390625 30.609375 48.390625 
z
M 30.609375 56 
Q 42.328125 56 49.015625 48.375 
Q 55.71875 40.765625 55.71875 27.296875 
Q 55.71875 13.875 49.015625 6.21875 
Q 42.328125 -1.421875 30.609375 -1.421875 
Q 18.84375 -1.421875 12.171875 6.21875 
Q 5.515625 13.875 5.515625 27.296875 
Q 5.515625 40.765625 12.171875 48.375 
Q 18.84375 56 30.609375 56 
z
" id="DejaVuSans-111"/>
      <path d="M 52 44.1875 
Q 55.375 50.25 60.0625 53.125 
Q 64.75 56 71.09375 56 
Q 79.640625 56 84.28125 50.015625 
Q 88.921875 44.046875 88.921875 33.015625 
L 88.921875 0 
L 79.890625 0 
L 79.890625 32.71875 
Q 79.890625 40.578125 77.09375 44.375 
Q 74.3125 48.1875 68.609375 48.1875 
Q 61.625 48.1875 57.5625 43.546875 
Q 53.515625 38.921875 53.515625 30.90625 
L 53.515625 0 
L 44.484375 0 
L 44.484375 32.71875 
Q 44.484375 40.625 41.703125 44.40625 
Q 38.921875 48.1875 33.109375 48.1875 
Q 26.21875 48.1875 22.15625 43.53125 
Q 18.109375 38.875 18.109375 30.90625 
L 18.109375 0 
L 9.078125 0 
L 9.078125 54.6875 
L 18.109375 54.6875 
L 18.109375 46.1875 
Q 21.1875 51.21875 25.484375 53.609375 
Q 29.78125 56 35.6875 56 
Q 41.65625 56 45.828125 52.96875 
Q 50 49.953125 52 44.1875 
z
" id="DejaVuSans-109"/>
      <path d="M 10.59375 45.40625 
L 73.1875 45.40625 
L 73.1875 37.203125 
L 10.59375 37.203125 
z
M 10.59375 25.484375 
L 73.1875 25.484375 
L 73.1875 17.1875 
L 10.59375 17.1875 
z
" id="DejaVuSans-61"/>
     </defs>
     <use xlink:href="#DejaVuSans-116"/>
     <use x="39.208984" xlink:href="#DejaVuSans-45"/>
     <use x="75.292969" xlink:href="#DejaVuSans-83"/>
     <use x="138.769531" xlink:href="#DejaVuSans-116"/>
     <use x="177.978516" xlink:href="#DejaVuSans-117"/>
     <use x="241.357422" xlink:href="#DejaVuSans-100"/>
     <use x="304.833984" xlink:href="#DejaVuSans-101"/>
     <use x="366.357422" xlink:href="#DejaVuSans-110"/>
     <use x="429.736328" xlink:href="#DejaVuSans-116"/>
     <use x="468.945312" xlink:href="#DejaVuSans-32"/>
     <use x="500.732422" xlink:href="#DejaVuSans-101"/>
     <use x="562.255859" xlink:href="#DejaVuSans-32"/>
     <use x="594.042969" xlink:href="#DejaVuSans-67"/>
     <use x="663.867188" xlink:href="#DejaVuSans-97"/>
     <use x="725.146484" xlink:href="#DejaVuSans-117"/>
     <use x="788.525391" xlink:href="#DejaVuSans-99"/>
     <use x="843.505859" xlink:href="#DejaVuSans-104"/>
     <use x="906.884766" xlink:href="#DejaVuSans-121"/>
     <use x="966.064453" xlink:href="#DejaVuSans-32"/>
     <use x="997.851562" xlink:href="#DejaVuSans-113"/>
     <use x="1061.328125" xlink:href="#DejaVuSans-117"/>
     <use x="1124.707031" xlink:href="#DejaVuSans-97"/>
     <use x="1185.986328" xlink:href="#DejaVuSans-110"/>
     <use x="1249.365234" xlink:href="#DejaVuSans-100"/>
     <use x="1312.841797" xlink:href="#DejaVuSans-111"/>
     <use x="1374.023438" xlink:href="#DejaVuSans-32"/>
     <use x="1405.810547" xlink:href="#DejaVuSans-109"/>
     <use x="1503.222656" xlink:href="#DejaVuSans-32"/>
     <use x="1535.009766" xlink:href="#DejaVuSans-61"/>
     <use x="1618.798828" xlink:href="#DejaVuSans-32"/>
     <use x="1650.585938" xlink:href="#DejaVuSans-49"/>
    </g>
   </g>
   <g id="legend_1">
    <g id="patch_7">
     <path d="M 305.662784 60.154375 
L 384.556534 60.154375 
Q 386.556534 60.154375 386.556534 58.154375 
L 386.556534 29.798125 
Q 386.556534 27.798125 384.556534 27.798125 
L 305.662784 27.798125 
Q 303.662784 27.798125 303.662784 29.798125 
L 303.662784 58.154375 
Q 303.662784 60.154375 305.662784 60.154375 
z
" style="fill:#ffffff;opacity:0.8;stroke:#cccccc;stroke-linejoin:miter;"/>
    </g>
    <g id="line2d_15">
     <path d="M 307.662784 35.896562 
L 327.662784 35.896562 
" style="fill:none;stroke:#1f77b4;stroke-linecap:square;stroke-width:1.5;"/>
    </g>
    <g id="line2d_16"/>
    <g id="text_15">
     <!-- Cauchy -->
     <g transform="translate(335.662784 39.396562)scale(0.1 -0.1)">
      <use xlink:href="#DejaVuSans-67"/>
      <use x="69.824219" xlink:href="#DejaVuSans-97"/>
      <use x="131.103516" xlink:href="#DejaVuSans-117"/>
      <use x="194.482422" xlink:href="#DejaVuSans-99"/>
      <use x="249.462891" xlink:href="#DejaVuSans-104"/>
      <use x="312.841797" xlink:href="#DejaVuSans-121"/>
     </g>
    </g>
    <g id="PathCollection_2">
     <g>
      <use style="fill:#ff0000;stroke:#ff0000;" x="317.662784" xlink:href="#mf4b6522a1a" y="51.449687"/>
     </g>
    </g>
    <g id="text_16">
     <!-- t-Student -->
     <g transform="translate(335.662784 54.074687)scale(0.1 -0.1)">
      <use xlink:href="#DejaVuSans-116"/>
      <use x="39.208984" xlink:href="#DejaVuSans-45"/>
      <use x="75.292969" xlink:href="#DejaVuSans-83"/>
      <use x="138.769531" xlink:href="#DejaVuSans-116"/>
      <use x="177.978516" xlink:href="#DejaVuSans-117"/>
      <use x="241.357422" xlink:href="#DejaVuSans-100"/>
      <use x="304.833984" xlink:href="#DejaVuSans-101"/>
      <use x="366.357422" xlink:href="#DejaVuSans-110"/>
      <use x="429.736328" xlink:href="#DejaVuSans-116"/>
     </g>
    </g>
   </g>
  </g>
  <g id="axes_2">
   <g id="patch_8">
    <path d="M 462.574716 294.598125 
L 817.665625 294.598125 
L 817.665625 22.798125 
L 462.574716 22.798125 
z
" style="fill:#ffffff;"/>
   </g>
   <g id="matplotlib.axis_3">
    <g id="xtick_8">
     <g id="line2d_17">
      <g>
       <use style="stroke:#000000;stroke-width:0.8;" x="478.715212" xlink:href="#m63e9fab431" y="294.598125"/>
      </g>
     </g>
     <g id="text_17">
      <!-- −3 -->
      <g transform="translate(471.344118 309.196562)scale(0.1 -0.1)">
       <use xlink:href="#DejaVuSans-8722"/>
       <use x="83.789062" xlink:href="#DejaVuSans-51"/>
      </g>
     </g>
    </g>
    <g id="xtick_9">
     <g id="line2d_18">
      <g>
       <use style="stroke:#000000;stroke-width:0.8;" x="533.428757" xlink:href="#m63e9fab431" y="294.598125"/>
      </g>
     </g>
     <g id="text_18">
      <!-- −2 -->
      <g transform="translate(526.057663 309.196562)scale(0.1 -0.1)">
       <use xlink:href="#DejaVuSans-8722"/>
       <use x="83.789062" xlink:href="#DejaVuSans-50"/>
      </g>
     </g>
    </g>
    <g id="xtick_10">
     <g id="line2d_19">
      <g>
       <use style="stroke:#000000;stroke-width:0.8;" x="588.142302" xlink:href="#m63e9fab431" y="294.598125"/>
      </g>
     </g>
     <g id="text_19">
      <!-- −1 -->
      <g transform="translate(580.771209 309.196562)scale(0.1 -0.1)">
       <use xlink:href="#DejaVuSans-8722"/>
       <use x="83.789062" xlink:href="#DejaVuSans-49"/>
      </g>
     </g>
    </g>
    <g id="xtick_11">
     <g id="line2d_20">
      <g>
       <use style="stroke:#000000;stroke-width:0.8;" x="642.855848" xlink:href="#m63e9fab431" y="294.598125"/>
      </g>
     </g>
     <g id="text_20">
      <!-- 0 -->
      <g transform="translate(639.674598 309.196562)scale(0.1 -0.1)">
       <use xlink:href="#DejaVuSans-48"/>
      </g>
     </g>
    </g>
    <g id="xtick_12">
     <g id="line2d_21">
      <g>
       <use style="stroke:#000000;stroke-width:0.8;" x="697.569393" xlink:href="#m63e9fab431" y="294.598125"/>
      </g>
     </g>
     <g id="text_21">
      <!-- 1 -->
      <g transform="translate(694.388143 309.196562)scale(0.1 -0.1)">
       <use xlink:href="#DejaVuSans-49"/>
      </g>
     </g>
    </g>
    <g id="xtick_13">
     <g id="line2d_22">
      <g>
       <use style="stroke:#000000;stroke-width:0.8;" x="752.282938" xlink:href="#m63e9fab431" y="294.598125"/>
      </g>
     </g>
     <g id="text_22">
      <!-- 2 -->
      <g transform="translate(749.101688 309.196562)scale(0.1 -0.1)">
       <use xlink:href="#DejaVuSans-50"/>
      </g>
     </g>
    </g>
    <g id="xtick_14">
     <g id="line2d_23">
      <g>
       <use style="stroke:#000000;stroke-width:0.8;" x="806.996484" xlink:href="#m63e9fab431" y="294.598125"/>
      </g>
     </g>
     <g id="text_23">
      <!-- 3 -->
      <g transform="translate(803.815234 309.196562)scale(0.1 -0.1)">
       <use xlink:href="#DejaVuSans-51"/>
      </g>
     </g>
    </g>
   </g>
   <g id="matplotlib.axis_4">
    <g id="ytick_7">
     <g id="line2d_24">
      <g>
       <use style="stroke:#000000;stroke-width:0.8;" x="462.574716" xlink:href="#m2908b44e17" y="285.019348"/>
      </g>
     </g>
     <g id="text_24">
      <!-- 0.00 -->
      <g transform="translate(433.309091 288.818566)scale(0.1 -0.1)">
       <use xlink:href="#DejaVuSans-48"/>
       <use x="63.623047" xlink:href="#DejaVuSans-46"/>
       <use x="95.410156" xlink:href="#DejaVuSans-48"/>
       <use x="159.033203" xlink:href="#DejaVuSans-48"/>
      </g>
     </g>
    </g>
    <g id="ytick_8">
     <g id="line2d_25">
      <g>
       <use style="stroke:#000000;stroke-width:0.8;" x="462.574716" xlink:href="#m2908b44e17" y="253.703204"/>
      </g>
     </g>
     <g id="text_25">
      <!-- 0.05 -->
      <g transform="translate(433.309091 257.502422)scale(0.1 -0.1)">
       <use xlink:href="#DejaVuSans-48"/>
       <use x="63.623047" xlink:href="#DejaVuSans-46"/>
       <use x="95.410156" xlink:href="#DejaVuSans-48"/>
       <use x="159.033203" xlink:href="#DejaVuSans-53"/>
      </g>
     </g>
    </g>
    <g id="ytick_9">
     <g id="line2d_26">
      <g>
       <use style="stroke:#000000;stroke-width:0.8;" x="462.574716" xlink:href="#m2908b44e17" y="222.38706"/>
      </g>
     </g>
     <g id="text_26">
      <!-- 0.10 -->
      <g transform="translate(433.309091 226.186279)scale(0.1 -0.1)">
       <use xlink:href="#DejaVuSans-48"/>
       <use x="63.623047" xlink:href="#DejaVuSans-46"/>
       <use x="95.410156" xlink:href="#DejaVuSans-49"/>
       <use x="159.033203" xlink:href="#DejaVuSans-48"/>
      </g>
     </g>
    </g>
    <g id="ytick_10">
     <g id="line2d_27">
      <g>
       <use style="stroke:#000000;stroke-width:0.8;" x="462.574716" xlink:href="#m2908b44e17" y="191.070916"/>
      </g>
     </g>
     <g id="text_27">
      <!-- 0.15 -->
      <g transform="translate(433.309091 194.870135)scale(0.1 -0.1)">
       <use xlink:href="#DejaVuSans-48"/>
       <use x="63.623047" xlink:href="#DejaVuSans-46"/>
       <use x="95.410156" xlink:href="#DejaVuSans-49"/>
       <use x="159.033203" xlink:href="#DejaVuSans-53"/>
      </g>
     </g>
    </g>
    <g id="ytick_11">
     <g id="line2d_28">
      <g>
       <use style="stroke:#000000;stroke-width:0.8;" x="462.574716" xlink:href="#m2908b44e17" y="159.754772"/>
      </g>
     </g>
     <g id="text_28">
      <!-- 0.20 -->
      <g transform="translate(433.309091 163.553991)scale(0.1 -0.1)">
       <use xlink:href="#DejaVuSans-48"/>
       <use x="63.623047" xlink:href="#DejaVuSans-46"/>
       <use x="95.410156" xlink:href="#DejaVuSans-50"/>
       <use x="159.033203" xlink:href="#DejaVuSans-48"/>
      </g>
     </g>
    </g>
    <g id="ytick_12">
     <g id="line2d_29">
      <g>
       <use style="stroke:#000000;stroke-width:0.8;" x="462.574716" xlink:href="#m2908b44e17" y="128.438628"/>
      </g>
     </g>
     <g id="text_29">
      <!-- 0.25 -->
      <g transform="translate(433.309091 132.237847)scale(0.1 -0.1)">
       <use xlink:href="#DejaVuSans-48"/>
       <use x="63.623047" xlink:href="#DejaVuSans-46"/>
       <use x="95.410156" xlink:href="#DejaVuSans-50"/>
       <use x="159.033203" xlink:href="#DejaVuSans-53"/>
      </g>
     </g>
    </g>
    <g id="ytick_13">
     <g id="line2d_30">
      <g>
       <use style="stroke:#000000;stroke-width:0.8;" x="462.574716" xlink:href="#m2908b44e17" y="97.122484"/>
      </g>
     </g>
     <g id="text_30">
      <!-- 0.30 -->
      <g transform="translate(433.309091 100.921703)scale(0.1 -0.1)">
       <use xlink:href="#DejaVuSans-48"/>
       <use x="63.623047" xlink:href="#DejaVuSans-46"/>
       <use x="95.410156" xlink:href="#DejaVuSans-51"/>
       <use x="159.033203" xlink:href="#DejaVuSans-48"/>
      </g>
     </g>
    </g>
    <g id="ytick_14">
     <g id="line2d_31">
      <g>
       <use style="stroke:#000000;stroke-width:0.8;" x="462.574716" xlink:href="#m2908b44e17" y="65.80634"/>
      </g>
     </g>
     <g id="text_31">
      <!-- 0.35 -->
      <g transform="translate(433.309091 69.605559)scale(0.1 -0.1)">
       <use xlink:href="#DejaVuSans-48"/>
       <use x="63.623047" xlink:href="#DejaVuSans-46"/>
       <use x="95.410156" xlink:href="#DejaVuSans-51"/>
       <use x="159.033203" xlink:href="#DejaVuSans-53"/>
      </g>
     </g>
    </g>
    <g id="ytick_15">
     <g id="line2d_32">
      <g>
       <use style="stroke:#000000;stroke-width:0.8;" x="462.574716" xlink:href="#m2908b44e17" y="34.490196"/>
      </g>
     </g>
     <g id="text_32">
      <!-- 0.40 -->
      <g transform="translate(433.309091 38.289415)scale(0.1 -0.1)">
       <defs>
        <path d="M 37.796875 64.3125 
L 12.890625 25.390625 
L 37.796875 25.390625 
z
M 35.203125 72.90625 
L 47.609375 72.90625 
L 47.609375 25.390625 
L 58.015625 25.390625 
L 58.015625 17.1875 
L 47.609375 17.1875 
L 47.609375 0 
L 37.796875 0 
L 37.796875 17.1875 
L 4.890625 17.1875 
L 4.890625 26.703125 
z
" id="DejaVuSans-52"/>
       </defs>
       <use xlink:href="#DejaVuSans-48"/>
       <use x="63.623047" xlink:href="#DejaVuSans-46"/>
       <use x="95.410156" xlink:href="#DejaVuSans-52"/>
       <use x="159.033203" xlink:href="#DejaVuSans-48"/>
      </g>
     </g>
    </g>
   </g>
   <g id="line2d_33">
    <path clip-path="url(#p4d61e3485b)" d="M 478.715212 282.24358 
L 484.186566 281.29114 
L 489.657921 280.061719 
L 495.129275 278.492478 
L 500.60063 276.512023 
L 506.071984 274.040972 
L 511.543339 270.993141 
L 517.014693 267.277476 
L 522.486048 262.800799 
L 527.957403 257.471415 
L 533.428757 251.20357 
L 538.900112 243.922662 
L 544.371466 235.571057 
L 549.842821 226.114259 
L 555.314175 215.547091 
L 560.78553 203.899514 
L 566.256884 191.24161 
L 571.728239 177.687278 
L 577.199593 163.396179 
L 582.670948 148.573545 
L 588.142302 133.467547 
L 593.613657 118.364068 
L 599.085011 103.578901 
L 604.556366 89.447565 
L 610.027721 76.313155 
L 615.499075 64.512779 
L 620.97043 54.363334 
L 626.441784 46.147433 
L 631.913139 40.100362 
L 637.384493 36.398886 
L 642.855848 35.15267 
L 648.327202 36.398886 
L 653.798557 40.100362 
L 659.269911 46.147433 
L 664.741266 54.363334 
L 670.21262 64.512779 
L 675.683975 76.313155 
L 681.155329 89.447565 
L 686.626684 103.578901 
L 692.098039 118.364068 
L 697.569393 133.467547 
L 703.040748 148.573545 
L 708.512102 163.396179 
L 713.983457 177.687278 
L 719.454811 191.24161 
L 724.926166 203.899514 
L 730.39752 215.547091 
L 735.868875 226.114259 
L 741.340229 235.571057 
L 746.811584 243.922662 
L 752.282938 251.20357 
L 757.754293 257.471415 
L 763.225647 262.800799 
L 768.697002 267.277476 
L 774.168356 270.993141 
L 779.639711 274.040972 
L 785.111066 276.512023 
L 790.58242 278.492478 
L 796.053775 280.061719 
L 801.525129 281.29114 
" style="fill:none;stroke:#1f77b4;stroke-linecap:square;stroke-width:1.5;"/>
   </g>
   <g id="line2d_34">
    <path clip-path="url(#p4d61e3485b)" d="M 478.715212 265.082871 
L 484.186566 263.832869 
L 489.657921 262.466772 
L 495.129275 260.970522 
L 500.60063 259.328012 
L 506.071984 257.520759 
L 511.543339 255.527519 
L 517.014693 253.323837 
L 522.486048 250.881546 
L 527.957403 248.16819 
L 533.428757 245.146395 
L 538.900112 241.773195 
L 544.371466 237.999356 
L 549.842821 233.768766 
L 555.314175 229.018009 
L 560.78553 223.676343 
L 566.256884 217.666387 
L 571.728239 210.906052 
L 577.199593 203.312477 
L 582.670948 194.809047 
L 588.142302 185.336966 
L 593.613657 174.873069 
L 599.085011 163.455467 
L 604.556366 151.217493 
L 610.027721 138.427609 
L 615.499075 125.527536 
L 620.97043 113.153172 
L 626.441784 102.115894 
L 631.913139 93.322459 
L 637.384493 87.628492 
L 642.855848 85.654584 
L 648.327202 87.628492 
L 653.798557 93.322459 
L 659.269911 102.115894 
L 664.741266 113.153172 
L 670.21262 125.527536 
L 675.683975 138.427609 
L 681.155329 151.217493 
L 686.626684 163.455467 
L 692.098039 174.873069 
L 697.569393 185.336966 
L 703.040748 194.809047 
L 708.512102 203.312477 
L 713.983457 210.906052 
L 719.454811 217.666387 
L 724.926166 223.676343 
L 730.39752 229.018009 
L 735.868875 233.768766 
L 741.340229 237.999356 
L 746.811584 241.773195 
L 752.282938 245.146395 
L 757.754293 248.16819 
L 763.225647 250.881546 
L 768.697002 253.323837 
L 774.168356 255.527519 
L 779.639711 257.520759 
L 785.111066 259.328012 
L 790.58242 260.970522 
L 796.053775 262.466772 
L 801.525129 263.832869 
" style="fill:none;stroke:#808080;stroke-dasharray:5.55,2.4;stroke-dashoffset:0;stroke-opacity:0.525;stroke-width:1.5;"/>
   </g>
   <g id="line2d_35">
    <path clip-path="url(#p4d61e3485b)" d="M 478.715212 267.851761 
L 484.186566 266.37178 
L 489.657921 264.728246 
L 495.129275 262.899878 
L 500.60063 260.862397 
L 506.071984 258.588119 
L 511.543339 256.045532 
L 517.014693 253.198849 
L 522.486048 250.007573 
L 527.957403 246.426108 
L 533.428757 242.403474 
L 538.900112 237.883211 
L 544.371466 232.803619 
L 549.842821 227.09849 
L 555.314175 220.698611 
L 560.78553 213.534354 
L 566.256884 205.53978 
L 571.728239 196.658733 
L 577.199593 186.853457 
L 582.670948 176.116126 
L 588.142302 164.483454 
L 593.613657 152.053901 
L 599.085011 139.006058 
L 604.556366 125.615333 
L 610.027721 112.264489 
L 615.499075 99.442199 
L 620.97043 87.723635 
L 626.441784 77.729111 
L 631.913139 70.061639 
L 637.384493 65.23124 
L 642.855848 63.580771 
L 648.327202 65.23124 
L 653.798557 70.061639 
L 659.269911 77.729111 
L 664.741266 87.723635 
L 670.21262 99.442199 
L 675.683975 112.264489 
L 681.155329 125.615333 
L 686.626684 139.006058 
L 692.098039 152.053901 
L 697.569393 164.483454 
L 703.040748 176.116126 
L 708.512102 186.853457 
L 713.983457 196.658733 
L 719.454811 205.53978 
L 724.926166 213.534354 
L 730.39752 220.698611 
L 735.868875 227.09849 
L 741.340229 232.803619 
L 746.811584 237.883211 
L 752.282938 242.403474 
L 757.754293 246.426108 
L 763.225647 250.007573 
L 768.697002 253.198849 
L 774.168356 256.045532 
L 779.639711 258.588119 
L 785.111066 260.862397 
L 790.58242 262.899878 
L 796.053775 264.728246 
L 801.525129 266.37178 
" style="fill:none;stroke:#808080;stroke-dasharray:5.55,2.4;stroke-dashoffset:0;stroke-opacity:0.552869;stroke-width:1.5;"/>
   </g>
   <g id="line2d_36">
    <path clip-path="url(#p4d61e3485b)" d="M 478.715212 272.684859 
L 484.186566 271.166149 
L 489.657921 269.43817 
L 495.129275 267.470659 
L 500.60063 265.229209 
L 506.071984 262.674888 
L 511.543339 259.763905 
L 517.014693 256.447374 
L 522.486048 252.671241 
L 527.957403 248.376473 
L 533.428757 243.499614 
L 538.900112 237.97387 
L 544.371466 231.730895 
L 549.842821 224.703496 
L 555.314175 216.829468 
L 560.78553 208.056792 
L 566.256884 198.35033 
L 571.728239 187.700075 
L 577.199593 176.130783 
L 582.670948 163.712529 
L 588.142302 150.571297 
L 593.613657 136.898281 
L 599.085011 122.956088 
L 604.556366 109.07972 
L 610.027721 95.670224 
L 615.499075 83.179367 
L 620.97043 72.084768 
L 626.441784 62.856593 
L 631.913139 55.91881 
L 637.384493 51.609814 
L 642.855848 50.148268 
L 648.327202 51.609814 
L 653.798557 55.91881 
L 659.269911 62.856593 
L 664.741266 72.084768 
L 670.21262 83.179367 
L 675.683975 95.670224 
L 681.155329 109.07972 
L 686.626684 122.956088 
L 692.098039 136.898281 
L 697.569393 150.571297 
L 703.040748 163.712529 
L 708.512102 176.130783 
L 713.983457 187.700075 
L 719.454811 198.35033 
L 724.926166 208.056792 
L 730.39752 216.829468 
L 735.868875 224.703496 
L 741.340229 231.730895 
L 746.811584 237.97387 
L 752.282938 243.499614 
L 757.754293 248.376473 
L 763.225647 252.671241 
L 768.697002 256.447374 
L 774.168356 259.763905 
L 779.639711 262.674888 
L 785.111066 265.229209 
L 790.58242 267.470659 
L 796.053775 269.43817 
L 801.525129 271.166149 
" style="fill:none;stroke:#808080;stroke-dasharray:5.55,2.4;stroke-dashoffset:0;stroke-opacity:0.611803;stroke-width:1.5;"/>
   </g>
   <g id="line2d_37">
    <path clip-path="url(#p4d61e3485b)" d="M 478.715212 277.424499 
L 484.186566 276.047379 
L 489.657921 274.422634 
L 495.129275 272.508803 
L 500.60063 270.258865 
L 506.071984 267.620023 
L 511.543339 264.533694 
L 517.014693 260.935799 
L 522.486048 256.75746 
L 527.957403 251.926226 
L 533.428757 246.367981 
L 538.900112 240.00964 
L 544.371466 232.782792 
L 549.842821 224.62833 
L 555.314175 215.502119 
L 560.78553 205.381593 
L 566.256884 194.273064 
L 571.728239 182.219352 
L 577.199593 169.307154 
L 582.670948 155.673375 
L 588.142302 141.509527 
L 593.613657 127.063182 
L 599.085011 112.635547 
L 604.556366 98.574426 
L 610.027721 85.262177 
L 615.499075 73.098854 
L 620.97043 62.481311 
L 626.441784 53.77975 
L 631.913139 47.313717 
L 637.384493 43.329913 
L 642.855848 41.984207 
L 648.327202 43.329913 
L 653.798557 47.313717 
L 659.269911 53.77975 
L 664.741266 62.481311 
L 670.21262 73.098854 
L 675.683975 85.262177 
L 681.155329 98.574426 
L 686.626684 112.635547 
L 692.098039 127.063182 
L 697.569393 141.509527 
L 703.040748 155.673375 
L 708.512102 169.307154 
L 713.983457 182.219352 
L 719.454811 194.273064 
L 724.926166 205.381593 
L 730.39752 215.502119 
L 735.868875 224.62833 
L 741.340229 232.782792 
L 746.811584 240.00964 
L 752.282938 246.367981 
L 757.754293 251.926226 
L 763.225647 256.75746 
L 768.697002 260.935799 
L 774.168356 264.533694 
L 779.639711 267.620023 
L 785.111066 270.258865 
L 790.58242 272.508803 
L 796.053775 274.422634 
L 801.525129 276.047379 
" style="fill:none;stroke:#808080;stroke-dasharray:5.55,2.4;stroke-dashoffset:0;stroke-opacity:0.736435;stroke-width:1.5;"/>
   </g>
   <g id="line2d_38">
    <path clip-path="url(#p4d61e3485b)" d="M 478.715212 280.031446 
L 484.186566 278.829942 
L 489.657921 277.362148 
L 495.129275 275.57744 
L 500.60063 273.41842 
L 506.071984 270.820956 
L 511.543339 267.714597 
L 517.014693 264.023464 
L 522.486048 259.66776 
L 527.957403 254.56599 
L 533.428757 248.637996 
L 538.900112 241.808876 
L 544.371466 234.013782 
L 549.842821 225.203529 
L 555.314175 215.350862 
L 560.78553 204.457075 
L 566.256884 192.558612 
L 571.728239 179.733118 
L 577.199593 166.10434 
L 582.670948 151.845223 
L 588.142302 137.178557 
L 593.613657 122.374606 
L 599.085011 107.745327 
L 604.556366 93.635048 
L 610.027721 80.40775 
L 615.499075 68.431502 
L 620.97043 58.060912 
L 626.441784 49.618765 
L 631.913139 43.378228 
L 637.384493 39.547077 
L 642.855848 38.255283 
L 648.327202 39.547077 
L 653.798557 43.378228 
L 659.269911 49.618765 
L 664.741266 58.060912 
L 670.21262 68.431502 
L 675.683975 80.40775 
L 681.155329 93.635048 
L 686.626684 107.745327 
L 692.098039 122.374606 
L 697.569393 137.178557 
L 703.040748 151.845223 
L 708.512102 166.10434 
L 713.983457 179.733118 
L 719.454811 192.558612 
L 724.926166 204.457075 
L 730.39752 215.350862 
L 735.868875 225.203529 
L 741.340229 234.013782 
L 746.811584 241.808876 
L 752.282938 248.637996 
L 757.754293 254.56599 
L 763.225647 259.66776 
L 768.697002 264.023464 
L 774.168356 267.714597 
L 779.639711 270.820956 
L 785.111066 273.41842 
L 790.58242 275.57744 
L 796.053775 277.362148 
L 801.525129 278.829942 
" style="fill:none;stroke:#808080;stroke-dasharray:5.55,2.4;stroke-dashoffset:0;stroke-width:1.5;"/>
   </g>
   <g id="patch_9">
    <path d="M 462.574716 294.598125 
L 462.574716 22.798125 
" style="fill:none;stroke:#000000;stroke-linecap:square;stroke-linejoin:miter;stroke-width:0.8;"/>
   </g>
   <g id="patch_10">
    <path d="M 817.665625 294.598125 
L 817.665625 22.798125 
" style="fill:none;stroke:#000000;stroke-linecap:square;stroke-linejoin:miter;stroke-width:0.8;"/>
   </g>
   <g id="patch_11">
    <path d="M 462.574716 294.598125 
L 817.665625 294.598125 
" style="fill:none;stroke:#000000;stroke-linecap:square;stroke-linejoin:miter;stroke-width:0.8;"/>
   </g>
   <g id="patch_12">
    <path d="M 462.574716 22.798125 
L 817.665625 22.798125 
" style="fill:none;stroke:#000000;stroke-linecap:square;stroke-linejoin:miter;stroke-width:0.8;"/>
   </g>
   <g id="text_33">
    <!-- Convergência da t para a normal -->
    <g transform="translate(541.203608 16.798125)scale(0.12 -0.12)">
     <defs>
      <path d="M 2.984375 54.6875 
L 12.5 54.6875 
L 29.59375 8.796875 
L 46.6875 54.6875 
L 56.203125 54.6875 
L 35.6875 0 
L 23.484375 0 
z
" id="DejaVuSans-118"/>
      <path d="M 41.109375 46.296875 
Q 39.59375 47.171875 37.8125 47.578125 
Q 36.03125 48 33.890625 48 
Q 26.265625 48 22.1875 43.046875 
Q 18.109375 38.09375 18.109375 28.8125 
L 18.109375 0 
L 9.078125 0 
L 9.078125 54.6875 
L 18.109375 54.6875 
L 18.109375 46.1875 
Q 20.953125 51.171875 25.484375 53.578125 
Q 30.03125 56 36.53125 56 
Q 37.453125 56 38.578125 55.875 
Q 39.703125 55.765625 41.0625 55.515625 
z
" id="DejaVuSans-114"/>
      <path d="M 45.40625 27.984375 
Q 45.40625 37.75 41.375 43.109375 
Q 37.359375 48.484375 30.078125 48.484375 
Q 22.859375 48.484375 18.828125 43.109375 
Q 14.796875 37.75 14.796875 27.984375 
Q 14.796875 18.265625 18.828125 12.890625 
Q 22.859375 7.515625 30.078125 7.515625 
Q 37.359375 7.515625 41.375 12.890625 
Q 45.40625 18.265625 45.40625 27.984375 
z
M 54.390625 6.78125 
Q 54.390625 -7.171875 48.1875 -13.984375 
Q 42 -20.796875 29.203125 -20.796875 
Q 24.46875 -20.796875 20.265625 -20.09375 
Q 16.0625 -19.390625 12.109375 -17.921875 
L 12.109375 -9.1875 
Q 16.0625 -11.328125 19.921875 -12.34375 
Q 23.78125 -13.375 27.78125 -13.375 
Q 36.625 -13.375 41.015625 -8.765625 
Q 45.40625 -4.15625 45.40625 5.171875 
L 45.40625 9.625 
Q 42.625 4.78125 38.28125 2.390625 
Q 33.9375 0 27.875 0 
Q 17.828125 0 11.671875 7.65625 
Q 5.515625 15.328125 5.515625 27.984375 
Q 5.515625 40.671875 11.671875 48.328125 
Q 17.828125 56 27.875 56 
Q 33.9375 56 38.28125 53.609375 
Q 42.625 51.21875 45.40625 46.390625 
L 45.40625 54.6875 
L 54.390625 54.6875 
z
" id="DejaVuSans-103"/>
      <path d="M 56.203125 29.59375 
L 56.203125 25.203125 
L 14.890625 25.203125 
Q 15.484375 15.921875 20.484375 11.0625 
Q 25.484375 6.203125 34.421875 6.203125 
Q 39.59375 6.203125 44.453125 7.46875 
Q 49.3125 8.734375 54.109375 11.28125 
L 54.109375 2.78125 
Q 49.265625 0.734375 44.1875 -0.34375 
Q 39.109375 -1.421875 33.890625 -1.421875 
Q 20.796875 -1.421875 13.15625 6.1875 
Q 5.515625 13.8125 5.515625 26.8125 
Q 5.515625 40.234375 12.765625 48.109375 
Q 20.015625 56 32.328125 56 
Q 43.359375 56 49.78125 48.890625 
Q 56.203125 41.796875 56.203125 29.59375 
z
M 47.21875 32.234375 
Q 47.125 39.59375 43.09375 43.984375 
Q 39.0625 48.390625 32.421875 48.390625 
Q 24.90625 48.390625 20.390625 44.140625 
Q 15.875 39.890625 15.1875 32.171875 
z
M 28.140625 79.984375 
L 35.359375 79.984375 
L 47.328125 61.625 
L 40.546875 61.625 
L 31.75 73.578125 
L 22.96875 61.625 
L 16.171875 61.625 
z
" id="DejaVuSans-234"/>
      <path d="M 9.421875 54.6875 
L 18.40625 54.6875 
L 18.40625 0 
L 9.421875 0 
z
M 9.421875 75.984375 
L 18.40625 75.984375 
L 18.40625 64.59375 
L 9.421875 64.59375 
z
" id="DejaVuSans-105"/>
      <path d="M 18.109375 8.203125 
L 18.109375 -20.796875 
L 9.078125 -20.796875 
L 9.078125 54.6875 
L 18.109375 54.6875 
L 18.109375 46.390625 
Q 20.953125 51.265625 25.265625 53.625 
Q 29.59375 56 35.59375 56 
Q 45.5625 56 51.78125 48.09375 
Q 58.015625 40.1875 58.015625 27.296875 
Q 58.015625 14.40625 51.78125 6.484375 
Q 45.5625 -1.421875 35.59375 -1.421875 
Q 29.59375 -1.421875 25.265625 0.953125 
Q 20.953125 3.328125 18.109375 8.203125 
z
M 48.6875 27.296875 
Q 48.6875 37.203125 44.609375 42.84375 
Q 40.53125 48.484375 33.40625 48.484375 
Q 26.265625 48.484375 22.1875 42.84375 
Q 18.109375 37.203125 18.109375 27.296875 
Q 18.109375 17.390625 22.1875 11.75 
Q 26.265625 6.109375 33.40625 6.109375 
Q 40.53125 6.109375 44.609375 11.75 
Q 48.6875 17.390625 48.6875 27.296875 
z
" id="DejaVuSans-112"/>
      <path d="M 9.421875 75.984375 
L 18.40625 75.984375 
L 18.40625 0 
L 9.421875 0 
z
" id="DejaVuSans-108"/>
     </defs>
     <use xlink:href="#DejaVuSans-67"/>
     <use x="69.824219" xlink:href="#DejaVuSans-111"/>
     <use x="131.005859" xlink:href="#DejaVuSans-110"/>
     <use x="194.384766" xlink:href="#DejaVuSans-118"/>
     <use x="253.564453" xlink:href="#DejaVuSans-101"/>
     <use x="315.087891" xlink:href="#DejaVuSans-114"/>
     <use x="354.451172" xlink:href="#DejaVuSans-103"/>
     <use x="417.927734" xlink:href="#DejaVuSans-234"/>
     <use x="479.451172" xlink:href="#DejaVuSans-110"/>
     <use x="542.830078" xlink:href="#DejaVuSans-99"/>
     <use x="597.810547" xlink:href="#DejaVuSans-105"/>
     <use x="625.59375" xlink:href="#DejaVuSans-97"/>
     <use x="686.873047" xlink:href="#DejaVuSans-32"/>
     <use x="718.660156" xlink:href="#DejaVuSans-100"/>
     <use x="782.136719" xlink:href="#DejaVuSans-97"/>
     <use x="843.416016" xlink:href="#DejaVuSans-32"/>
     <use x="875.203125" xlink:href="#DejaVuSans-116"/>
     <use x="914.412109" xlink:href="#DejaVuSans-32"/>
     <use x="946.199219" xlink:href="#DejaVuSans-112"/>
     <use x="1009.675781" xlink:href="#DejaVuSans-97"/>
     <use x="1070.955078" xlink:href="#DejaVuSans-114"/>
     <use x="1112.068359" xlink:href="#DejaVuSans-97"/>
     <use x="1173.347656" xlink:href="#DejaVuSans-32"/>
     <use x="1205.134766" xlink:href="#DejaVuSans-97"/>
     <use x="1266.414062" xlink:href="#DejaVuSans-32"/>
     <use x="1298.201172" xlink:href="#DejaVuSans-110"/>
     <use x="1361.580078" xlink:href="#DejaVuSans-111"/>
     <use x="1422.761719" xlink:href="#DejaVuSans-114"/>
     <use x="1462.125" xlink:href="#DejaVuSans-109"/>
     <use x="1559.537109" xlink:href="#DejaVuSans-97"/>
     <use x="1620.816406" xlink:href="#DejaVuSans-108"/>
    </g>
   </g>
   <g id="legend_2">
    <g id="patch_13">
     <path d="M 747.478125 118.866875 
L 810.665625 118.866875 
Q 812.665625 118.866875 812.665625 116.866875 
L 812.665625 29.798125 
Q 812.665625 27.798125 810.665625 27.798125 
L 747.478125 27.798125 
Q 745.478125 27.798125 745.478125 29.798125 
L 745.478125 116.866875 
Q 745.478125 118.866875 747.478125 118.866875 
z
" style="fill:#ffffff;opacity:0.8;stroke:#cccccc;stroke-linejoin:miter;"/>
    </g>
    <g id="line2d_39">
     <path d="M 749.478125 35.896562 
L 769.478125 35.896562 
" style="fill:none;stroke:#1f77b4;stroke-linecap:square;stroke-width:1.5;"/>
    </g>
    <g id="line2d_40"/>
    <g id="text_34">
     <!-- N(0,1) -->
     <g transform="translate(777.478125 39.396562)scale(0.1 -0.1)">
      <defs>
       <path d="M 9.8125 72.90625 
L 23.09375 72.90625 
L 55.421875 11.921875 
L 55.421875 72.90625 
L 64.984375 72.90625 
L 64.984375 0 
L 51.703125 0 
L 19.390625 60.984375 
L 19.390625 0 
L 9.8125 0 
z
" id="DejaVuSans-78"/>
       <path d="M 31 75.875 
Q 24.46875 64.65625 21.28125 53.65625 
Q 18.109375 42.671875 18.109375 31.390625 
Q 18.109375 20.125 21.3125 9.0625 
Q 24.515625 -2 31 -13.1875 
L 23.1875 -13.1875 
Q 15.875 -1.703125 12.234375 9.375 
Q 8.59375 20.453125 8.59375 31.390625 
Q 8.59375 42.28125 12.203125 53.3125 
Q 15.828125 64.359375 23.1875 75.875 
z
" id="DejaVuSans-40"/>
       <path d="M 11.71875 12.40625 
L 22.015625 12.40625 
L 22.015625 4 
L 14.015625 -11.625 
L 7.71875 -11.625 
L 11.71875 4 
z
" id="DejaVuSans-44"/>
       <path d="M 8.015625 75.875 
L 15.828125 75.875 
Q 23.140625 64.359375 26.78125 53.3125 
Q 30.421875 42.28125 30.421875 31.390625 
Q 30.421875 20.453125 26.78125 9.375 
Q 23.140625 -1.703125 15.828125 -13.1875 
L 8.015625 -13.1875 
Q 14.5 -2 17.703125 9.0625 
Q 20.90625 20.125 20.90625 31.390625 
Q 20.90625 42.671875 17.703125 53.65625 
Q 14.5 64.65625 8.015625 75.875 
z
" id="DejaVuSans-41"/>
      </defs>
      <use xlink:href="#DejaVuSans-78"/>
      <use x="74.804688" xlink:href="#DejaVuSans-40"/>
      <use x="113.818359" xlink:href="#DejaVuSans-48"/>
      <use x="177.441406" xlink:href="#DejaVuSans-44"/>
      <use x="209.228516" xlink:href="#DejaVuSans-49"/>
      <use x="272.851562" xlink:href="#DejaVuSans-41"/>
     </g>
    </g>
    <g id="line2d_41">
     <path d="M 749.478125 50.574687 
L 769.478125 50.574687 
" style="fill:none;stroke:#808080;stroke-dasharray:5.55,2.4;stroke-dashoffset:0;stroke-opacity:0.525;stroke-width:1.5;"/>
    </g>
    <g id="line2d_42"/>
    <g id="text_35">
     <!-- t(1) -->
     <g transform="translate(777.478125 54.074687)scale(0.1 -0.1)">
      <use xlink:href="#DejaVuSans-116"/>
      <use x="39.208984" xlink:href="#DejaVuSans-40"/>
      <use x="78.222656" xlink:href="#DejaVuSans-49"/>
      <use x="141.845703" xlink:href="#DejaVuSans-41"/>
     </g>
    </g>
    <g id="line2d_43">
     <path d="M 749.478125 65.252812 
L 769.478125 65.252812 
" style="fill:none;stroke:#808080;stroke-dasharray:5.55,2.4;stroke-dashoffset:0;stroke-opacity:0.552869;stroke-width:1.5;"/>
    </g>
    <g id="line2d_44"/>
    <g id="text_36">
     <!-- t(2) -->
     <g transform="translate(777.478125 68.752812)scale(0.1 -0.1)">
      <use xlink:href="#DejaVuSans-116"/>
      <use x="39.208984" xlink:href="#DejaVuSans-40"/>
      <use x="78.222656" xlink:href="#DejaVuSans-50"/>
      <use x="141.845703" xlink:href="#DejaVuSans-41"/>
     </g>
    </g>
    <g id="line2d_45">
     <path d="M 749.478125 79.930937 
L 769.478125 79.930937 
" style="fill:none;stroke:#808080;stroke-dasharray:5.55,2.4;stroke-dashoffset:0;stroke-opacity:0.611803;stroke-width:1.5;"/>
    </g>
    <g id="line2d_46"/>
    <g id="text_37">
     <!-- t(4) -->
     <g transform="translate(777.478125 83.430937)scale(0.1 -0.1)">
      <use xlink:href="#DejaVuSans-116"/>
      <use x="39.208984" xlink:href="#DejaVuSans-40"/>
      <use x="78.222656" xlink:href="#DejaVuSans-52"/>
      <use x="141.845703" xlink:href="#DejaVuSans-41"/>
     </g>
    </g>
    <g id="line2d_47">
     <path d="M 749.478125 94.609062 
L 769.478125 94.609062 
" style="fill:none;stroke:#808080;stroke-dasharray:5.55,2.4;stroke-dashoffset:0;stroke-opacity:0.736435;stroke-width:1.5;"/>
    </g>
    <g id="line2d_48"/>
    <g id="text_38">
     <!-- t(9) -->
     <g transform="translate(777.478125 98.109062)scale(0.1 -0.1)">
      <defs>
       <path d="M 10.984375 1.515625 
L 10.984375 10.5 
Q 14.703125 8.734375 18.5 7.8125 
Q 22.3125 6.890625 25.984375 6.890625 
Q 35.75 6.890625 40.890625 13.453125 
Q 46.046875 20.015625 46.78125 33.40625 
Q 43.953125 29.203125 39.59375 26.953125 
Q 35.25 24.703125 29.984375 24.703125 
Q 19.046875 24.703125 12.671875 31.3125 
Q 6.296875 37.9375 6.296875 49.421875 
Q 6.296875 60.640625 12.9375 67.421875 
Q 19.578125 74.21875 30.609375 74.21875 
Q 43.265625 74.21875 49.921875 64.515625 
Q 56.59375 54.828125 56.59375 36.375 
Q 56.59375 19.140625 48.40625 8.859375 
Q 40.234375 -1.421875 26.421875 -1.421875 
Q 22.703125 -1.421875 18.890625 -0.6875 
Q 15.09375 0.046875 10.984375 1.515625 
z
M 30.609375 32.421875 
Q 37.25 32.421875 41.125 36.953125 
Q 45.015625 41.5 45.015625 49.421875 
Q 45.015625 57.28125 41.125 61.84375 
Q 37.25 66.40625 30.609375 66.40625 
Q 23.96875 66.40625 20.09375 61.84375 
Q 16.21875 57.28125 16.21875 49.421875 
Q 16.21875 41.5 20.09375 36.953125 
Q 23.96875 32.421875 30.609375 32.421875 
z
" id="DejaVuSans-57"/>
      </defs>
      <use xlink:href="#DejaVuSans-116"/>
      <use x="39.208984" xlink:href="#DejaVuSans-40"/>
      <use x="78.222656" xlink:href="#DejaVuSans-57"/>
      <use x="141.845703" xlink:href="#DejaVuSans-41"/>
     </g>
    </g>
    <g id="line2d_49">
     <path d="M 749.478125 109.287187 
L 769.478125 109.287187 
" style="fill:none;stroke:#808080;stroke-dasharray:5.55,2.4;stroke-dashoffset:0;stroke-width:1.5;"/>
    </g>
    <g id="line2d_50"/>
    <g id="text_39">
     <!-- t(20) -->
     <g transform="translate(777.478125 112.787187)scale(0.1 -0.1)">
      <use xlink:href="#DejaVuSans-116"/>
      <use x="39.208984" xlink:href="#DejaVuSans-40"/>
      <use x="78.222656" xlink:href="#DejaVuSans-50"/>
      <use x="141.845703" xlink:href="#DejaVuSans-48"/>
      <use x="205.46875" xlink:href="#DejaVuSans-41"/>
     </g>
    </g>
   </g>
  </g>
 </g>
 <defs>
  <clipPath id="pf9e01bf88f">
   <rect height="271.8" width="355.090909" x="36.465625" y="22.798125"/>
  </clipPath>
  <clipPath id="p4d61e3485b">
   <rect height="271.8" width="355.090909" x="462.574716" y="22.798125"/>
  </clipPath>
 </defs>
</svg>
