<svg version="1.1" xmlns="http://www.w3.org/2000/svg" xmlns:xlink="http://www.w3.org/1999/xlink" width="920" height="573"><defs><clipPath id="mZbsskumyiOc"><path fill="none" stroke="none" d=" M 0 0 L 920 0 L 920 573 L 0 573 L 0 0 Z"/></clipPath></defs><g transform="scale(1,1)" clip-path="url(#mZbsskumyiOc)"><g><rect fill="rgb(255,255,255)" stroke="none" x="0" y="0" width="920" height="573" fill-opacity="1"/><path fill="none" stroke="rgb(192,192,192)" paint-order="fill stroke markers" d=" M 12.5 0.5 L 12.5 573.5 M 12.5 0.5 L 12.5 573.5 M 59.5 0.5 L 59.5 573.5 M 105.5 0.5 L 105.5 573.5 M 151.5 0.5 L 151.5 573.5 M 197.5 0.5 L 197.5 573.5 M 243.5 0.5 L 243.5 573.5 M 290.5 0.5 L 290.5 573.5 M 336.5 0.5 L 336.5 573.5 M 382.5 0.5 L 382.5 573.5 M 474.5 0.5 L 474.5 573.5 M 521.5 0.5 L 521.5 573.5 M 567.5 0.5 L 567.5 573.5 M 613.5 0.5 L 613.5 573.5 M 659.5 0.5 L 659.5 573.5 M 705.5 0.5 L 705.5 573.5 M 752.5 0.5 L 752.5 573.5 M 798.5 0.5 L 798.5 573.5 M 844.5 0.5 L 844.5 573.5 M 890.5 0.5 L 890.5 573.5" stroke-opacity="1" stroke-linecap="round" stroke-linejoin="round" stroke-miterlimit="10"/><path fill="none" stroke="rgb(192,192,192)" paint-order="fill stroke markers" d="" stroke-opacity="0.23529411764705882" stroke-linecap="round" stroke-linejoin="round" stroke-miterlimit="10"/><path fill="none" stroke="rgb(192,192,192)" paint-order="fill stroke markers" d=" M 0.5 16.5 L 920.5 16.5 M 0.5 16.5 L 920.5 16.5 M 0.5 63.5 L 920.5 63.5 M 0.5 109.5 L 920.5 109.5 M 0.5 155.5 L 920.5 155.5 M 0.5 201.5 L 920.5 201.5 M 0.5 247.5 L 920.5 247.5 M 0.5 340.5 L 920.5 340.5 M 0.5 386.5 L 920.5 386.5 M 0.5 432.5 L 920.5 432.5 M 0.5 478.5 L 920.5 478.5 M 0.5 525.5 L 920.5 525.5 M 0.5 571.5 L 920.5 571.5" stroke-opacity="1" stroke-linecap="round" stroke-linejoin="round" stroke-miterlimit="10"/><path fill="none" stroke="rgb(192,192,192)" paint-order="fill stroke markers" d="" stroke-opacity="0.23529411764705882" stroke-linecap="round" stroke-linejoin="round" stroke-miterlimit="10"/><path fill="none" stroke="rgb(0,0,0)" paint-order="fill stroke markers" d=" M 428.5 2.5 L 428.5 573.5" stroke-opacity="1" stroke-miterlimit="10"/><path fill="none" stroke="rgb(0,0,0)" paint-order="fill stroke markers" d=" M 428.5 1.5 L 424.5 5.5" stroke-opacity="1" stroke-miterlimit="10"/><path fill="none" stroke="rgb(0,0,0)" paint-order="fill stroke markers" d=" M 428.5 1.5 L 432.5 5.5" stroke-opacity="1" stroke-miterlimit="10"/><path fill="none" stroke="rgb(0,0,0)" paint-order="fill stroke markers" d=" M 0.5 294.5 L 918.5 294.5" stroke-opacity="1" stroke-miterlimit="10"/><path fill="none" stroke="rgb(0,0,0)" paint-order="fill stroke markers" d=" M 919.5 294.5 L 915.5 290.5" stroke-opacity="1" stroke-miterlimit="10"/><path fill="none" stroke="rgb(0,0,0)" paint-order="fill stroke markers" d=" M 919.5 294.5 L 915.5 298.5" stroke-opacity="1" stroke-miterlimit="10"/><text fill="rgb(0,0,0)" stroke="none" font-family="geogebra-sans-serif, sans-serif" font-size="12px" font-style="normal" font-weight="normal" text-decoration="normal" x="1" y="310" text-anchor="start" dominant-baseline="alphabetic" fill-opacity="1">–1.8</text><text fill="none" stroke="rgb(255,255,255)" font-family="geogebra-sans-serif, sans-serif" font-size="12px" font-style="normal" font-weight="normal" text-decoration="normal" x="1" y="310" text-anchor="start" dominant-baseline="alphabetic" stroke-opacity="1" stroke-linejoin="bevel" stroke-miterlimit="10" stroke-width="3">–1.8</text><text fill="rgb(0,0,0)" stroke="none" font-family="geogebra-sans-serif, sans-serif" font-size="12px" font-style="normal" font-weight="normal" text-decoration="normal" x="1" y="310" text-anchor="start" dominant-baseline="alphabetic" fill-opacity="1">–1.8</text><text fill="rgb(0,0,0)" stroke="none" font-family="geogebra-sans-serif, sans-serif" font-size="12px" font-style="normal" font-weight="normal" text-decoration="normal" x="48" y="310" text-anchor="start" dominant-baseline="alphabetic" fill-opacity="1">–1.6</text><text fill="none" stroke="rgb(255,255,255)" font-family="geogebra-sans-serif, sans-serif" font-size="12px" font-style="normal" font-weight="normal" text-decoration="normal" x="48" y="310" text-anchor="start" dominant-baseline="alphabetic" stroke-opacity="1" stroke-linejoin="bevel" stroke-miterlimit="10" stroke-width="3">–1.6</text><text fill="rgb(0,0,0)" stroke="none" font-family="geogebra-sans-serif, sans-serif" font-size="12px" font-style="normal" font-weight="normal" text-decoration="normal" x="48" y="310" text-anchor="start" dominant-baseline="alphabetic" fill-opacity="1">–1.6</text><text fill="rgb(0,0,0)" stroke="none" font-family="geogebra-sans-serif, sans-serif" font-size="12px" font-style="normal" font-weight="normal" text-decoration="normal" x="94" y="310" text-anchor="start" dominant-baseline="alphabetic" fill-opacity="1">–1.4</text><text fill="none" stroke="rgb(255,255,255)" font-family="geogebra-sans-serif, sans-serif" font-size="12px" font-style="normal" font-weight="normal" text-decoration="normal" x="94" y="310" text-anchor="start" dominant-baseline="alphabetic" stroke-opacity="1" stroke-linejoin="bevel" stroke-miterlimit="10" stroke-width="3">–1.4</text><text fill="rgb(0,0,0)" stroke="none" font-family="geogebra-sans-serif, sans-serif" font-size="12px" font-style="normal" font-weight="normal" text-decoration="normal" x="94" y="310" text-anchor="start" dominant-baseline="alphabetic" fill-opacity="1">–1.4</text><text fill="rgb(0,0,0)" stroke="none" font-family="geogebra-sans-serif, sans-serif" font-size="12px" font-style="normal" font-weight="normal" text-decoration="normal" x="140" y="310" text-anchor="start" dominant-baseline="alphabetic" fill-opacity="1">–1.2</text><text fill="none" stroke="rgb(255,255,255)" font-family="geogebra-sans-serif, sans-serif" font-size="12px" font-style="normal" font-weight="normal" text-decoration="normal" x="140" y="310" text-anchor="start" dominant-baseline="alphabetic" stroke-opacity="1" stroke-linejoin="bevel" stroke-miterlimit="10" stroke-width="3">–1.2</text><text fill="rgb(0,0,0)" stroke="none" font-family="geogebra-sans-serif, sans-serif" font-size="12px" font-style="normal" font-weight="normal" text-decoration="normal" x="140" y="310" text-anchor="start" dominant-baseline="alphabetic" fill-opacity="1">–1.2</text><text fill="rgb(0,0,0)" stroke="none" font-family="geogebra-sans-serif, sans-serif" font-size="12px" font-style="normal" font-weight="normal" text-decoration="normal" x="192" y="310" text-anchor="start" dominant-baseline="alphabetic" fill-opacity="1">–1</text><text fill="none" stroke="rgb(255,255,255)" font-family="geogebra-sans-serif, sans-serif" font-size="12px" font-style="normal" font-weight="normal" text-decoration="normal" x="192" y="310" text-anchor="start" dominant-baseline="alphabetic" stroke-opacity="1" stroke-linejoin="bevel" stroke-miterlimit="10" stroke-width="3">–1</text><text fill="rgb(0,0,0)" stroke="none" font-family="geogebra-sans-serif, sans-serif" font-size="12px" font-style="normal" font-weight="normal" text-decoration="normal" x="192" y="310" text-anchor="start" dominant-baseline="alphabetic" fill-opacity="1">–1</text><text fill="rgb(0,0,0)" stroke="none" font-family="geogebra-sans-serif, sans-serif" font-size="12px" font-style="normal" font-weight="normal" text-decoration="normal" x="232" y="310" text-anchor="start" dominant-baseline="alphabetic" fill-opacity="1">–0.8</text><text fill="none" stroke="rgb(255,255,255)" font-family="geogebra-sans-serif, sans-serif" font-size="12px" font-style="normal" font-weight="normal" text-decoration="normal" x="232" y="310" text-anchor="start" dominant-baseline="alphabetic" stroke-opacity="1" stroke-linejoin="bevel" stroke-miterlimit="10" stroke-width="3">–0.8</text><text fill="rgb(0,0,0)" stroke="none" font-family="geogebra-sans-serif, sans-serif" font-size="12px" font-style="normal" font-weight="normal" text-decoration="normal" x="232" y="310" text-anchor="start" dominant-baseline="alphabetic" fill-opacity="1">–0.8</text><text fill="rgb(0,0,0)" stroke="none" font-family="geogebra-sans-serif, sans-serif" font-size="12px" font-style="normal" font-weight="normal" text-decoration="normal" x="279" y="310" text-anchor="start" dominant-baseline="alphabetic" fill-opacity="1">–0.6</text><text fill="none" stroke="rgb(255,255,255)" font-family="geogebra-sans-serif, sans-serif" font-size="12px" font-style="normal" font-weight="normal" text-decoration="normal" x="279" y="310" text-anchor="start" dominant-baseline="alphabetic" stroke-opacity="1" stroke-linejoin="bevel" stroke-miterlimit="10" stroke-width="3">–0.6</text><text fill="rgb(0,0,0)" stroke="none" font-family="geogebra-sans-serif, sans-serif" font-size="12px" font-style="normal" font-weight="normal" text-decoration="normal" x="279" y="310" text-anchor="start" dominant-baseline="alphabetic" fill-opacity="1">–0.6</text><text fill="rgb(0,0,0)" stroke="none" font-family="geogebra-sans-serif, sans-serif" font-size="12px" font-style="normal" font-weight="normal" text-decoration="normal" x="325" y="310" text-anchor="start" dominant-baseline="alphabetic" fill-opacity="1">–0.4</text><text fill="none" stroke="rgb(255,255,255)" font-family="geogebra-sans-serif, sans-serif" font-size="12px" font-style="normal" font-weight="normal" text-decoration="normal" x="325" y="310" text-anchor="start" dominant-baseline="alphabetic" stroke-opacity="1" stroke-linejoin="bevel" stroke-miterlimit="10" stroke-width="3">–0.4</text><text fill="rgb(0,0,0)" stroke="none" font-family="geogebra-sans-serif, sans-serif" font-size="12px" font-style="normal" font-weight="normal" text-decoration="normal" x="325" y="310" text-anchor="start" dominant-baseline="alphabetic" fill-opacity="1">–0.4</text><text fill="rgb(0,0,0)" stroke="none" font-family="geogebra-sans-serif, sans-serif" font-size="12px" font-style="normal" font-weight="normal" text-decoration="normal" x="371" y="310" text-anchor="start" dominant-baseline="alphabetic" fill-opacity="1">–0.2</text><text fill="none" stroke="rgb(255,255,255)" font-family="geogebra-sans-serif, sans-serif" font-size="12px" font-style="normal" font-weight="normal" text-decoration="normal" x="371" y="310" text-anchor="start" dominant-baseline="alphabetic" stroke-opacity="1" stroke-linejoin="bevel" stroke-miterlimit="10" stroke-width="3">–0.2</text><text fill="rgb(0,0,0)" stroke="none" font-family="geogebra-sans-serif, sans-serif" font-size="12px" font-style="normal" font-weight="normal" text-decoration="normal" x="371" y="310" text-anchor="start" dominant-baseline="alphabetic" fill-opacity="1">–0.2</text><text fill="rgb(0,0,0)" stroke="none" font-family="geogebra-sans-serif, sans-serif" font-size="12px" font-style="normal" font-weight="normal" text-decoration="normal" x="466" y="310" text-anchor="start" dominant-baseline="alphabetic" fill-opacity="1">0.2</text><text fill="none" stroke="rgb(255,255,255)" font-family="geogebra-sans-serif, sans-serif" font-size="12px" font-style="normal" font-weight="normal" text-decoration="normal" x="466" y="310" text-anchor="start" dominant-baseline="alphabetic" stroke-opacity="1" stroke-linejoin="bevel" stroke-miterlimit="10" stroke-width="3">0.2</text><text fill="rgb(0,0,0)" stroke="none" font-family="geogebra-sans-serif, sans-serif" font-size="12px" font-style="normal" font-weight="normal" text-decoration="normal" x="466" y="310" text-anchor="start" dominant-baseline="alphabetic" fill-opacity="1">0.2</text><text fill="rgb(0,0,0)" stroke="none" font-family="geogebra-sans-serif, sans-serif" font-size="12px" font-style="normal" font-weight="normal" text-decoration="normal" x="513" y="310" text-anchor="start" dominant-baseline="alphabetic" fill-opacity="1">0.4</text><text fill="none" stroke="rgb(255,255,255)" font-family="geogebra-sans-serif, sans-serif" font-size="12px" font-style="normal" font-weight="normal" text-decoration="normal" x="513" y="310" text-anchor="start" dominant-baseline="alphabetic" stroke-opacity="1" stroke-linejoin="bevel" stroke-miterlimit="10" stroke-width="3">0.4</text><text fill="rgb(0,0,0)" stroke="none" font-family="geogebra-sans-serif, sans-serif" font-size="12px" font-style="normal" font-weight="normal" text-decoration="normal" x="513" y="310" text-anchor="start" dominant-baseline="alphabetic" fill-opacity="1">0.4</text><text fill="rgb(0,0,0)" stroke="none" font-family="geogebra-sans-serif, sans-serif" font-size="12px" font-style="normal" font-weight="normal" text-decoration="normal" x="559" y="310" text-anchor="start" dominant-baseline="alphabetic" fill-opacity="1">0.6</text><text fill="none" stroke="rgb(255,255,255)" font-family="geogebra-sans-serif, sans-serif" font-size="12px" font-style="normal" font-weight="normal" text-decoration="normal" x="559" y="310" text-anchor="start" dominant-baseline="alphabetic" stroke-opacity="1" stroke-linejoin="bevel" stroke-miterlimit="10" stroke-width="3">0.6</text><text fill="rgb(0,0,0)" stroke="none" font-family="geogebra-sans-serif, sans-serif" font-size="12px" font-style="normal" font-weight="normal" text-decoration="normal" x="559" y="310" text-anchor="start" dominant-baseline="alphabetic" fill-opacity="1">0.6</text><text fill="rgb(0,0,0)" stroke="none" font-family="geogebra-sans-serif, sans-serif" font-size="12px" font-style="normal" font-weight="normal" text-decoration="normal" x="605" y="310" text-anchor="start" dominant-baseline="alphabetic" fill-opacity="1">0.8</text><text fill="none" stroke="rgb(255,255,255)" font-family="geogebra-sans-serif, sans-serif" font-size="12px" font-style="normal" font-weight="normal" text-decoration="normal" x="605" y="310" text-anchor="start" dominant-baseline="alphabetic" stroke-opacity="1" stroke-linejoin="bevel" stroke-miterlimit="10" stroke-width="3">0.8</text><text fill="rgb(0,0,0)" stroke="none" font-family="geogebra-sans-serif, sans-serif" font-size="12px" font-style="normal" font-weight="normal" text-decoration="normal" x="605" y="310" text-anchor="start" dominant-baseline="alphabetic" fill-opacity="1">0.8</text><text fill="rgb(0,0,0)" stroke="none" font-family="geogebra-sans-serif, sans-serif" font-size="12px" font-style="normal" font-weight="normal" text-decoration="normal" x="657" y="310" text-anchor="start" dominant-baseline="alphabetic" fill-opacity="1">1</text><text fill="none" stroke="rgb(255,255,255)" font-family="geogebra-sans-serif, sans-serif" font-size="12px" font-style="normal" font-weight="normal" text-decoration="normal" x="657" y="310" text-anchor="start" dominant-baseline="alphabetic" stroke-opacity="1" stroke-linejoin="bevel" stroke-miterlimit="10" stroke-width="3">1</text><text fill="rgb(0,0,0)" stroke="none" font-family="geogebra-sans-serif, sans-serif" font-size="12px" font-style="normal" font-weight="normal" text-decoration="normal" x="657" y="310" text-anchor="start" dominant-baseline="alphabetic" fill-opacity="1">1</text><text fill="rgb(0,0,0)" stroke="none" font-family="geogebra-sans-serif, sans-serif" font-size="12px" font-style="normal" font-weight="normal" text-decoration="normal" x="697" y="310" text-anchor="start" dominant-baseline="alphabetic" fill-opacity="1">1.2</text><text fill="none" stroke="rgb(255,255,255)" font-family="geogebra-sans-serif, sans-serif" font-size="12px" font-style="normal" font-weight="normal" text-decoration="normal" x="697" y="310" text-anchor="start" dominant-baseline="alphabetic" stroke-opacity="1" stroke-linejoin="bevel" stroke-miterlimit="10" stroke-width="3">1.2</text><text fill="rgb(0,0,0)" stroke="none" font-family="geogebra-sans-serif, sans-serif" font-size="12px" font-style="normal" font-weight="normal" text-decoration="normal" x="697" y="310" text-anchor="start" dominant-baseline="alphabetic" fill-opacity="1">1.2</text><text fill="rgb(0,0,0)" stroke="none" font-family="geogebra-sans-serif, sans-serif" font-size="12px" font-style="normal" font-weight="normal" text-decoration="normal" x="744" y="310" text-anchor="start" dominant-baseline="alphabetic" fill-opacity="1">1.4</text><text fill="none" stroke="rgb(255,255,255)" font-family="geogebra-sans-serif, sans-serif" font-size="12px" font-style="normal" font-weight="normal" text-decoration="normal" x="744" y="310" text-anchor="start" dominant-baseline="alphabetic" stroke-opacity="1" stroke-linejoin="bevel" stroke-miterlimit="10" stroke-width="3">1.4</text><text fill="rgb(0,0,0)" stroke="none" font-family="geogebra-sans-serif, sans-serif" font-size="12px" font-style="normal" font-weight="normal" text-decoration="normal" x="744" y="310" text-anchor="start" dominant-baseline="alphabetic" fill-opacity="1">1.4</text><text fill="rgb(0,0,0)" stroke="none" font-family="geogebra-sans-serif, sans-serif" font-size="12px" font-style="normal" font-weight="normal" text-decoration="normal" x="790" y="310" text-anchor="start" dominant-baseline="alphabetic" fill-opacity="1">1.6</text><text fill="none" stroke="rgb(255,255,255)" font-family="geogebra-sans-serif, sans-serif" font-size="12px" font-style="normal" font-weight="normal" text-decoration="normal" x="790" y="310" text-anchor="start" dominant-baseline="alphabetic" stroke-opacity="1" stroke-linejoin="bevel" stroke-miterlimit="10" stroke-width="3">1.6</text><text fill="rgb(0,0,0)" stroke="none" font-family="geogebra-sans-serif, sans-serif" font-size="12px" font-style="normal" font-weight="normal" text-decoration="normal" x="790" y="310" text-anchor="start" dominant-baseline="alphabetic" fill-opacity="1">1.6</text><text fill="rgb(0,0,0)" stroke="none" font-family="geogebra-sans-serif, sans-serif" font-size="12px" font-style="normal" font-weight="normal" text-decoration="normal" x="836" y="310" text-anchor="start" dominant-baseline="alphabetic" fill-opacity="1">1.8</text><text fill="none" stroke="rgb(255,255,255)" font-family="geogebra-sans-serif, sans-serif" font-size="12px" font-style="normal" font-weight="normal" text-decoration="normal" x="836" y="310" text-anchor="start" dominant-baseline="alphabetic" stroke-opacity="1" stroke-linejoin="bevel" stroke-miterlimit="10" stroke-width="3">1.8</text><text fill="rgb(0,0,0)" stroke="none" font-family="geogebra-sans-serif, sans-serif" font-size="12px" font-style="normal" font-weight="normal" text-decoration="normal" x="836" y="310" text-anchor="start" dominant-baseline="alphabetic" fill-opacity="1">1.8</text><text fill="rgb(0,0,0)" stroke="none" font-family="geogebra-sans-serif, sans-serif" font-size="12px" font-style="normal" font-weight="normal" text-decoration="normal" x="888" y="310" text-anchor="start" dominant-baseline="alphabetic" fill-opacity="1">2</text><text fill="none" stroke="rgb(255,255,255)" font-family="geogebra-sans-serif, sans-serif" font-size="12px" font-style="normal" font-weight="normal" text-decoration="normal" x="888" y="310" text-anchor="start" dominant-baseline="alphabetic" stroke-opacity="1" stroke-linejoin="bevel" stroke-miterlimit="10" stroke-width="3">2</text><text fill="rgb(0,0,0)" stroke="none" font-family="geogebra-sans-serif, sans-serif" font-size="12px" font-style="normal" font-weight="normal" text-decoration="normal" x="888" y="310" text-anchor="start" dominant-baseline="alphabetic" fill-opacity="1">2</text><text fill="rgb(0,0,0)" stroke="none" font-family="geogebra-sans-serif, sans-serif" font-size="12px" font-style="normal" font-weight="normal" text-decoration="normal" x="408" y="530" text-anchor="start" dominant-baseline="alphabetic" fill-opacity="1">–1</text><text fill="none" stroke="rgb(255,255,255)" font-family="geogebra-sans-serif, sans-serif" font-size="12px" font-style="normal" font-weight="normal" text-decoration="normal" x="408" y="530" text-anchor="start" dominant-baseline="alphabetic" stroke-opacity="1" stroke-linejoin="bevel" stroke-miterlimit="10" stroke-width="3">–1</text><text fill="rgb(0,0,0)" stroke="none" font-family="geogebra-sans-serif, sans-serif" font-size="12px" font-style="normal" font-weight="normal" text-decoration="normal" x="408" y="530" text-anchor="start" dominant-baseline="alphabetic" fill-opacity="1">–1</text><text fill="rgb(0,0,0)" stroke="none" font-family="geogebra-sans-serif, sans-serif" font-size="12px" font-style="normal" font-weight="normal" text-decoration="normal" x="398" y="483" text-anchor="start" dominant-baseline="alphabetic" fill-opacity="1">–0.8</text><text fill="none" stroke="rgb(255,255,255)" font-family="geogebra-sans-serif, sans-serif" font-size="12px" font-style="normal" font-weight="normal" text-decoration="normal" x="398" y="483" text-anchor="start" dominant-baseline="alphabetic" stroke-opacity="1" stroke-linejoin="bevel" stroke-miterlimit="10" stroke-width="3">–0.8</text><text fill="rgb(0,0,0)" stroke="none" font-family="geogebra-sans-serif, sans-serif" font-size="12px" font-style="normal" font-weight="normal" text-decoration="normal" x="398" y="483" text-anchor="start" dominant-baseline="alphabetic" fill-opacity="1">–0.8</text><text fill="rgb(0,0,0)" stroke="none" font-family="geogebra-sans-serif, sans-serif" font-size="12px" font-style="normal" font-weight="normal" text-decoration="normal" x="398" y="437" text-anchor="start" dominant-baseline="alphabetic" fill-opacity="1">–0.6</text><text fill="none" stroke="rgb(255,255,255)" font-family="geogebra-sans-serif, sans-serif" font-size="12px" font-style="normal" font-weight="normal" text-decoration="normal" x="398" y="437" text-anchor="start" dominant-baseline="alphabetic" stroke-opacity="1" stroke-linejoin="bevel" stroke-miterlimit="10" stroke-width="3">–0.6</text><text fill="rgb(0,0,0)" stroke="none" font-family="geogebra-sans-serif, sans-serif" font-size="12px" font-style="normal" font-weight="normal" text-decoration="normal" x="398" y="437" text-anchor="start" dominant-baseline="alphabetic" fill-opacity="1">–0.6</text><text fill="rgb(0,0,0)" stroke="none" font-family="geogebra-sans-serif, sans-serif" font-size="12px" font-style="normal" font-weight="normal" text-decoration="normal" x="398" y="391" text-anchor="start" dominant-baseline="alphabetic" fill-opacity="1">–0.4</text><text fill="none" stroke="rgb(255,255,255)" font-family="geogebra-sans-serif, sans-serif" font-size="12px" font-style="normal" font-weight="normal" text-decoration="normal" x="398" y="391" text-anchor="start" dominant-baseline="alphabetic" stroke-opacity="1" stroke-linejoin="bevel" stroke-miterlimit="10" stroke-width="3">–0.4</text><text fill="rgb(0,0,0)" stroke="none" font-family="geogebra-sans-serif, sans-serif" font-size="12px" font-style="normal" font-weight="normal" text-decoration="normal" x="398" y="391" text-anchor="start" dominant-baseline="alphabetic" fill-opacity="1">–0.4</text><text fill="rgb(0,0,0)" stroke="none" font-family="geogebra-sans-serif, sans-serif" font-size="12px" font-style="normal" font-weight="normal" text-decoration="normal" x="398" y="345" text-anchor="start" dominant-baseline="alphabetic" fill-opacity="1">–0.2</text><text fill="none" stroke="rgb(255,255,255)" font-family="geogebra-sans-serif, sans-serif" font-size="12px" font-style="normal" font-weight="normal" text-decoration="normal" x="398" y="345" text-anchor="start" dominant-baseline="alphabetic" stroke-opacity="1" stroke-linejoin="bevel" stroke-miterlimit="10" stroke-width="3">–0.2</text><text fill="rgb(0,0,0)" stroke="none" font-family="geogebra-sans-serif, sans-serif" font-size="12px" font-style="normal" font-weight="normal" text-decoration="normal" x="398" y="345" text-anchor="start" dominant-baseline="alphabetic" fill-opacity="1">–0.2</text><text fill="rgb(0,0,0)" stroke="none" font-family="geogebra-sans-serif, sans-serif" font-size="12px" font-style="normal" font-weight="normal" text-decoration="normal" x="404" y="252" text-anchor="start" dominant-baseline="alphabetic" fill-opacity="1">0.2</text><text fill="none" stroke="rgb(255,255,255)" font-family="geogebra-sans-serif, sans-serif" font-size="12px" font-style="normal" font-weight="normal" text-decoration="normal" x="404" y="252" text-anchor="start" dominant-baseline="alphabetic" stroke-opacity="1" stroke-linejoin="bevel" stroke-miterlimit="10" stroke-width="3">0.2</text><text fill="rgb(0,0,0)" stroke="none" font-family="geogebra-sans-serif, sans-serif" font-size="12px" font-style="normal" font-weight="normal" text-decoration="normal" x="404" y="252" text-anchor="start" dominant-baseline="alphabetic" fill-opacity="1">0.2</text><text fill="rgb(0,0,0)" stroke="none" font-family="geogebra-sans-serif, sans-serif" font-size="12px" font-style="normal" font-weight="normal" text-decoration="normal" x="404" y="206" text-anchor="start" dominant-baseline="alphabetic" fill-opacity="1">0.4</text><text fill="none" stroke="rgb(255,255,255)" font-family="geogebra-sans-serif, sans-serif" font-size="12px" font-style="normal" font-weight="normal" text-decoration="normal" x="404" y="206" text-anchor="start" dominant-baseline="alphabetic" stroke-opacity="1" stroke-linejoin="bevel" stroke-miterlimit="10" stroke-width="3">0.4</text><text fill="rgb(0,0,0)" stroke="none" font-family="geogebra-sans-serif, sans-serif" font-size="12px" font-style="normal" font-weight="normal" text-decoration="normal" x="404" y="206" text-anchor="start" dominant-baseline="alphabetic" fill-opacity="1">0.4</text><text fill="rgb(0,0,0)" stroke="none" font-family="geogebra-sans-serif, sans-serif" font-size="12px" font-style="normal" font-weight="normal" text-decoration="normal" x="404" y="160" text-anchor="start" dominant-baseline="alphabetic" fill-opacity="1">0.6</text><text fill="none" stroke="rgb(255,255,255)" font-family="geogebra-sans-serif, sans-serif" font-size="12px" font-style="normal" font-weight="normal" text-decoration="normal" x="404" y="160" text-anchor="start" dominant-baseline="alphabetic" stroke-opacity="1" stroke-linejoin="bevel" stroke-miterlimit="10" stroke-width="3">0.6</text><text fill="rgb(0,0,0)" stroke="none" font-family="geogebra-sans-serif, sans-serif" font-size="12px" font-style="normal" font-weight="normal" text-decoration="normal" x="404" y="160" text-anchor="start" dominant-baseline="alphabetic" fill-opacity="1">0.6</text><text fill="rgb(0,0,0)" stroke="none" font-family="geogebra-sans-serif, sans-serif" font-size="12px" font-style="normal" font-weight="normal" text-decoration="normal" x="404" y="114" text-anchor="start" dominant-baseline="alphabetic" fill-opacity="1">0.8</text><text fill="none" stroke="rgb(255,255,255)" font-family="geogebra-sans-serif, sans-serif" font-size="12px" font-style="normal" font-weight="normal" text-decoration="normal" x="404" y="114" text-anchor="start" dominant-baseline="alphabetic" stroke-opacity="1" stroke-linejoin="bevel" stroke-miterlimit="10" stroke-width="3">0.8</text><text fill="rgb(0,0,0)" stroke="none" font-family="geogebra-sans-serif, sans-serif" font-size="12px" font-style="normal" font-weight="normal" text-decoration="normal" x="404" y="114" text-anchor="start" dominant-baseline="alphabetic" fill-opacity="1">0.8</text><text fill="rgb(0,0,0)" stroke="none" font-family="geogebra-sans-serif, sans-serif" font-size="12px" font-style="normal" font-weight="normal" text-decoration="normal" x="414" y="68" text-anchor="start" dominant-baseline="alphabetic" fill-opacity="1">1</text><text fill="none" stroke="rgb(255,255,255)" font-family="geogebra-sans-serif, sans-serif" font-size="12px" font-style="normal" font-weight="normal" text-decoration="normal" x="414" y="68" text-anchor="start" dominant-baseline="alphabetic" stroke-opacity="1" stroke-linejoin="bevel" stroke-miterlimit="10" stroke-width="3">1</text><text fill="rgb(0,0,0)" stroke="none" font-family="geogebra-sans-serif, sans-serif" font-size="12px" font-style="normal" font-weight="normal" text-decoration="normal" x="414" y="68" text-anchor="start" dominant-baseline="alphabetic" fill-opacity="1">1</text><text fill="rgb(0,0,0)" stroke="none" font-family="geogebra-sans-serif, sans-serif" font-size="12px" font-style="normal" font-weight="normal" text-decoration="normal" x="404" y="21" text-anchor="start" dominant-baseline="alphabetic" fill-opacity="1">1.2</text><text fill="none" stroke="rgb(255,255,255)" font-family="geogebra-sans-serif, sans-serif" font-size="12px" font-style="normal" font-weight="normal" text-decoration="normal" x="404" y="21" text-anchor="start" dominant-baseline="alphabetic" stroke-opacity="1" stroke-linejoin="bevel" stroke-miterlimit="10" stroke-width="3">1.2</text><text fill="rgb(0,0,0)" stroke="none" font-family="geogebra-sans-serif, sans-serif" font-size="12px" font-style="normal" font-weight="normal" text-decoration="normal" x="404" y="21" text-anchor="start" dominant-baseline="alphabetic" fill-opacity="1">1.2</text><text fill="rgb(0,0,0)" stroke="none" font-family="geogebra-sans-serif, sans-serif" font-size="12px" font-style="normal" font-weight="normal" text-decoration="normal" x="414" y="310" text-anchor="start" dominant-baseline="alphabetic" fill-opacity="1">0</text><text fill="none" stroke="rgb(255,255,255)" font-family="geogebra-sans-serif, sans-serif" font-size="12px" font-style="normal" font-weight="normal" text-decoration="normal" x="414" y="310" text-anchor="start" dominant-baseline="alphabetic" stroke-opacity="1" stroke-linejoin="bevel" stroke-miterlimit="10" stroke-width="3">0</text><text fill="rgb(0,0,0)" stroke="none" font-family="geogebra-sans-serif, sans-serif" font-size="12px" font-style="normal" font-weight="normal" text-decoration="normal" x="414" y="310" text-anchor="start" dominant-baseline="alphabetic" fill-opacity="1">0</text><path fill="none" stroke="rgb(46,125,50)" paint-order="fill stroke markers" d=" M 659.6900000000002 294.18999999999994 L 659.481344212312 294.18658570628617 L 658.8562562380124 294.1627103225719 L 657.8173696293084 294.0980359754168 L 656.3690582844933 293.97247054934877 L 654.5174135019329 293.7662888816313 L 652.2702120292774 293.46025194620734 L 649.6368752804124 293.0357233735478 L 646.6284199403318 292.47478266758776 L 643.2574002246117 291.76033449885347 L 639.5378421052038 290.8762134741748 L 635.4851698576258 289.807283807921 L 631.1161253260559 288.5395333473624 L 626.4486803421244 287.06016143539597 L 621.5019427701171 285.3576601273135 L 616.2960566856723 283.42188831435425 L 610.8520972266646 281.24413834527496 L 605.1919606836728 278.8171947778833 L 599.3382504230502 276.1353849351885 L 593.3141592580306 273.19462098530073 L 587.1433489023848 269.99243331021523 L 580.8498271567827 266.52799497589564 L 574.4578234901389 262.802137164373 L 567.9916636867572 258.8173554776359 L 561.4756442349848 254.5778070726404 L 554.9339071343368 250.08929863654487 L 548.3903157956213 245.3592652610053 L 541.8683327025216 240.39674032378525 L 535.390899493393 235.21231653476588 L 528.9803201087689 229.8180983514287 L 522.6581476333089 224.22764601576125 L 516.4450754407612 218.4559115100526 L 510.36083322704644 212.51916677295372 L 504.4240884899476 206.4349245592389 L 498.6523539842389 200.22185236669128 L 493.0619016485715 193.89967989123136 L 487.6676834652343 187.48910050660714 L 482.4832596762149 181.0116672974786 L 477.52073473899486 174.48968420437893 L 472.7907013634553 167.94609286566342 L 468.3021929273598 161.40435576501537 L 464.06264452236434 154.88833631324295 L 460.0778628356272 148.42217650986115 L 456.3520050241045 142.0301728432175 L 452.887566689785 135.73665109761535 L 449.68537901469944 129.5658407419695 L 446.7446150648117 123.54174957694988 L 444.0628052221168 117.68803931632723 L 441.6358616547252 112.02790277333557 L 439.4581116856459 106.58394331432791 L 437.52233987268664 101.37805722988298 L 435.8198385646042 96.43131965787575 L 434.34046665263776 91.76387467394417 L 433.07271619207916 87.39483014237436 L 432.0037865258254 83.34215789479629 L 431.1196655011467 79.62259977538832 L 430.4052173324124 76.25158005966827 L 429.84427662645237 73.24312471958777 L 429.41974805379283 70.60978797072272 L 429.1137111183689 68.36258649806726 L 428.9075294506514 66.51094171550679 L 428.7819640245834 65.0626303706918 L 428.71728967742825 64.0237437619877 L 428.693414293714 63.39865578768814 L 428.6627103225722 64.0237437619877 L 428.5980359754171 65.0626303706918 L 428.47247054934905 66.5109417155067 L 428.26628888163157 68.36258649806726 L 427.9602519462076 70.60978797072272 L 427.5357233735481 73.24312471958777 L 426.97478266758804 76.25158005966827 L 426.26033449885375 79.62259977538832 L 425.3762134741751 83.34215789479629 L 424.3072838079213 87.39483014237436 L 423.0395333473627 91.76387467394417 L 421.56016143539625 96.43131965787575 L 419.8576601273138 101.37805722988298 L 417.92188831435453 106.58394331432791 L 415.74413834527525 112.02790277333557 L 413.3171947778836 117.68803931632723 L 410.6353849351888 123.54174957694983 L 407.69462098530096 129.56584074196954 L 404.4924333102155 135.7366510976153 L 401.0279949758959 142.03017284321746 L 397.3021371643733 148.42217650986115 L 393.31735547763617 154.88833631324283 L 389.0778070726408 161.4043557650153 L 384.58929863654515 167.94609286566342 L 379.8592652610056 174.4896842043789 L 374.8967403237856 181.01166729747854 L 369.71231653476616 187.48910050660706 L 364.31809835142906 193.8996798912313 L 358.72764601576154 200.22185236669134 L 352.95591151005283 206.4349245592389 L 347.019166772954 212.51916677295367 L 340.9349245592392 218.45591151005252 L 334.7218523666917 224.2276460157612 L 328.3996798912316 229.81809835142872 L 321.98910050660743 235.21231653476588 L 315.5116672974789 240.3967403237852 L 308.9896842043793 245.35926526100528 L 302.4460928656638 250.08929863654487 L 295.9043557650156 254.5778070726404 L 289.3883363132432 258.8173554776359 L 282.9221765098615 262.802137164373 L 276.5301728432178 266.52799497589564 L 270.23665109761566 269.9924333102152 L 264.06584074196985 273.1946209853007 L 258.0417495769502 276.1353849351885 L 252.18803931632758 278.8171947778833 L 246.5279027733359 281.2441383452749 L 241.08394331432822 283.42188831435425 L 235.87805722988338 285.3576601273135 L 230.9313196578761 287.06016143539597 L 226.26387467394457 288.5395333473624 L 221.89483014237467 289.807283807921 L 217.84215789479663 290.8762134741748 L 214.12259977538872 291.76033449885347 L 210.7515800596686 292.47478266758776 L 207.7431247195881 293.0357233735478 L 205.10978797072306 293.4602519462073 L 202.8625864980676 293.7662888816313 L 201.01094171550713 293.97247054934877 L 199.56263037069215 294.0980359754168 L 198.52374376198804 294.1627103225719 L 197.89865578768848 294.18658570628617 L 198.52374376198804 294.21728967742797 L 199.56263037069215 294.2819640245831 L 201.01094171550704 294.4075294506511 L 202.8625864980676 294.6137111183686 L 205.10978797072306 294.91974805379255 L 207.74312471958802 295.3442766264521 L 210.7515800596686 295.9052173324121 L 214.12259977538866 296.6196655011464 L 217.84215789479663 297.5037865258251 L 221.89483014237464 298.5727161920789 L 226.26387467394449 299.8404666526375 L 230.931319657876 301.3198385646039 L 235.87805722988332 303.02233987268636 L 241.08394331432817 304.95811168564563 L 246.52790277333582 307.1358616547249 L 252.18803931632758 309.56280522211654 L 258.0417495769501 312.24461506481134 L 264.06584074196985 315.1853790146992 L 270.2366510976156 318.38756668978465 L 276.53017284321777 321.8520050241042 L 282.92217650986146 325.5778628356269 L 289.38833631324314 329.562644522364 L 295.90435576501557 333.80219292735944 L 302.44609286566373 338.290701363455 L 308.9896842043792 343.0207347389945 L 315.5116672974788 347.98325967621463 L 321.9891005066074 353.16768346523395 L 328.3996798912316 358.5619016485711 L 334.72185236669156 364.15235398423863 L 340.93492455923916 369.9240884899473 L 347.01916677295395 375.86083322704616 L 352.95591151005283 381.94507544076095 L 358.7276460157615 388.15814763330854 L 364.3180983514289 394.4803201087684 L 369.71231653476605 400.8908994933926 L 374.8967403237854 407.3683327025212 L 379.85926526100565 413.89031579562106 L 384.5892986365452 420.4339071343365 L 389.0778070726407 426.97564423498454 L 393.3173554776361 433.49166368675697 L 397.3021371643733 439.95782349013865 L 401.0279949758959 446.34982715678234 L 404.49243331021546 452.64334890238456 L 407.69462098530096 458.8141592580304 L 410.6353849351887 464.8382504230499 L 413.3171947778835 470.6919606836725 L 415.7441383452752 476.3520972266642 L 417.92188831435453 481.79605668567206 L 419.8576601273138 487.0019427701169 L 421.56016143539625 491.94868034212413 L 423.0395333473627 496.6161253260557 L 424.3072838079213 500.9851698576255 L 425.3762134741751 505.0378421052036 L 426.2603344988537 508.7574002246115 L 426.97478266758804 512.1284199403316 L 427.5357233735481 515.136875280412 L 427.96025194620756 517.7702120292771 L 428.26628888163157 520.0174135019327 L 428.47247054934905 521.8690582844931 L 428.5980359754171 523.3173696293081 L 428.6627103225722 524.3562562380122 L 428.68658570628645 524.9813442123118 L 428.71728967742825 524.3562562380122 L 428.7819640245834 523.3173696293081 L 428.9075294506514 521.8690582844931 L 429.1137111183689 520.0174135019327 L 429.4197480537929 517.7702120292771 L 429.84427662645237 515.1368752804121 L 430.4052173324124 512.1284199403316 L 431.1196655011467 508.75740022461156 L 432.0037865258254 505.0378421052036 L 433.07271619207916 500.9851698576256 L 434.34046665263776 496.6161253260557 L 435.8198385646042 491.94868034212425 L 437.5223398726866 487.00194277011695 L 439.45811168564586 481.7960566856721 L 441.63586165472526 476.3520972266642 L 444.0628052221169 470.6919606836726 L 446.7446150648117 464.83825042305 L 449.68537901469944 458.8141592580304 L 452.88756668978493 452.64334890238456 L 456.35200502410447 446.34982715678245 L 460.0778628356272 439.9578234901388 L 464.0626445223643 433.4916636867571 L 468.30219292735967 426.97564423498466 L 472.7907013634552 420.43390713433655 L 477.5207347389947 413.8903157956211 L 482.48325967621497 407.3683327025213 L 487.66768346523435 400.89089949339274 L 493.06190164857145 394.4803201087685 L 498.6523539842389 388.1581476333086 L 504.42408848994756 381.945075440761 L 510.3608332270464 375.8608332270462 L 516.4450754407611 369.9240884899474 L 522.6581476333088 364.15235398423874 L 528.9803201087686 358.5619016485713 L 535.3908994933929 353.1676834652342 L 541.8683327025215 347.9832596762148 L 548.3903157956213 343.0207347389945 L 554.9339071343368 338.29070136345496 L 561.4756442349848 333.80219292735944 L 567.9916636867572 329.56264452236405 L 574.4578234901389 325.57786283562695 L 580.8498271567826 321.8520050241043 L 587.1433489023848 318.3875666897847 L 593.3141592580305 315.18537901469927 L 599.3382504230501 312.24461506481146 L 605.1919606836727 309.56280522211665 L 610.8520972266645 307.135861654725 L 616.2960566856723 304.95811168564563 L 621.5019427701171 303.02233987268636 L 626.4486803421244 301.3198385646039 L 631.1161253260559 299.8404666526375 L 635.4851698576258 298.5727161920789 L 639.5378421052038 297.5037865258251 L 643.2574002246117 296.61966550114647 L 646.6284199403318 295.9052173324121 L 649.6368752804123 295.3442766264521 L 652.2702120292773 294.9197480537926 L 654.5174135019329 294.6137111183686 L 656.3690582844933 294.4075294506511 L 657.8173696293084 294.2819640245831 L 658.8562562380124 294.21728967742797 L 659.481344212312 294.1934142937137" stroke-opacity="0.2" stroke-linecap="round" stroke-linejoin="round" stroke-miterlimit="10" stroke-width="7"/><path fill="none" stroke="rgb(46,125,50)" paint-order="fill stroke markers" d=" M 659.6900000000002 294.18999999999994 L 659.481344212312 294.18658570628617 L 658.8562562380124 294.1627103225719 L 657.8173696293084 294.0980359754168 L 656.3690582844933 293.97247054934877 L 654.5174135019329 293.7662888816313 L 652.2702120292774 293.46025194620734 L 649.6368752804124 293.0357233735478 L 646.6284199403318 292.47478266758776 L 643.2574002246117 291.76033449885347 L 639.5378421052038 290.8762134741748 L 635.4851698576258 289.807283807921 L 631.1161253260559 288.5395333473624 L 626.4486803421244 287.06016143539597 L 621.5019427701171 285.3576601273135 L 616.2960566856723 283.42188831435425 L 610.8520972266646 281.24413834527496 L 605.1919606836728 278.8171947778833 L 599.3382504230502 276.1353849351885 L 593.3141592580306 273.19462098530073 L 587.1433489023848 269.99243331021523 L 580.8498271567827 266.52799497589564 L 574.4578234901389 262.802137164373 L 567.9916636867572 258.8173554776359 L 561.4756442349848 254.5778070726404 L 554.9339071343368 250.08929863654487 L 548.3903157956213 245.3592652610053 L 541.8683327025216 240.39674032378525 L 535.390899493393 235.21231653476588 L 528.9803201087689 229.8180983514287 L 522.6581476333089 224.22764601576125 L 516.4450754407612 218.4559115100526 L 510.36083322704644 212.51916677295372 L 504.4240884899476 206.4349245592389 L 498.6523539842389 200.22185236669128 L 493.0619016485715 193.89967989123136 L 487.6676834652343 187.48910050660714 L 482.4832596762149 181.0116672974786 L 477.52073473899486 174.48968420437893 L 472.7907013634553 167.94609286566342 L 468.3021929273598 161.40435576501537 L 464.06264452236434 154.88833631324295 L 460.0778628356272 148.42217650986115 L 456.3520050241045 142.0301728432175 L 452.887566689785 135.73665109761535 L 449.68537901469944 129.5658407419695 L 446.7446150648117 123.54174957694988 L 444.0628052221168 117.68803931632723 L 441.6358616547252 112.02790277333557 L 439.4581116856459 106.58394331432791 L 437.52233987268664 101.37805722988298 L 435.8198385646042 96.43131965787575 L 434.34046665263776 91.76387467394417 L 433.07271619207916 87.39483014237436 L 432.0037865258254 83.34215789479629 L 431.1196655011467 79.62259977538832 L 430.4052173324124 76.25158005966827 L 429.84427662645237 73.24312471958777 L 429.41974805379283 70.60978797072272 L 429.1137111183689 68.36258649806726 L 428.9075294506514 66.51094171550679 L 428.7819640245834 65.0626303706918 L 428.71728967742825 64.0237437619877 L 428.693414293714 63.39865578768814 L 428.6627103225722 64.0237437619877 L 428.5980359754171 65.0626303706918 L 428.47247054934905 66.5109417155067 L 428.26628888163157 68.36258649806726 L 427.9602519462076 70.60978797072272 L 427.5357233735481 73.24312471958777 L 426.97478266758804 76.25158005966827 L 426.26033449885375 79.62259977538832 L 425.3762134741751 83.34215789479629 L 424.3072838079213 87.39483014237436 L 423.0395333473627 91.76387467394417 L 421.56016143539625 96.43131965787575 L 419.8576601273138 101.37805722988298 L 417.92188831435453 106.58394331432791 L 415.74413834527525 112.02790277333557 L 413.3171947778836 117.68803931632723 L 410.6353849351888 123.54174957694983 L 407.69462098530096 129.56584074196954 L 404.4924333102155 135.7366510976153 L 401.0279949758959 142.03017284321746 L 397.3021371643733 148.42217650986115 L 393.31735547763617 154.88833631324283 L 389.0778070726408 161.4043557650153 L 384.58929863654515 167.94609286566342 L 379.8592652610056 174.4896842043789 L 374.8967403237856 181.01166729747854 L 369.71231653476616 187.48910050660706 L 364.31809835142906 193.8996798912313 L 358.72764601576154 200.22185236669134 L 352.95591151005283 206.4349245592389 L 347.019166772954 212.51916677295367 L 340.9349245592392 218.45591151005252 L 334.7218523666917 224.2276460157612 L 328.3996798912316 229.81809835142872 L 321.98910050660743 235.21231653476588 L 315.5116672974789 240.3967403237852 L 308.9896842043793 245.35926526100528 L 302.4460928656638 250.08929863654487 L 295.9043557650156 254.5778070726404 L 289.3883363132432 258.8173554776359 L 282.9221765098615 262.802137164373 L 276.5301728432178 266.52799497589564 L 270.23665109761566 269.9924333102152 L 264.06584074196985 273.1946209853007 L 258.0417495769502 276.1353849351885 L 252.18803931632758 278.8171947778833 L 246.5279027733359 281.2441383452749 L 241.08394331432822 283.42188831435425 L 235.87805722988338 285.3576601273135 L 230.9313196578761 287.06016143539597 L 226.26387467394457 288.5395333473624 L 221.89483014237467 289.807283807921 L 217.84215789479663 290.8762134741748 L 214.12259977538872 291.76033449885347 L 210.7515800596686 292.47478266758776 L 207.7431247195881 293.0357233735478 L 205.10978797072306 293.4602519462073 L 202.8625864980676 293.7662888816313 L 201.01094171550713 293.97247054934877 L 199.56263037069215 294.0980359754168 L 198.52374376198804 294.1627103225719 L 197.89865578768848 294.18658570628617 L 198.52374376198804 294.21728967742797 L 199.56263037069215 294.2819640245831 L 201.01094171550704 294.4075294506511 L 202.8625864980676 294.6137111183686 L 205.10978797072306 294.91974805379255 L 207.74312471958802 295.3442766264521 L 210.7515800596686 295.9052173324121 L 214.12259977538866 296.6196655011464 L 217.84215789479663 297.5037865258251 L 221.89483014237464 298.5727161920789 L 226.26387467394449 299.8404666526375 L 230.931319657876 301.3198385646039 L 235.87805722988332 303.02233987268636 L 241.08394331432817 304.95811168564563 L 246.52790277333582 307.1358616547249 L 252.18803931632758 309.56280522211654 L 258.0417495769501 312.24461506481134 L 264.06584074196985 315.1853790146992 L 270.2366510976156 318.38756668978465 L 276.53017284321777 321.8520050241042 L 282.92217650986146 325.5778628356269 L 289.38833631324314 329.562644522364 L 295.90435576501557 333.80219292735944 L 302.44609286566373 338.290701363455 L 308.9896842043792 343.0207347389945 L 315.5116672974788 347.98325967621463 L 321.9891005066074 353.16768346523395 L 328.3996798912316 358.5619016485711 L 334.72185236669156 364.15235398423863 L 340.93492455923916 369.9240884899473 L 347.01916677295395 375.86083322704616 L 352.95591151005283 381.94507544076095 L 358.7276460157615 388.15814763330854 L 364.3180983514289 394.4803201087684 L 369.71231653476605 400.8908994933926 L 374.8967403237854 407.3683327025212 L 379.85926526100565 413.89031579562106 L 384.5892986365452 420.4339071343365 L 389.0778070726407 426.97564423498454 L 393.3173554776361 433.49166368675697 L 397.3021371643733 439.95782349013865 L 401.0279949758959 446.34982715678234 L 404.49243331021546 452.64334890238456 L 407.69462098530096 458.8141592580304 L 410.6353849351887 464.8382504230499 L 413.3171947778835 470.6919606836725 L 415.7441383452752 476.3520972266642 L 417.92188831435453 481.79605668567206 L 419.8576601273138 487.0019427701169 L 421.56016143539625 491.94868034212413 L 423.0395333473627 496.6161253260557 L 424.3072838079213 500.9851698576255 L 425.3762134741751 505.0378421052036 L 426.2603344988537 508.7574002246115 L 426.97478266758804 512.1284199403316 L 427.5357233735481 515.136875280412 L 427.96025194620756 517.7702120292771 L 428.26628888163157 520.0174135019327 L 428.47247054934905 521.8690582844931 L 428.5980359754171 523.3173696293081 L 428.6627103225722 524.3562562380122 L 428.68658570628645 524.9813442123118 L 428.71728967742825 524.3562562380122 L 428.7819640245834 523.3173696293081 L 428.9075294506514 521.8690582844931 L 429.1137111183689 520.0174135019327 L 429.4197480537929 517.7702120292771 L 429.84427662645237 515.1368752804121 L 430.4052173324124 512.1284199403316 L 431.1196655011467 508.75740022461156 L 432.0037865258254 505.0378421052036 L 433.07271619207916 500.9851698576256 L 434.34046665263776 496.6161253260557 L 435.8198385646042 491.94868034212425 L 437.5223398726866 487.00194277011695 L 439.45811168564586 481.7960566856721 L 441.63586165472526 476.3520972266642 L 444.0628052221169 470.6919606836726 L 446.7446150648117 464.83825042305 L 449.68537901469944 458.8141592580304 L 452.88756668978493 452.64334890238456 L 456.35200502410447 446.34982715678245 L 460.0778628356272 439.9578234901388 L 464.0626445223643 433.4916636867571 L 468.30219292735967 426.97564423498466 L 472.7907013634552 420.43390713433655 L 477.5207347389947 413.8903157956211 L 482.48325967621497 407.3683327025213 L 487.66768346523435 400.89089949339274 L 493.06190164857145 394.4803201087685 L 498.6523539842389 388.1581476333086 L 504.42408848994756 381.945075440761 L 510.3608332270464 375.8608332270462 L 516.4450754407611 369.9240884899474 L 522.6581476333088 364.15235398423874 L 528.9803201087686 358.5619016485713 L 535.3908994933929 353.1676834652342 L 541.8683327025215 347.9832596762148 L 548.3903157956213 343.0207347389945 L 554.9339071343368 338.29070136345496 L 561.4756442349848 333.80219292735944 L 567.9916636867572 329.56264452236405 L 574.4578234901389 325.57786283562695 L 580.8498271567826 321.8520050241043 L 587.1433489023848 318.3875666897847 L 593.3141592580305 315.18537901469927 L 599.3382504230501 312.24461506481146 L 605.1919606836727 309.56280522211665 L 610.8520972266645 307.135861654725 L 616.2960566856723 304.95811168564563 L 621.5019427701171 303.02233987268636 L 626.4486803421244 301.3198385646039 L 631.1161253260559 299.8404666526375 L 635.4851698576258 298.5727161920789 L 639.5378421052038 297.5037865258251 L 643.2574002246117 296.61966550114647 L 646.6284199403318 295.9052173324121 L 649.6368752804123 295.3442766264521 L 652.2702120292773 294.9197480537926 L 654.5174135019329 294.6137111183686 L 656.3690582844933 294.4075294506511 L 657.8173696293084 294.2819640245831 L 658.8562562380124 294.21728967742797 L 659.481344212312 294.1934142937137" stroke-opacity="0.8" stroke-linecap="round" stroke-linejoin="round" stroke-miterlimit="10" stroke-width="2.5"/><text fill="rgb(46,125,50)" stroke="none" font-family="geogebra-sans-serif, sans-serif" font-size="16px" font-style="normal" font-weight="normal" text-decoration="normal" x="602" y="333" text-anchor="start" dominant-baseline="alphabetic" fill-opacity="1">Astroide</text><text fill="none" stroke="rgb(255,255,255)" font-family="geogebra-sans-serif, sans-serif" font-size="16px" font-style="normal" font-weight="normal" text-decoration="normal" x="602" y="333" text-anchor="start" dominant-baseline="alphabetic" stroke-opacity="1" stroke-linejoin="bevel" stroke-miterlimit="10" stroke-width="3">Astroide</text><text fill="rgb(46,125,50)" stroke="none" font-family="geogebra-sans-serif, sans-serif" font-size="16px" font-style="normal" font-weight="normal" text-decoration="normal" x="602" y="333" text-anchor="start" dominant-baseline="alphabetic" fill-opacity="1">Astroide</text></g></g></svg>