<svg version="1.1" xmlns="http://www.w3.org/2000/svg" xmlns:xlink="http://www.w3.org/1999/xlink" width="920" height="573"><defs><clipPath id="fTOCRBdHuZnF"><path fill="none" stroke="none" d=" M 0 0 L 920 0 L 920 573 L 0 573 L 0 0 Z"/></clipPath></defs><g transform="scale(1,1)" clip-path="url(#fTOCRBdHuZnF)"><g><rect fill="rgb(255,255,255)" stroke="none" x="0" y="0" width="920" height="573" fill-opacity="1"/><path fill="none" stroke="rgb(192,192,192)" paint-order="fill stroke markers" d=" M 54.5 0.5 L 54.5 573.5 M 54.5 0.5 L 54.5 573.5 M 125.5 0.5 L 125.5 573.5 M 196.5 0.5 L 196.5 573.5 M 268.5 0.5 L 268.5 573.5 M 410.5 0.5 L 410.5 573.5 M 481.5 0.5 L 481.5 573.5 M 553.5 0.5 L 553.5 573.5 M 624.5 0.5 L 624.5 573.5 M 695.5 0.5 L 695.5 573.5 M 766.5 0.5 L 766.5 573.5 M 838.5 0.5 L 838.5 573.5 M 909.5 0.5 L 909.5 573.5" stroke-opacity="1" stroke-linecap="round" stroke-linejoin="round" stroke-miterlimit="10"/><path fill="none" stroke="rgb(192,192,192)" paint-order="fill stroke markers" d="" stroke-opacity="0.23529411764705882" stroke-linecap="round" stroke-linejoin="round" stroke-miterlimit="10"/><path fill="none" stroke="rgb(192,192,192)" paint-order="fill stroke markers" d=" M 0.5 3.5 L 920.5 3.5 M 0.5 3.5 L 920.5 3.5 M 0.5 74.5 L 920.5 74.5 M 0.5 146.5 L 920.5 146.5 M 0.5 217.5 L 920.5 217.5 M 0.5 359.5 L 920.5 359.5 M 0.5 431.5 L 920.5 431.5 M 0.5 502.5 L 920.5 502.5" stroke-opacity="1" stroke-linecap="round" stroke-linejoin="round" stroke-miterlimit="10"/><path fill="none" stroke="rgb(192,192,192)" paint-order="fill stroke markers" d="" stroke-opacity="0.23529411764705882" stroke-linecap="round" stroke-linejoin="round" stroke-miterlimit="10"/><path fill="none" stroke="rgb(0,0,0)" paint-order="fill stroke markers" d=" M 339.5 2.5 L 339.5 573.5" stroke-opacity="1" stroke-miterlimit="10"/><path fill="none" stroke="rgb(0,0,0)" paint-order="fill stroke markers" d=" M 339.5 1.5 L 335.5 5.5" stroke-opacity="1" stroke-miterlimit="10"/><path fill="none" stroke="rgb(0,0,0)" paint-order="fill stroke markers" d=" M 339.5 1.5 L 343.5 5.5" stroke-opacity="1" stroke-miterlimit="10"/><path fill="none" stroke="rgb(0,0,0)" paint-order="fill stroke markers" d=" M 0.5 288.5 L 918.5 288.5" stroke-opacity="1" stroke-miterlimit="10"/><path fill="none" stroke="rgb(0,0,0)" paint-order="fill stroke markers" d=" M 919.5 288.5 L 915.5 284.5" stroke-opacity="1" stroke-miterlimit="10"/><path fill="none" stroke="rgb(0,0,0)" paint-order="fill stroke markers" d=" M 919.5 288.5 L 915.5 292.5" stroke-opacity="1" stroke-miterlimit="10"/><text fill="rgb(0,0,0)" stroke="none" font-family="geogebra-sans-serif, sans-serif" font-size="12px" font-style="normal" font-weight="normal" text-decoration="normal" x="49" y="304" text-anchor="start" dominant-baseline="alphabetic" fill-opacity="1">–2</text><text fill="none" stroke="rgb(255,255,255)" font-family="geogebra-sans-serif, sans-serif" font-size="12px" font-style="normal" font-weight="normal" text-decoration="normal" x="49" y="304" text-anchor="start" dominant-baseline="alphabetic" stroke-opacity="1" stroke-linejoin="bevel" stroke-miterlimit="10" stroke-width="3">–2</text><text fill="rgb(0,0,0)" stroke="none" font-family="geogebra-sans-serif, sans-serif" font-size="12px" font-style="normal" font-weight="normal" text-decoration="normal" x="49" y="304" text-anchor="start" dominant-baseline="alphabetic" fill-opacity="1">–2</text><text fill="rgb(0,0,0)" stroke="none" font-family="geogebra-sans-serif, sans-serif" font-size="12px" font-style="normal" font-weight="normal" text-decoration="normal" x="114" y="304" text-anchor="start" dominant-baseline="alphabetic" fill-opacity="1">–1.5</text><text fill="none" stroke="rgb(255,255,255)" font-family="geogebra-sans-serif, sans-serif" font-size="12px" font-style="normal" font-weight="normal" text-decoration="normal" x="114" y="304" text-anchor="start" dominant-baseline="alphabetic" stroke-opacity="1" stroke-linejoin="bevel" stroke-miterlimit="10" stroke-width="3">–1.5</text><text fill="rgb(0,0,0)" stroke="none" font-family="geogebra-sans-serif, sans-serif" font-size="12px" font-style="normal" font-weight="normal" text-decoration="normal" x="114" y="304" text-anchor="start" dominant-baseline="alphabetic" fill-opacity="1">–1.5</text><text fill="rgb(0,0,0)" stroke="none" font-family="geogebra-sans-serif, sans-serif" font-size="12px" font-style="normal" font-weight="normal" text-decoration="normal" x="191" y="304" text-anchor="start" dominant-baseline="alphabetic" fill-opacity="1">–1</text><text fill="none" stroke="rgb(255,255,255)" font-family="geogebra-sans-serif, sans-serif" font-size="12px" font-style="normal" font-weight="normal" text-decoration="normal" x="191" y="304" text-anchor="start" dominant-baseline="alphabetic" stroke-opacity="1" stroke-linejoin="bevel" stroke-miterlimit="10" stroke-width="3">–1</text><text fill="rgb(0,0,0)" stroke="none" font-family="geogebra-sans-serif, sans-serif" font-size="12px" font-style="normal" font-weight="normal" text-decoration="normal" x="191" y="304" text-anchor="start" dominant-baseline="alphabetic" fill-opacity="1">–1</text><text fill="rgb(0,0,0)" stroke="none" font-family="geogebra-sans-serif, sans-serif" font-size="12px" font-style="normal" font-weight="normal" text-decoration="normal" x="257" y="304" text-anchor="start" dominant-baseline="alphabetic" fill-opacity="1">–0.5</text><text fill="none" stroke="rgb(255,255,255)" font-family="geogebra-sans-serif, sans-serif" font-size="12px" font-style="normal" font-weight="normal" text-decoration="normal" x="257" y="304" text-anchor="start" dominant-baseline="alphabetic" stroke-opacity="1" stroke-linejoin="bevel" stroke-miterlimit="10" stroke-width="3">–0.5</text><text fill="rgb(0,0,0)" stroke="none" font-family="geogebra-sans-serif, sans-serif" font-size="12px" font-style="normal" font-weight="normal" text-decoration="normal" x="257" y="304" text-anchor="start" dominant-baseline="alphabetic" fill-opacity="1">–0.5</text><text fill="rgb(0,0,0)" stroke="none" font-family="geogebra-sans-serif, sans-serif" font-size="12px" font-style="normal" font-weight="normal" text-decoration="normal" x="402" y="304" text-anchor="start" dominant-baseline="alphabetic" fill-opacity="1">0.5</text><text fill="none" stroke="rgb(255,255,255)" font-family="geogebra-sans-serif, sans-serif" font-size="12px" font-style="normal" font-weight="normal" text-decoration="normal" x="402" y="304" text-anchor="start" dominant-baseline="alphabetic" stroke-opacity="1" stroke-linejoin="bevel" stroke-miterlimit="10" stroke-width="3">0.5</text><text fill="rgb(0,0,0)" stroke="none" font-family="geogebra-sans-serif, sans-serif" font-size="12px" font-style="normal" font-weight="normal" text-decoration="normal" x="402" y="304" text-anchor="start" dominant-baseline="alphabetic" fill-opacity="1">0.5</text><text fill="rgb(0,0,0)" stroke="none" font-family="geogebra-sans-serif, sans-serif" font-size="12px" font-style="normal" font-weight="normal" text-decoration="normal" x="479" y="304" text-anchor="start" dominant-baseline="alphabetic" fill-opacity="1">1</text><text fill="none" stroke="rgb(255,255,255)" font-family="geogebra-sans-serif, sans-serif" font-size="12px" font-style="normal" font-weight="normal" text-decoration="normal" x="479" y="304" text-anchor="start" dominant-baseline="alphabetic" stroke-opacity="1" stroke-linejoin="bevel" stroke-miterlimit="10" stroke-width="3">1</text><text fill="rgb(0,0,0)" stroke="none" font-family="geogebra-sans-serif, sans-serif" font-size="12px" font-style="normal" font-weight="normal" text-decoration="normal" x="479" y="304" text-anchor="start" dominant-baseline="alphabetic" fill-opacity="1">1</text><text fill="rgb(0,0,0)" stroke="none" font-family="geogebra-sans-serif, sans-serif" font-size="12px" font-style="normal" font-weight="normal" text-decoration="normal" x="545" y="304" text-anchor="start" dominant-baseline="alphabetic" fill-opacity="1">1.5</text><text fill="none" stroke="rgb(255,255,255)" font-family="geogebra-sans-serif, sans-serif" font-size="12px" font-style="normal" font-weight="normal" text-decoration="normal" x="545" y="304" text-anchor="start" dominant-baseline="alphabetic" stroke-opacity="1" stroke-linejoin="bevel" stroke-miterlimit="10" stroke-width="3">1.5</text><text fill="rgb(0,0,0)" stroke="none" font-family="geogebra-sans-serif, sans-serif" font-size="12px" font-style="normal" font-weight="normal" text-decoration="normal" x="545" y="304" text-anchor="start" dominant-baseline="alphabetic" fill-opacity="1">1.5</text><text fill="rgb(0,0,0)" stroke="none" font-family="geogebra-sans-serif, sans-serif" font-size="12px" font-style="normal" font-weight="normal" text-decoration="normal" x="622" y="304" text-anchor="start" dominant-baseline="alphabetic" fill-opacity="1">2</text><text fill="none" stroke="rgb(255,255,255)" font-family="geogebra-sans-serif, sans-serif" font-size="12px" font-style="normal" font-weight="normal" text-decoration="normal" x="622" y="304" text-anchor="start" dominant-baseline="alphabetic" stroke-opacity="1" stroke-linejoin="bevel" stroke-miterlimit="10" stroke-width="3">2</text><text fill="rgb(0,0,0)" stroke="none" font-family="geogebra-sans-serif, sans-serif" font-size="12px" font-style="normal" font-weight="normal" text-decoration="normal" x="622" y="304" text-anchor="start" dominant-baseline="alphabetic" fill-opacity="1">2</text><text fill="rgb(0,0,0)" stroke="none" font-family="geogebra-sans-serif, sans-serif" font-size="12px" font-style="normal" font-weight="normal" text-decoration="normal" x="687" y="304" text-anchor="start" dominant-baseline="alphabetic" fill-opacity="1">2.5</text><text fill="none" stroke="rgb(255,255,255)" font-family="geogebra-sans-serif, sans-serif" font-size="12px" font-style="normal" font-weight="normal" text-decoration="normal" x="687" y="304" text-anchor="start" dominant-baseline="alphabetic" stroke-opacity="1" stroke-linejoin="bevel" stroke-miterlimit="10" stroke-width="3">2.5</text><text fill="rgb(0,0,0)" stroke="none" font-family="geogebra-sans-serif, sans-serif" font-size="12px" font-style="normal" font-weight="normal" text-decoration="normal" x="687" y="304" text-anchor="start" dominant-baseline="alphabetic" fill-opacity="1">2.5</text><text fill="rgb(0,0,0)" stroke="none" font-family="geogebra-sans-serif, sans-serif" font-size="12px" font-style="normal" font-weight="normal" text-decoration="normal" x="764" y="304" text-anchor="start" dominant-baseline="alphabetic" fill-opacity="1">3</text><text fill="none" stroke="rgb(255,255,255)" font-family="geogebra-sans-serif, sans-serif" font-size="12px" font-style="normal" font-weight="normal" text-decoration="normal" x="764" y="304" text-anchor="start" dominant-baseline="alphabetic" stroke-opacity="1" stroke-linejoin="bevel" stroke-miterlimit="10" stroke-width="3">3</text><text fill="rgb(0,0,0)" stroke="none" font-family="geogebra-sans-serif, sans-serif" font-size="12px" font-style="normal" font-weight="normal" text-decoration="normal" x="764" y="304" text-anchor="start" dominant-baseline="alphabetic" fill-opacity="1">3</text><text fill="rgb(0,0,0)" stroke="none" font-family="geogebra-sans-serif, sans-serif" font-size="12px" font-style="normal" font-weight="normal" text-decoration="normal" x="830" y="304" text-anchor="start" dominant-baseline="alphabetic" fill-opacity="1">3.5</text><text fill="none" stroke="rgb(255,255,255)" font-family="geogebra-sans-serif, sans-serif" font-size="12px" font-style="normal" font-weight="normal" text-decoration="normal" x="830" y="304" text-anchor="start" dominant-baseline="alphabetic" stroke-opacity="1" stroke-linejoin="bevel" stroke-miterlimit="10" stroke-width="3">3.5</text><text fill="rgb(0,0,0)" stroke="none" font-family="geogebra-sans-serif, sans-serif" font-size="12px" font-style="normal" font-weight="normal" text-decoration="normal" x="830" y="304" text-anchor="start" dominant-baseline="alphabetic" fill-opacity="1">3.5</text><text fill="rgb(0,0,0)" stroke="none" font-family="geogebra-sans-serif, sans-serif" font-size="12px" font-style="normal" font-weight="normal" text-decoration="normal" x="907" y="304" text-anchor="start" dominant-baseline="alphabetic" fill-opacity="1">4</text><text fill="none" stroke="rgb(255,255,255)" font-family="geogebra-sans-serif, sans-serif" font-size="12px" font-style="normal" font-weight="normal" text-decoration="normal" x="907" y="304" text-anchor="start" dominant-baseline="alphabetic" stroke-opacity="1" stroke-linejoin="bevel" stroke-miterlimit="10" stroke-width="3">4</text><text fill="rgb(0,0,0)" stroke="none" font-family="geogebra-sans-serif, sans-serif" font-size="12px" font-style="normal" font-weight="normal" text-decoration="normal" x="907" y="304" text-anchor="start" dominant-baseline="alphabetic" fill-opacity="1">4</text><text fill="rgb(0,0,0)" stroke="none" font-family="geogebra-sans-serif, sans-serif" font-size="12px" font-style="normal" font-weight="normal" text-decoration="normal" x="309" y="507" text-anchor="start" dominant-baseline="alphabetic" fill-opacity="1">–1.5</text><text fill="none" stroke="rgb(255,255,255)" font-family="geogebra-sans-serif, sans-serif" font-size="12px" font-style="normal" font-weight="normal" text-decoration="normal" x="309" y="507" text-anchor="start" dominant-baseline="alphabetic" stroke-opacity="1" stroke-linejoin="bevel" stroke-miterlimit="10" stroke-width="3">–1.5</text><text fill="rgb(0,0,0)" stroke="none" font-family="geogebra-sans-serif, sans-serif" font-size="12px" font-style="normal" font-weight="normal" text-decoration="normal" x="309" y="507" text-anchor="start" dominant-baseline="alphabetic" fill-opacity="1">–1.5</text><text fill="rgb(0,0,0)" stroke="none" font-family="geogebra-sans-serif, sans-serif" font-size="12px" font-style="normal" font-weight="normal" text-decoration="normal" x="319" y="436" text-anchor="start" dominant-baseline="alphabetic" fill-opacity="1">–1</text><text fill="none" stroke="rgb(255,255,255)" font-family="geogebra-sans-serif, sans-serif" font-size="12px" font-style="normal" font-weight="normal" text-decoration="normal" x="319" y="436" text-anchor="start" dominant-baseline="alphabetic" stroke-opacity="1" stroke-linejoin="bevel" stroke-miterlimit="10" stroke-width="3">–1</text><text fill="rgb(0,0,0)" stroke="none" font-family="geogebra-sans-serif, sans-serif" font-size="12px" font-style="normal" font-weight="normal" text-decoration="normal" x="319" y="436" text-anchor="start" dominant-baseline="alphabetic" fill-opacity="1">–1</text><text fill="rgb(0,0,0)" stroke="none" font-family="geogebra-sans-serif, sans-serif" font-size="12px" font-style="normal" font-weight="normal" text-decoration="normal" x="309" y="364" text-anchor="start" dominant-baseline="alphabetic" fill-opacity="1">–0.5</text><text fill="none" stroke="rgb(255,255,255)" font-family="geogebra-sans-serif, sans-serif" font-size="12px" font-style="normal" font-weight="normal" text-decoration="normal" x="309" y="364" text-anchor="start" dominant-baseline="alphabetic" stroke-opacity="1" stroke-linejoin="bevel" stroke-miterlimit="10" stroke-width="3">–0.5</text><text fill="rgb(0,0,0)" stroke="none" font-family="geogebra-sans-serif, sans-serif" font-size="12px" font-style="normal" font-weight="normal" text-decoration="normal" x="309" y="364" text-anchor="start" dominant-baseline="alphabetic" fill-opacity="1">–0.5</text><text fill="rgb(0,0,0)" stroke="none" font-family="geogebra-sans-serif, sans-serif" font-size="12px" font-style="normal" font-weight="normal" text-decoration="normal" x="315" y="222" text-anchor="start" dominant-baseline="alphabetic" fill-opacity="1">0.5</text><text fill="none" stroke="rgb(255,255,255)" font-family="geogebra-sans-serif, sans-serif" font-size="12px" font-style="normal" font-weight="normal" text-decoration="normal" x="315" y="222" text-anchor="start" dominant-baseline="alphabetic" stroke-opacity="1" stroke-linejoin="bevel" stroke-miterlimit="10" stroke-width="3">0.5</text><text fill="rgb(0,0,0)" stroke="none" font-family="geogebra-sans-serif, sans-serif" font-size="12px" font-style="normal" font-weight="normal" text-decoration="normal" x="315" y="222" text-anchor="start" dominant-baseline="alphabetic" fill-opacity="1">0.5</text><text fill="rgb(0,0,0)" stroke="none" font-family="geogebra-sans-serif, sans-serif" font-size="12px" font-style="normal" font-weight="normal" text-decoration="normal" x="325" y="151" text-anchor="start" dominant-baseline="alphabetic" fill-opacity="1">1</text><text fill="none" stroke="rgb(255,255,255)" font-family="geogebra-sans-serif, sans-serif" font-size="12px" font-style="normal" font-weight="normal" text-decoration="normal" x="325" y="151" text-anchor="start" dominant-baseline="alphabetic" stroke-opacity="1" stroke-linejoin="bevel" stroke-miterlimit="10" stroke-width="3">1</text><text fill="rgb(0,0,0)" stroke="none" font-family="geogebra-sans-serif, sans-serif" font-size="12px" font-style="normal" font-weight="normal" text-decoration="normal" x="325" y="151" text-anchor="start" dominant-baseline="alphabetic" fill-opacity="1">1</text><text fill="rgb(0,0,0)" stroke="none" font-family="geogebra-sans-serif, sans-serif" font-size="12px" font-style="normal" font-weight="normal" text-decoration="normal" x="315" y="79" text-anchor="start" dominant-baseline="alphabetic" fill-opacity="1">1.5</text><text fill="none" stroke="rgb(255,255,255)" font-family="geogebra-sans-serif, sans-serif" font-size="12px" font-style="normal" font-weight="normal" text-decoration="normal" x="315" y="79" text-anchor="start" dominant-baseline="alphabetic" stroke-opacity="1" stroke-linejoin="bevel" stroke-miterlimit="10" stroke-width="3">1.5</text><text fill="rgb(0,0,0)" stroke="none" font-family="geogebra-sans-serif, sans-serif" font-size="12px" font-style="normal" font-weight="normal" text-decoration="normal" x="315" y="79" text-anchor="start" dominant-baseline="alphabetic" fill-opacity="1">1.5</text><text fill="rgb(0,0,0)" stroke="none" font-family="geogebra-sans-serif, sans-serif" font-size="12px" font-style="normal" font-weight="normal" text-decoration="normal" x="325" y="304" text-anchor="start" dominant-baseline="alphabetic" fill-opacity="1">0</text><text fill="none" stroke="rgb(255,255,255)" font-family="geogebra-sans-serif, sans-serif" font-size="12px" font-style="normal" font-weight="normal" text-decoration="normal" x="325" y="304" text-anchor="start" dominant-baseline="alphabetic" stroke-opacity="1" stroke-linejoin="bevel" stroke-miterlimit="10" stroke-width="3">0</text><text fill="rgb(0,0,0)" stroke="none" font-family="geogebra-sans-serif, sans-serif" font-size="12px" font-style="normal" font-weight="normal" text-decoration="normal" x="325" y="304" text-anchor="start" dominant-baseline="alphabetic" fill-opacity="1">0</text><path fill="none" stroke="rgb(46,125,50)" paint-order="fill stroke markers" d=" M 346.63576292975335 290.08125 L 349.6628982038464 286.50000000000006 L 350.75 286.38094704443677 L 356.5 284.65407539701056 L 359.41514821696296 282.91875000000005 L 362.25 282.0152714966209 L 367.2674278790355 279.33750000000003 L 368 279.0666922662402 L 373.75 275.8608215668298 L 379.5 272.3452707050226 L 385.05007835696074 268.59375 L 389.93116258513 265.0125 L 391 264.3156967330369 L 394.5271266498398 261.43125 L 396.75 259.79754963877025 L 398.9115806493726 257.84999999999997 L 402.5 254.8975419389802 L 403.1352108434403 254.26875 L 407.06785275498555 250.6875 L 408.25 249.68476633126338 L 410.81971103977486 247.10625000000002 L 414 244.0987290483477 L 414.51957235475516 243.525 L 417.9645889225772 239.94375000000002 L 419.75 238.17525969578608 L 421.3366528886675 236.36250000000004 L 424.61367748344435 232.78125000000003 L 425.5 231.85377568122823 L 427.7220762162861 229.20000000000005 L 430.82172077216956 225.61875 L 433.72053147929773 222.0375 L 436.643191908332 218.45625 L 439.3766223254579 214.875 L 442.12792755234886 211.29375000000005 L 442.75 210.50629619535175 L 444.7315956869116 207.71250000000003 L 447.3198068003711 204.13125000000002 L 448.5 202.5324398206094 L 449.8222278689633 200.55 L 452.25674836463656 196.96875 L 454.25 194.0755164586314 L 454.6807043744834 193.3875 L 456.9712321539839 189.80624999999998 L 459.2818350879482 186.225 L 460 185.13033190496378 L 461.4909833977667 182.64375 L 463.6626046708277 179.0625 L 465.75 175.64130901926234 L 467.8824072080186 171.90000000000003 L 469.9343437794795 168.31875000000002 L 471.5 165.60352142292766 L 471.9606536831178 164.73750000000004 L 473.89076365737645 161.15625000000003 L 475.82548374345333 157.57500000000005 L 477.25 154.95059962809617 L 477.7311786613177 153.99375 L 479.55169414466 150.4125 L 481.3735470122822 146.83124999999998 L 483 143.63772496757633 L 484.8989897992408 139.66875000000002 L 486.6133349346036 136.0875 L 488.32524827866973 132.50625000000002 L 488.74999999999994 131.62414229404112 L 489.96380782462035 128.925 L 491.57646360655673 125.34374999999997 L 493.1853310531051 121.76249999999996 L 494.5 118.83371287529809 L 494.77440454180214 118.18124999999998 L 496.2913035657831 114.59999999999997 L 497.80351276374984 111.01874999999998 L 499.31011751761525 107.43749999999997 L 500.24999999999994 105.20387207907328 L 500.78312792807833 103.85625000000002 L 502.20484629849113 100.275 L 503.6205527464149 96.69375000000002 L 505.0295370872159 93.11250000000001 L 505.99999999999994 90.64188359177732 L 506.4114418079048 89.53125000000003 L 507.7423156480838 85.95000000000002 L 509.06639295635216 82.36874999999998 L 510.3831212475849 78.78749999999997 L 511.69198137045385 75.20624999999998 L 512.9394338922984 71.62499999999997 L 514.1771785316555 68.04374999999999 L 515.4072896962705 64.4625 L 516.6293637876588 60.88125000000002 L 517.5 58.320444108238746 L 517.8291408298862 57.30000000000001 L 518.9859514973637 53.71874999999997 L 520.1350808703006 50.13749999999996 L 521.2762146487057 46.55624999999998 L 522.409059808683 42.974999999999966 L 523.25 40.30381728372927 L 523.5225672557688 39.39374999999998 L 524.5961792109035 35.81249999999997 L 525.6619781382426 32.23124999999999 L 526.7197362328732 28.649999999999977 L 527.7692423961159 25.068750000000023 L 528.8103016659206 21.48750000000001 L 529 20.83530611934549 L 529.8128530048131 17.90625 L 530.8008914281547 14.324999999999989 L 531.7810505694001 10.743749999999977 L 532.7531799364988 7.162499999999966 L 533.7171416761206 3.5812500000000114 L 534.6728101049085 0 M 346.63576292975335 290.08125 L 350.75 290.62632228609624 L 357.77704211175967 293.6625 L 362.25 295.22896945688257 L 365.6854452292349 297.24375000000003 L 368 298.152988226918 L 373.75 301.3869519966555 L 378.50026373486105 304.40625 L 379.5 304.9238798676934 L 383.9139940405115 307.9875 L 385.25 308.7761334465636 L 388.912848323555 311.56875 L 391 312.9629395704159 L 396.75 317.5075938035232 L 398.0793748148368 318.73125000000005 L 402.3545579592748 322.3125 L 408.25 327.6073432871666 L 413.82405767946244 333.05625000000003 L 419.75 339.12960974171585 L 420.69270452137164 340.21875 L 423.9472638111009 343.8 L 425.5 345.43986526017545 L 427.1103061939844 347.38125 L 430.19309378088224 350.96250000000003 L 431.25 352.1465701486153 L 433.14179248230806 354.54375000000005 L 436.0516731962642 358.12500000000006 L 437 359.256314403272 L 441.5719685599838 365.2875 L 442.75 366.7878037717785 L 444.2167730837154 368.86875000000003 L 446.79745211274144 372.45000000000005 L 448.5 374.76896727133476 L 449.3372151537013 376.03125 L 451.76589642063294 379.6125 L 454.2215729410449 383.19375 L 458.81669495806733 390.35625000000005 L 460 392.16733065012113 L 463.2256845775273 397.51875 L 465.4072511665705 401.1 L 465.75 401.6536967679096 L 467.47160367909595 404.68125000000003 L 469.52192183565705 408.26250000000005 L 471.5 411.70408019031146 L 473.50295143991866 415.42500000000007 L 475.4369275871472 419.00625 L 477.25 422.3558899451896 L 479.18615394743404 426.16875000000005 L 481.0078846506674 429.75 L 482.82951686923707 433.33125 L 486.269418792851 440.49375 L 487.98193277163443 444.07500000000005 L 488.74999999999994 445.67334716653977 L 489.63979762909923 447.65625000000006 L 491.2530735699881 451.23750000000007 L 492.86279297233625 454.81875 L 494.4678255367331 458.40000000000003 L 495.9872107471818 461.98125000000005 L 497.5004361825696 465.5625 L 499.00823665437355 469.14375 L 500.24999999999994 472.099291708995 L 501.91996882786145 476.30625000000003 L 503.3369401552951 479.88750000000005 L 504.7473285835222 483.46875 L 505.99999999999994 486.6619160470034 L 507.4757386332701 490.63125 L 508.80122539172373 494.21250000000003 L 510.11947131513597 497.79375000000005 L 511.42995063018213 501.37500000000006 L 511.74999999999994 502.2474874353552 L 512.6901387462158 504.95625000000007 L 513.9293644043564 508.5375 L 515.1610408217953 512.1187500000001 L 516.3847590359646 515.7 L 517.5 518.9831036372595 L 518.7543874544155 522.8625000000001 L 519.9050843529641 526.44375 L 521.0478470083995 530.0250000000001 L 522.1823781804424 533.60625 L 523.25 536.9997945214448 L 524.3813264145292 540.7687500000001 L 525.4487122199588 544.35 L 526.5081015544139 547.9312500000001 L 527.5592800119914 551.5125 L 528.6020494377201 555.09375 L 529 556.4626063533351 L 529.6136204473854 558.6750000000001 L 530.6032209444035 562.2562500000001 L 531.5849739273441 565.8375000000001 L 532.5587263107365 569.41875 L 533.5243377424259 573" stroke-opacity="0.2" stroke-linecap="round" stroke-linejoin="round" stroke-miterlimit="10" stroke-width="7"/><path fill="none" stroke="rgb(46,125,50)" paint-order="fill stroke markers" d=" M 346.63576292975335 290.08125 L 349.6628982038464 286.50000000000006 L 350.75 286.38094704443677 L 356.5 284.65407539701056 L 359.41514821696296 282.91875000000005 L 362.25 282.0152714966209 L 367.2674278790355 279.33750000000003 L 368 279.0666922662402 L 373.75 275.8608215668298 L 379.5 272.3452707050226 L 385.05007835696074 268.59375 L 389.93116258513 265.0125 L 391 264.3156967330369 L 394.5271266498398 261.43125 L 396.75 259.79754963877025 L 398.9115806493726 257.84999999999997 L 402.5 254.8975419389802 L 403.1352108434403 254.26875 L 407.06785275498555 250.6875 L 408.25 249.68476633126338 L 410.81971103977486 247.10625000000002 L 414 244.0987290483477 L 414.51957235475516 243.525 L 417.9645889225772 239.94375000000002 L 419.75 238.17525969578608 L 421.3366528886675 236.36250000000004 L 424.61367748344435 232.78125000000003 L 425.5 231.85377568122823 L 427.7220762162861 229.20000000000005 L 430.82172077216956 225.61875 L 433.72053147929773 222.0375 L 436.643191908332 218.45625 L 439.3766223254579 214.875 L 442.12792755234886 211.29375000000005 L 442.75 210.50629619535175 L 444.7315956869116 207.71250000000003 L 447.3198068003711 204.13125000000002 L 448.5 202.5324398206094 L 449.8222278689633 200.55 L 452.25674836463656 196.96875 L 454.25 194.0755164586314 L 454.6807043744834 193.3875 L 456.9712321539839 189.80624999999998 L 459.2818350879482 186.225 L 460 185.13033190496378 L 461.4909833977667 182.64375 L 463.6626046708277 179.0625 L 465.75 175.64130901926234 L 467.8824072080186 171.90000000000003 L 469.9343437794795 168.31875000000002 L 471.5 165.60352142292766 L 471.9606536831178 164.73750000000004 L 473.89076365737645 161.15625000000003 L 475.82548374345333 157.57500000000005 L 477.25 154.95059962809617 L 477.7311786613177 153.99375 L 479.55169414466 150.4125 L 481.3735470122822 146.83124999999998 L 483 143.63772496757633 L 484.8989897992408 139.66875000000002 L 486.6133349346036 136.0875 L 488.32524827866973 132.50625000000002 L 488.74999999999994 131.62414229404112 L 489.96380782462035 128.925 L 491.57646360655673 125.34374999999997 L 493.1853310531051 121.76249999999996 L 494.5 118.83371287529809 L 494.77440454180214 118.18124999999998 L 496.2913035657831 114.59999999999997 L 497.80351276374984 111.01874999999998 L 499.31011751761525 107.43749999999997 L 500.24999999999994 105.20387207907328 L 500.78312792807833 103.85625000000002 L 502.20484629849113 100.275 L 503.6205527464149 96.69375000000002 L 505.0295370872159 93.11250000000001 L 505.99999999999994 90.64188359177732 L 506.4114418079048 89.53125000000003 L 507.7423156480838 85.95000000000002 L 509.06639295635216 82.36874999999998 L 510.3831212475849 78.78749999999997 L 511.69198137045385 75.20624999999998 L 512.9394338922984 71.62499999999997 L 514.1771785316555 68.04374999999999 L 515.4072896962705 64.4625 L 516.6293637876588 60.88125000000002 L 517.5 58.320444108238746 L 517.8291408298862 57.30000000000001 L 518.9859514973637 53.71874999999997 L 520.1350808703006 50.13749999999996 L 521.2762146487057 46.55624999999998 L 522.409059808683 42.974999999999966 L 523.25 40.30381728372927 L 523.5225672557688 39.39374999999998 L 524.5961792109035 35.81249999999997 L 525.6619781382426 32.23124999999999 L 526.7197362328732 28.649999999999977 L 527.7692423961159 25.068750000000023 L 528.8103016659206 21.48750000000001 L 529 20.83530611934549 L 529.8128530048131 17.90625 L 530.8008914281547 14.324999999999989 L 531.7810505694001 10.743749999999977 L 532.7531799364988 7.162499999999966 L 533.7171416761206 3.5812500000000114 L 534.6728101049085 0 M 346.63576292975335 290.08125 L 350.75 290.62632228609624 L 357.77704211175967 293.6625 L 362.25 295.22896945688257 L 365.6854452292349 297.24375000000003 L 368 298.152988226918 L 373.75 301.3869519966555 L 378.50026373486105 304.40625 L 379.5 304.9238798676934 L 383.9139940405115 307.9875 L 385.25 308.7761334465636 L 388.912848323555 311.56875 L 391 312.9629395704159 L 396.75 317.5075938035232 L 398.0793748148368 318.73125000000005 L 402.3545579592748 322.3125 L 408.25 327.6073432871666 L 413.82405767946244 333.05625000000003 L 419.75 339.12960974171585 L 420.69270452137164 340.21875 L 423.9472638111009 343.8 L 425.5 345.43986526017545 L 427.1103061939844 347.38125 L 430.19309378088224 350.96250000000003 L 431.25 352.1465701486153 L 433.14179248230806 354.54375000000005 L 436.0516731962642 358.12500000000006 L 437 359.256314403272 L 441.5719685599838 365.2875 L 442.75 366.7878037717785 L 444.2167730837154 368.86875000000003 L 446.79745211274144 372.45000000000005 L 448.5 374.76896727133476 L 449.3372151537013 376.03125 L 451.76589642063294 379.6125 L 454.2215729410449 383.19375 L 458.81669495806733 390.35625000000005 L 460 392.16733065012113 L 463.2256845775273 397.51875 L 465.4072511665705 401.1 L 465.75 401.6536967679096 L 467.47160367909595 404.68125000000003 L 469.52192183565705 408.26250000000005 L 471.5 411.70408019031146 L 473.50295143991866 415.42500000000007 L 475.4369275871472 419.00625 L 477.25 422.3558899451896 L 479.18615394743404 426.16875000000005 L 481.0078846506674 429.75 L 482.82951686923707 433.33125 L 486.269418792851 440.49375 L 487.98193277163443 444.07500000000005 L 488.74999999999994 445.67334716653977 L 489.63979762909923 447.65625000000006 L 491.2530735699881 451.23750000000007 L 492.86279297233625 454.81875 L 494.4678255367331 458.40000000000003 L 495.9872107471818 461.98125000000005 L 497.5004361825696 465.5625 L 499.00823665437355 469.14375 L 500.24999999999994 472.099291708995 L 501.91996882786145 476.30625000000003 L 503.3369401552951 479.88750000000005 L 504.7473285835222 483.46875 L 505.99999999999994 486.6619160470034 L 507.4757386332701 490.63125 L 508.80122539172373 494.21250000000003 L 510.11947131513597 497.79375000000005 L 511.42995063018213 501.37500000000006 L 511.74999999999994 502.2474874353552 L 512.6901387462158 504.95625000000007 L 513.9293644043564 508.5375 L 515.1610408217953 512.1187500000001 L 516.3847590359646 515.7 L 517.5 518.9831036372595 L 518.7543874544155 522.8625000000001 L 519.9050843529641 526.44375 L 521.0478470083995 530.0250000000001 L 522.1823781804424 533.60625 L 523.25 536.9997945214448 L 524.3813264145292 540.7687500000001 L 525.4487122199588 544.35 L 526.5081015544139 547.9312500000001 L 527.5592800119914 551.5125 L 528.6020494377201 555.09375 L 529 556.4626063533351 L 529.6136204473854 558.6750000000001 L 530.6032209444035 562.2562500000001 L 531.5849739273441 565.8375000000001 L 532.5587263107365 569.41875 L 533.5243377424259 573" stroke-opacity="0.8" stroke-linecap="round" stroke-linejoin="round" stroke-miterlimit="10" stroke-width="2.5"/><text fill="rgb(46,125,50)" stroke="none" font-family="geogebra-sans-serif, sans-serif" font-size="16px" font-style="normal" font-weight="normal" text-decoration="normal" x="545" y="536" text-anchor="start" dominant-baseline="alphabetic" fill-opacity="1">Cissoide de Diócles</text><text fill="none" stroke="rgb(255,255,255)" font-family="geogebra-sans-serif, sans-serif" font-size="16px" font-style="normal" font-weight="normal" text-decoration="normal" x="545" y="536" text-anchor="start" dominant-baseline="alphabetic" stroke-opacity="1" stroke-linejoin="bevel" stroke-miterlimit="10" stroke-width="3">Cissoide de Diócles</text><text fill="rgb(46,125,50)" stroke="none" font-family="geogebra-sans-serif, sans-serif" font-size="16px" font-style="normal" font-weight="normal" text-decoration="normal" x="545" y="536" text-anchor="start" dominant-baseline="alphabetic" fill-opacity="1">Cissoide de Diócles</text><path fill="rgb(97,97,97)" stroke="none" paint-order="stroke fill markers" d=" M 344.2500000000001 288.65 C 344.2500000000001 291.4114237491539 342.01142374915406 293.65 339.2500000000001 293.65 C 336.48857625084617 293.65 334.2500000000001 291.4114237491539 334.2500000000001 288.65 C 334.2500000000001 285.88857625084603 336.48857625084617 283.65 339.2500000000001 283.65 C 342.01142374915406 283.65 344.2500000000001 285.88857625084603 344.2500000000001 288.65 Z" fill-opacity="1"/><path fill="rgb(97,97,97)" stroke="none" paint-order="stroke fill markers" d=" M 344.2500000000001 288.65 C 344.2500000000001 291.4114237491539 342.01142374915406 293.65 339.2500000000001 293.65 C 336.48857625084617 293.65 334.2500000000001 291.4114237491539 334.2500000000001 288.65 C 334.2500000000001 285.88857625084603 336.48857625084617 283.65 339.2500000000001 283.65 C 342.01142374915406 283.65 344.2500000000001 285.88857625084603 344.2500000000001 288.65 Z" fill-opacity="1"/></g></g></svg>