<svg version="1.1" xmlns="http://www.w3.org/2000/svg" xmlns:xlink="http://www.w3.org/1999/xlink" width="920" height="573"><defs><clipPath id="tgCmWObssgLd"><path fill="none" stroke="none" d=" M 0 0 L 920 0 L 920 573 L 0 573 L 0 0 Z"/></clipPath></defs><g transform="scale(1,1)" clip-path="url(#tgCmWObssgLd)"><g><rect fill="rgb(255,255,255)" stroke="none" x="0" y="0" width="920" height="573" fill-opacity="1"/><path fill="none" stroke="rgb(192,192,192)" paint-order="fill stroke markers" d=" M 24.5 0.5 L 24.5 573.5 M 24.5 0.5 L 24.5 573.5 M 67.5 0.5 L 67.5 573.5 M 111.5 0.5 L 111.5 573.5 M 154.5 0.5 L 154.5 573.5 M 198.5 0.5 L 198.5 573.5 M 242.5 0.5 L 242.5 573.5 M 285.5 0.5 L 285.5 573.5 M 329.5 0.5 L 329.5 573.5 M 373.5 0.5 L 373.5 573.5 M 416.5 0.5 L 416.5 573.5 M 503.5 0.5 L 503.5 573.5 M 547.5 0.5 L 547.5 573.5 M 591.5 0.5 L 591.5 573.5 M 634.5 0.5 L 634.5 573.5 M 678.5 0.5 L 678.5 573.5 M 721.5 0.5 L 721.5 573.5 M 765.5 0.5 L 765.5 573.5 M 809.5 0.5 L 809.5 573.5 M 852.5 0.5 L 852.5 573.5 M 896.5 0.5 L 896.5 573.5" stroke-opacity="1" stroke-linecap="round" stroke-linejoin="round" stroke-miterlimit="10"/><path fill="none" stroke="rgb(192,192,192)" paint-order="fill stroke markers" d="" stroke-opacity="0.23529411764705882" stroke-linecap="round" stroke-linejoin="round" stroke-miterlimit="10"/><path fill="none" stroke="rgb(192,192,192)" paint-order="fill stroke markers" d=" M 0.5 24.5 L 920.5 24.5 M 0.5 24.5 L 920.5 24.5 M 0.5 68.5 L 920.5 68.5 M 0.5 112.5 L 920.5 112.5 M 0.5 155.5 L 920.5 155.5 M 0.5 199.5 L 920.5 199.5 M 0.5 243.5 L 920.5 243.5 M 0.5 330.5 L 920.5 330.5 M 0.5 373.5 L 920.5 373.5 M 0.5 417.5 L 920.5 417.5 M 0.5 461.5 L 920.5 461.5 M 0.5 504.5 L 920.5 504.5 M 0.5 548.5 L 920.5 548.5" stroke-opacity="1" stroke-linecap="round" stroke-linejoin="round" stroke-miterlimit="10"/><path fill="none" stroke="rgb(192,192,192)" paint-order="fill stroke markers" d="" stroke-opacity="0.23529411764705882" stroke-linecap="round" stroke-linejoin="round" stroke-miterlimit="10"/><path fill="none" stroke="rgb(0,0,0)" paint-order="fill stroke markers" d=" M 460.5 2.5 L 460.5 573.5" stroke-opacity="1" stroke-miterlimit="10"/><path fill="none" stroke="rgb(0,0,0)" paint-order="fill stroke markers" d=" M 460.5 1.5 L 456.5 5.5" stroke-opacity="1" stroke-miterlimit="10"/><path fill="none" stroke="rgb(0,0,0)" paint-order="fill stroke markers" d=" M 460.5 1.5 L 464.5 5.5" stroke-opacity="1" stroke-miterlimit="10"/><path fill="none" stroke="rgb(0,0,0)" paint-order="fill stroke markers" d=" M 0.5 286.5 L 918.5 286.5" stroke-opacity="1" stroke-miterlimit="10"/><path fill="none" stroke="rgb(0,0,0)" paint-order="fill stroke markers" d=" M 919.5 286.5 L 915.5 282.5" stroke-opacity="1" stroke-miterlimit="10"/><path fill="none" stroke="rgb(0,0,0)" paint-order="fill stroke markers" d=" M 919.5 286.5 L 915.5 290.5" stroke-opacity="1" stroke-miterlimit="10"/><text fill="rgb(0,0,0)" stroke="none" font-family="geogebra-sans-serif, sans-serif" font-size="12px" font-style="normal" font-weight="normal" text-decoration="normal" x="19" y="302" text-anchor="start" dominant-baseline="alphabetic" fill-opacity="1">–2</text><text fill="rgb(0,0,0)" stroke="none" font-family="geogebra-sans-serif, sans-serif" font-size="12px" font-style="normal" font-weight="normal" text-decoration="normal" x="19" y="302" text-anchor="start" dominant-baseline="alphabetic" fill-opacity="1">–2</text><text fill="rgb(0,0,0)" stroke="none" font-family="geogebra-sans-serif, sans-serif" font-size="12px" font-style="normal" font-weight="normal" text-decoration="normal" x="56" y="302" text-anchor="start" dominant-baseline="alphabetic" fill-opacity="1">–1.8</text><text fill="rgb(0,0,0)" stroke="none" font-family="geogebra-sans-serif, sans-serif" font-size="12px" font-style="normal" font-weight="normal" text-decoration="normal" x="56" y="302" text-anchor="start" dominant-baseline="alphabetic" fill-opacity="1">–1.8</text><text fill="rgb(0,0,0)" stroke="none" font-family="geogebra-sans-serif, sans-serif" font-size="12px" font-style="normal" font-weight="normal" text-decoration="normal" x="100" y="302" text-anchor="start" dominant-baseline="alphabetic" fill-opacity="1">–1.6</text><text fill="rgb(0,0,0)" stroke="none" font-family="geogebra-sans-serif, sans-serif" font-size="12px" font-style="normal" font-weight="normal" text-decoration="normal" x="100" y="302" text-anchor="start" dominant-baseline="alphabetic" fill-opacity="1">–1.6</text><text fill="rgb(0,0,0)" stroke="none" font-family="geogebra-sans-serif, sans-serif" font-size="12px" font-style="normal" font-weight="normal" text-decoration="normal" x="143" y="302" text-anchor="start" dominant-baseline="alphabetic" fill-opacity="1">–1.4</text><text fill="rgb(0,0,0)" stroke="none" font-family="geogebra-sans-serif, sans-serif" font-size="12px" font-style="normal" font-weight="normal" text-decoration="normal" x="143" y="302" text-anchor="start" dominant-baseline="alphabetic" fill-opacity="1">–1.4</text><text fill="rgb(0,0,0)" stroke="none" font-family="geogebra-sans-serif, sans-serif" font-size="12px" font-style="normal" font-weight="normal" text-decoration="normal" x="187" y="302" text-anchor="start" dominant-baseline="alphabetic" fill-opacity="1">–1.2</text><text fill="rgb(0,0,0)" stroke="none" font-family="geogebra-sans-serif, sans-serif" font-size="12px" font-style="normal" font-weight="normal" text-decoration="normal" x="187" y="302" text-anchor="start" dominant-baseline="alphabetic" fill-opacity="1">–1.2</text><text fill="rgb(0,0,0)" stroke="none" font-family="geogebra-sans-serif, sans-serif" font-size="12px" font-style="normal" font-weight="normal" text-decoration="normal" x="237" y="302" text-anchor="start" dominant-baseline="alphabetic" fill-opacity="1">–1</text><text fill="rgb(0,0,0)" stroke="none" font-family="geogebra-sans-serif, sans-serif" font-size="12px" font-style="normal" font-weight="normal" text-decoration="normal" x="237" y="302" text-anchor="start" dominant-baseline="alphabetic" fill-opacity="1">–1</text><text fill="rgb(0,0,0)" stroke="none" font-family="geogebra-sans-serif, sans-serif" font-size="12px" font-style="normal" font-weight="normal" text-decoration="normal" x="274" y="302" text-anchor="start" dominant-baseline="alphabetic" fill-opacity="1">–0.8</text><text fill="rgb(0,0,0)" stroke="none" font-family="geogebra-sans-serif, sans-serif" font-size="12px" font-style="normal" font-weight="normal" text-decoration="normal" x="274" y="302" text-anchor="start" dominant-baseline="alphabetic" fill-opacity="1">–0.8</text><text fill="rgb(0,0,0)" stroke="none" font-family="geogebra-sans-serif, sans-serif" font-size="12px" font-style="normal" font-weight="normal" text-decoration="normal" x="318" y="302" text-anchor="start" dominant-baseline="alphabetic" fill-opacity="1">–0.6</text><text fill="rgb(0,0,0)" stroke="none" font-family="geogebra-sans-serif, sans-serif" font-size="12px" font-style="normal" font-weight="normal" text-decoration="normal" x="318" y="302" text-anchor="start" dominant-baseline="alphabetic" fill-opacity="1">–0.6</text><text fill="rgb(0,0,0)" stroke="none" font-family="geogebra-sans-serif, sans-serif" font-size="12px" font-style="normal" font-weight="normal" text-decoration="normal" x="362" y="302" text-anchor="start" dominant-baseline="alphabetic" fill-opacity="1">–0.4</text><text fill="rgb(0,0,0)" stroke="none" font-family="geogebra-sans-serif, sans-serif" font-size="12px" font-style="normal" font-weight="normal" text-decoration="normal" x="362" y="302" text-anchor="start" dominant-baseline="alphabetic" fill-opacity="1">–0.4</text><text fill="rgb(0,0,0)" stroke="none" font-family="geogebra-sans-serif, sans-serif" font-size="12px" font-style="normal" font-weight="normal" text-decoration="normal" x="405" y="302" text-anchor="start" dominant-baseline="alphabetic" fill-opacity="1">–0.2</text><text fill="rgb(0,0,0)" stroke="none" font-family="geogebra-sans-serif, sans-serif" font-size="12px" font-style="normal" font-weight="normal" text-decoration="normal" x="405" y="302" text-anchor="start" dominant-baseline="alphabetic" fill-opacity="1">–0.2</text><text fill="rgb(0,0,0)" stroke="none" font-family="geogebra-sans-serif, sans-serif" font-size="12px" font-style="normal" font-weight="normal" text-decoration="normal" x="495" y="302" text-anchor="start" dominant-baseline="alphabetic" fill-opacity="1">0.2</text><text fill="rgb(0,0,0)" stroke="none" font-family="geogebra-sans-serif, sans-serif" font-size="12px" font-style="normal" font-weight="normal" text-decoration="normal" x="495" y="302" text-anchor="start" dominant-baseline="alphabetic" fill-opacity="1">0.2</text><text fill="rgb(0,0,0)" stroke="none" font-family="geogebra-sans-serif, sans-serif" font-size="12px" font-style="normal" font-weight="normal" text-decoration="normal" x="539" y="302" text-anchor="start" dominant-baseline="alphabetic" fill-opacity="1">0.4</text><text fill="rgb(0,0,0)" stroke="none" font-family="geogebra-sans-serif, sans-serif" font-size="12px" font-style="normal" font-weight="normal" text-decoration="normal" x="539" y="302" text-anchor="start" dominant-baseline="alphabetic" fill-opacity="1">0.4</text><text fill="rgb(0,0,0)" stroke="none" font-family="geogebra-sans-serif, sans-serif" font-size="12px" font-style="normal" font-weight="normal" text-decoration="normal" x="583" y="302" text-anchor="start" dominant-baseline="alphabetic" fill-opacity="1">0.6</text><text fill="rgb(0,0,0)" stroke="none" font-family="geogebra-sans-serif, sans-serif" font-size="12px" font-style="normal" font-weight="normal" text-decoration="normal" x="583" y="302" text-anchor="start" dominant-baseline="alphabetic" fill-opacity="1">0.6</text><text fill="rgb(0,0,0)" stroke="none" font-family="geogebra-sans-serif, sans-serif" font-size="12px" font-style="normal" font-weight="normal" text-decoration="normal" x="626" y="302" text-anchor="start" dominant-baseline="alphabetic" fill-opacity="1">0.8</text><text fill="rgb(0,0,0)" stroke="none" font-family="geogebra-sans-serif, sans-serif" font-size="12px" font-style="normal" font-weight="normal" text-decoration="normal" x="626" y="302" text-anchor="start" dominant-baseline="alphabetic" fill-opacity="1">0.8</text><text fill="rgb(0,0,0)" stroke="none" font-family="geogebra-sans-serif, sans-serif" font-size="12px" font-style="normal" font-weight="normal" text-decoration="normal" x="676" y="302" text-anchor="start" dominant-baseline="alphabetic" fill-opacity="1">1</text><text fill="rgb(0,0,0)" stroke="none" font-family="geogebra-sans-serif, sans-serif" font-size="12px" font-style="normal" font-weight="normal" text-decoration="normal" x="676" y="302" text-anchor="start" dominant-baseline="alphabetic" fill-opacity="1">1</text><text fill="rgb(0,0,0)" stroke="none" font-family="geogebra-sans-serif, sans-serif" font-size="12px" font-style="normal" font-weight="normal" text-decoration="normal" x="713" y="302" text-anchor="start" dominant-baseline="alphabetic" fill-opacity="1">1.2</text><text fill="rgb(0,0,0)" stroke="none" font-family="geogebra-sans-serif, sans-serif" font-size="12px" font-style="normal" font-weight="normal" text-decoration="normal" x="713" y="302" text-anchor="start" dominant-baseline="alphabetic" fill-opacity="1">1.2</text><text fill="rgb(0,0,0)" stroke="none" font-family="geogebra-sans-serif, sans-serif" font-size="12px" font-style="normal" font-weight="normal" text-decoration="normal" x="757" y="302" text-anchor="start" dominant-baseline="alphabetic" fill-opacity="1">1.4</text><text fill="rgb(0,0,0)" stroke="none" font-family="geogebra-sans-serif, sans-serif" font-size="12px" font-style="normal" font-weight="normal" text-decoration="normal" x="757" y="302" text-anchor="start" dominant-baseline="alphabetic" fill-opacity="1">1.4</text><text fill="rgb(0,0,0)" stroke="none" font-family="geogebra-sans-serif, sans-serif" font-size="12px" font-style="normal" font-weight="normal" text-decoration="normal" x="801" y="302" text-anchor="start" dominant-baseline="alphabetic" fill-opacity="1">1.6</text><text fill="rgb(0,0,0)" stroke="none" font-family="geogebra-sans-serif, sans-serif" font-size="12px" font-style="normal" font-weight="normal" text-decoration="normal" x="801" y="302" text-anchor="start" dominant-baseline="alphabetic" fill-opacity="1">1.6</text><text fill="rgb(0,0,0)" stroke="none" font-family="geogebra-sans-serif, sans-serif" font-size="12px" font-style="normal" font-weight="normal" text-decoration="normal" x="844" y="302" text-anchor="start" dominant-baseline="alphabetic" fill-opacity="1">1.8</text><text fill="rgb(0,0,0)" stroke="none" font-family="geogebra-sans-serif, sans-serif" font-size="12px" font-style="normal" font-weight="normal" text-decoration="normal" x="844" y="302" text-anchor="start" dominant-baseline="alphabetic" fill-opacity="1">1.8</text><text fill="rgb(0,0,0)" stroke="none" font-family="geogebra-sans-serif, sans-serif" font-size="12px" font-style="normal" font-weight="normal" text-decoration="normal" x="894" y="302" text-anchor="start" dominant-baseline="alphabetic" fill-opacity="1">2</text><text fill="rgb(0,0,0)" stroke="none" font-family="geogebra-sans-serif, sans-serif" font-size="12px" font-style="normal" font-weight="normal" text-decoration="normal" x="894" y="302" text-anchor="start" dominant-baseline="alphabetic" fill-opacity="1">2</text><text fill="rgb(0,0,0)" stroke="none" font-family="geogebra-sans-serif, sans-serif" font-size="12px" font-style="normal" font-weight="normal" text-decoration="normal" x="430" y="553" text-anchor="start" dominant-baseline="alphabetic" fill-opacity="1">–1.2</text><text fill="rgb(0,0,0)" stroke="none" font-family="geogebra-sans-serif, sans-serif" font-size="12px" font-style="normal" font-weight="normal" text-decoration="normal" x="430" y="553" text-anchor="start" dominant-baseline="alphabetic" fill-opacity="1">–1.2</text><text fill="rgb(0,0,0)" stroke="none" font-family="geogebra-sans-serif, sans-serif" font-size="12px" font-style="normal" font-weight="normal" text-decoration="normal" x="440" y="509" text-anchor="start" dominant-baseline="alphabetic" fill-opacity="1">–1</text><text fill="rgb(0,0,0)" stroke="none" font-family="geogebra-sans-serif, sans-serif" font-size="12px" font-style="normal" font-weight="normal" text-decoration="normal" x="440" y="509" text-anchor="start" dominant-baseline="alphabetic" fill-opacity="1">–1</text><text fill="rgb(0,0,0)" stroke="none" font-family="geogebra-sans-serif, sans-serif" font-size="12px" font-style="normal" font-weight="normal" text-decoration="normal" x="430" y="466" text-anchor="start" dominant-baseline="alphabetic" fill-opacity="1">–0.8</text><text fill="rgb(0,0,0)" stroke="none" font-family="geogebra-sans-serif, sans-serif" font-size="12px" font-style="normal" font-weight="normal" text-decoration="normal" x="430" y="466" text-anchor="start" dominant-baseline="alphabetic" fill-opacity="1">–0.8</text><text fill="rgb(0,0,0)" stroke="none" font-family="geogebra-sans-serif, sans-serif" font-size="12px" font-style="normal" font-weight="normal" text-decoration="normal" x="430" y="422" text-anchor="start" dominant-baseline="alphabetic" fill-opacity="1">–0.6</text><text fill="rgb(0,0,0)" stroke="none" font-family="geogebra-sans-serif, sans-serif" font-size="12px" font-style="normal" font-weight="normal" text-decoration="normal" x="430" y="422" text-anchor="start" dominant-baseline="alphabetic" fill-opacity="1">–0.6</text><text fill="rgb(0,0,0)" stroke="none" font-family="geogebra-sans-serif, sans-serif" font-size="12px" font-style="normal" font-weight="normal" text-decoration="normal" x="430" y="378" text-anchor="start" dominant-baseline="alphabetic" fill-opacity="1">–0.4</text><text fill="rgb(0,0,0)" stroke="none" font-family="geogebra-sans-serif, sans-serif" font-size="12px" font-style="normal" font-weight="normal" text-decoration="normal" x="430" y="378" text-anchor="start" dominant-baseline="alphabetic" fill-opacity="1">–0.4</text><text fill="rgb(0,0,0)" stroke="none" font-family="geogebra-sans-serif, sans-serif" font-size="12px" font-style="normal" font-weight="normal" text-decoration="normal" x="430" y="335" text-anchor="start" dominant-baseline="alphabetic" fill-opacity="1">–0.2</text><text fill="rgb(0,0,0)" stroke="none" font-family="geogebra-sans-serif, sans-serif" font-size="12px" font-style="normal" font-weight="normal" text-decoration="normal" x="430" y="335" text-anchor="start" dominant-baseline="alphabetic" fill-opacity="1">–0.2</text><text fill="rgb(0,0,0)" stroke="none" font-family="geogebra-sans-serif, sans-serif" font-size="12px" font-style="normal" font-weight="normal" text-decoration="normal" x="436" y="248" text-anchor="start" dominant-baseline="alphabetic" fill-opacity="1">0.2</text><text fill="rgb(0,0,0)" stroke="none" font-family="geogebra-sans-serif, sans-serif" font-size="12px" font-style="normal" font-weight="normal" text-decoration="normal" x="436" y="248" text-anchor="start" dominant-baseline="alphabetic" fill-opacity="1">0.2</text><text fill="rgb(0,0,0)" stroke="none" font-family="geogebra-sans-serif, sans-serif" font-size="12px" font-style="normal" font-weight="normal" text-decoration="normal" x="436" y="204" text-anchor="start" dominant-baseline="alphabetic" fill-opacity="1">0.4</text><text fill="rgb(0,0,0)" stroke="none" font-family="geogebra-sans-serif, sans-serif" font-size="12px" font-style="normal" font-weight="normal" text-decoration="normal" x="436" y="204" text-anchor="start" dominant-baseline="alphabetic" fill-opacity="1">0.4</text><text fill="rgb(0,0,0)" stroke="none" font-family="geogebra-sans-serif, sans-serif" font-size="12px" font-style="normal" font-weight="normal" text-decoration="normal" x="436" y="160" text-anchor="start" dominant-baseline="alphabetic" fill-opacity="1">0.6</text><text fill="rgb(0,0,0)" stroke="none" font-family="geogebra-sans-serif, sans-serif" font-size="12px" font-style="normal" font-weight="normal" text-decoration="normal" x="436" y="160" text-anchor="start" dominant-baseline="alphabetic" fill-opacity="1">0.6</text><text fill="rgb(0,0,0)" stroke="none" font-family="geogebra-sans-serif, sans-serif" font-size="12px" font-style="normal" font-weight="normal" text-decoration="normal" x="436" y="117" text-anchor="start" dominant-baseline="alphabetic" fill-opacity="1">0.8</text><text fill="rgb(0,0,0)" stroke="none" font-family="geogebra-sans-serif, sans-serif" font-size="12px" font-style="normal" font-weight="normal" text-decoration="normal" x="436" y="117" text-anchor="start" dominant-baseline="alphabetic" fill-opacity="1">0.8</text><text fill="rgb(0,0,0)" stroke="none" font-family="geogebra-sans-serif, sans-serif" font-size="12px" font-style="normal" font-weight="normal" text-decoration="normal" x="446" y="73" text-anchor="start" dominant-baseline="alphabetic" fill-opacity="1">1</text><text fill="rgb(0,0,0)" stroke="none" font-family="geogebra-sans-serif, sans-serif" font-size="12px" font-style="normal" font-weight="normal" text-decoration="normal" x="446" y="73" text-anchor="start" dominant-baseline="alphabetic" fill-opacity="1">1</text><text fill="rgb(0,0,0)" stroke="none" font-family="geogebra-sans-serif, sans-serif" font-size="12px" font-style="normal" font-weight="normal" text-decoration="normal" x="436" y="29" text-anchor="start" dominant-baseline="alphabetic" fill-opacity="1">1.2</text><text fill="rgb(0,0,0)" stroke="none" font-family="geogebra-sans-serif, sans-serif" font-size="12px" font-style="normal" font-weight="normal" text-decoration="normal" x="436" y="29" text-anchor="start" dominant-baseline="alphabetic" fill-opacity="1">1.2</text><text fill="rgb(0,0,0)" stroke="none" font-family="geogebra-sans-serif, sans-serif" font-size="12px" font-style="normal" font-weight="normal" text-decoration="normal" x="446" y="302" text-anchor="start" dominant-baseline="alphabetic" fill-opacity="1">0</text><text fill="rgb(0,0,0)" stroke="none" font-family="geogebra-sans-serif, sans-serif" font-size="12px" font-style="normal" font-weight="normal" text-decoration="normal" x="446" y="302" text-anchor="start" dominant-baseline="alphabetic" fill-opacity="1">0</text><path fill="none" stroke="rgb(0,0,0)" paint-order="fill stroke markers" d=" M 30.5 89.5 L 230.5 89.5" stroke-opacity="0.39215686274509803" stroke-linecap="round" stroke-linejoin="round" stroke-miterlimit="10" stroke-width="5"/><path fill="rgb(0,0,0)" stroke="none" paint-order="stroke fill markers" d=" M 160.42857142857144 89.5 C 160.42857142857144 94.19442037356174 156.62299180213319 98 151.92857142857144 98 C 147.2341510550097 98 143.42857142857144 94.19442037356174 143.42857142857144 89.5 C 143.42857142857144 84.80557962643826 147.2341510550097 81 151.92857142857144 81 C 156.62299180213319 81 160.42857142857144 84.80557962643826 160.42857142857144 89.5 Z" fill-opacity="0.39215686274509803"/><path fill="none" stroke="rgb(0,0,0)" paint-order="fill stroke markers" d=" M 160.42857142857144 89.5 C 160.42857142857144 94.19442037356174 156.62299180213319 98 151.92857142857144 98 C 147.2341510550097 98 143.42857142857144 94.19442037356174 143.42857142857144 89.5 C 143.42857142857144 84.80557962643826 147.2341510550097 81 151.92857142857144 81 C 156.62299180213319 81 160.42857142857144 84.80557962643826 160.42857142857144 89.5 Z" stroke-opacity="0.39215686274509803" stroke-linecap="round" stroke-linejoin="round" stroke-miterlimit="10"/><path fill="rgb(0,0,0)" stroke="none" paint-order="stroke fill markers" d=" M 157.42857142857144 89.5 C 157.42857142857144 92.53756612406936 154.96613755264082 95 151.92857142857144 95 C 148.89100530450207 95 146.42857142857144 92.53756612406936 146.42857142857144 89.5 C 146.42857142857144 86.46243387593064 148.89100530450207 84 151.92857142857144 84 C 154.96613755264082 84 157.42857142857144 86.46243387593064 157.42857142857144 89.5 Z" fill-opacity="1"/><path fill="none" stroke="rgb(0,0,0)" paint-order="fill stroke markers" d=" M 157.42857142857144 89.5 C 157.42857142857144 92.53756612406936 154.96613755264082 95 151.92857142857144 95 C 148.89100530450207 95 146.42857142857144 92.53756612406936 146.42857142857144 89.5 C 146.42857142857144 86.46243387593064 148.89100530450207 84 151.92857142857144 84 C 154.96613755264082 84 157.42857142857144 86.46243387593064 157.42857142857144 89.5 Z" stroke-opacity="1" stroke-linecap="round" stroke-linejoin="round" stroke-miterlimit="10"/><text fill="rgb(0,0,0)" stroke="none" font-family="geogebra-sans-serif, sans-serif" font-size="16px" font-style="normal" font-weight="normal" text-decoration="normal" x="140" y="74" text-anchor="start" dominant-baseline="alphabetic" fill-opacity="1">t = 1.5</text><text fill="rgb(0,0,0)" stroke="none" font-family="geogebra-sans-serif, sans-serif" font-size="16px" font-style="normal" font-weight="normal" text-decoration="normal" x="140" y="74" text-anchor="start" dominant-baseline="alphabetic" fill-opacity="1">t = 1.5</text><path fill="none" stroke="rgb(0,0,0)" paint-order="fill stroke markers" d=" M 338.5393472770023 418.7600703291025 L 339.158954390385 421.67174905250516 L 339.2144423135927 424.64812480075955 L 338.7048819718995 427.5811002678726 L 337.64977415023685 430.36477579618827 L 334.0769725592135 435.0941211484553 L 331.68893984721535 436.8716800908475 L 329.00972721138737 438.1695013870783 L 326.1348283688511 438.9425349399603 L 323.16608299417703 439.1645223560002 L 320.20802938933696 438.8287366478887 L 317.3642143068113 437.94802588329526 L 312.40709542212153 434.6965959394661 L 308.97236698868653 429.8643362614657 L 307.9806247230364 427.0572207908011 L 307.52231173629906 424.1155373535182 L 307.6119714529554 421.13969874513197 L 308.24547348326155 418.23067290886866 L 309.40034037319674 415.48656281348246 L 311.0366889918963 412.9993309437993 L 315.51685903032 409.1148597051117 L 318.20997924425365 407.8454638780511 L 321.0884378708031 407.08464931345367 L 324.0570053908893 406.85646047140506 L 327.01807565434535 407.1673082819475 L 329.8748851405978 408.0059399157402 L 332.5346588341384 409.3439859324891 L 336.9295006687262 413.3263403586094 L 338.5242799213745 415.8406475199863 L 339.6457312479076 418.59881851751715 L 340.2590740726239 421.5124193253875 L 340.345881967592 424.4886286641372 L 339.9044967772418 427.43322290398515 L 338.94990685610367 430.2535619295592 L 335.6399435896787 435.1760063447472 L 330.83243083534217 438.65123849497473 L 328.04799660740116 439.70621137093036 L 325.1222116753455 440.25931284174976 L 322.1447994201246 440.29469091573765 L 319.206485777645 439.81235826710883 L 316.3962342361496 438.82802376480765 L 313.79857513843154 437.3724512184456 L 309.54225107662273 433.23900247369033 L 308.0092942730073 430.68618937097085 L 306.93681894208476 427.9082939041361 L 306.35551343473793 424.98783409107017 L 306.28141857116907 422.010989080733 L 306.7156148015912 419.06503114444376 L 307.6443520547739 416.23576736315465 L 310.86006362822866 411.2484870806966 L 315.5530754161192 407.6163552362406 L 318.29004962969805 406.44301524049797 L 321.185121171813 405.74558543751056 L 324.15611324777535 405.5427386073561 L 327.11925410126696 405.83909956647375 L 329.99154642153144 406.6252693574793 L 332.6930785981217 407.87824277736564 L 337.2926013813751 411.6296355613636 L 339.0649490154581 414.0228088201116 L 340.41852675376174 416.6754326613552 L 341.3173515977191 419.5145859128727 L 341.73803571829137 422.4627706594377 L 341.6702788506554 425.4400627804249 L 341.11699906647317 428.36629437554336 L 340.0941056519252 431.1632086911627 L 338.62992740007184 433.75652953651024 L 334.5474730910516 438.0665870382546 L 332.0384835834145 439.67107197322673 L 329.3036900714668 440.8502219270497 L 326.41486408402886 441.5742825991546 L 323.44728074522163 441.82551483798574 L 320.47773047763616 441.5985157633491 L 317.58252345291316 440.90021632052776 L 314.83553844278424 439.7495609133954 L 312.30636532627597 438.1768860836455 L 308.1482406687811 433.93811563906775 L 306.6224965294698 431.38030580916313 L 305.51857821627794 428.61412828192135 L 304.8629515402807 425.708854689547 L 304.6707935802425 422.7367134880449 L 304.945750282091 419.77107128980253 L 305.6799825317954 416.8846159464178 L 306.854493399169 414.14758616277476 L 308.4397226545535 411.62609012575103 L 312.67654920076717 407.4643238238933 L 315.2248596650229 405.9224855695145 L 317.979979262327 404.7908704394813 L 320.8761032431137 404.0953218404778 L 323.8445732466636 403.8512020863784 L 326.81552712479765 404.06315668536047 L 329.71955216430626 404.72513464159357 L 332.4892971756283 405.82065878648615 L 335.06101074246567 407.32333441357196 L 339.3817675041164 411.39955277777284 L 341.03343542513346 413.8782598894416 L 342.2943753890221 416.57679847542954 L 343.13708456654274 419.43372050899075 L 343.54366548449434 422.3844724715743 L 343.506107474758 425.36288098908716 L 343.02634334848887 428.302649191078 L 342.1160848491242 431.13883000800956 L 340.7964395682737 433.8092440461893 L 337.05674435449487 438.42577262469126 L 332.13758311898823 441.75775655850583 L 329.3662173954983 442.8497796777672 L 326.4653375363283 443.52650662826113 L 323.49690551154356 443.77460997959724 L 320.5238388238944 443.5899326768581 L 317.60867491940644 442.9774592740116 L 314.81225570853354 441.95109488350965 L 312.1924827286812 440.533260761043 L 309.8031500247466 438.7543192537506 L 305.9042124224303 434.26975423481315 L 304.4727651853204 431.65733387513046 L 303.4266472593048 428.86815884729424 L 302.7859614981671 425.9589561514065 L 302.56250888403196 422.98841986760283 L 302.7596601866659 420.01600900116944 L 303.3723989235385 417.10075186944715 L 304.38753076516315 414.30008088638584 L 305.78405131699355 411.6687203131401 L 309.6014152118874 407.113148801074 L 314.5230432693859 403.78065303416065 L 317.28117713176584 402.65485992132176 L 320.16792998862803 401.9190291680868 L 323.1283322850085 401.58603772557996 L 326.10647119997395 401.66106812547275 L 329.0465548130668 402.14161462310034 L 331.8939540756729 403.0176338197149 L 334.5962032571158 404.271833860925 L 337.10394138707346 405.8800912853733 L 341.35907138066005 410.03146261592474 L 343.03059987002354 412.497524049346 L 344.3571285476575 415.1650814347794 L 345.3158514307417 417.9858021259572 L 345.8907114299187 420.9090237401731 L 346.0725929451946 423.8826883815693 L 345.85938667185314 426.85428370634236 L 345.2559296350416 429.77177366009505 L 344.27382370375864 432.58450363014254 L 342.93113838363786 435.24406203024773 L 341.2520076910762 437.70508786665073 L 337.008177201306 441.8696964337835 L 334.5171419306651 443.5040425307377 L 331.8356084573317 444.8024237867947 L 329.0089887576089 445.74407568254867 L 326.08472143228266 446.3143556024062 L 323.11145336636264 446.5048988666549 L 320.13821757869476 446.3136668459765 L 317.21362112296845 445.7448901181698 L 314.38505630419286 444.80890775553934 L 311.69794767275107 443.52191147112427 L 309.1950462732465 441.90559871420714 L 304.89567956977237 437.7966958350779 L 303.16585624095376 435.3708139593913 L 301.75259060234043 432.7478498044319 L 300.67698331364727 429.9692892463678 L 299.9547041450055 427.07866450566974 L 299.59582903725624 424.1208484193551 L 299.6047682258436 421.14134303713183 L 299.98028288400815 418.18557018821207 L 300.7155885319154 415.2981841698222 L 301.79854100728534 412.52240424972666 L 303.2118999769312 409.8993860918199 L 306.9374694312033 405.26248250627697 L 311.6667277671566 401.65457504806113 L 314.32198233411515 400.3026258901397 L 317.120000063423 399.27826957306075 L 320.0202816976579 398.5951577878823 L 322.98124677848887 398.26195057811606 L 325.96084308663166 398.28226985302564 L 328.91714970919367 398.6547262367443 L 331.80896521162504 399.37301661661303 L 334.59637289487796 400.42608904302875 L 337.2412757151089 401.7983707771994 L 339.70789413050073 403.4700544858565 L 343.9774276380408 407.6133042042595 L 345.72421890607984 410.0273560042948 L 347.18113026999583 412.6266634169476 L 348.32976794869467 415.3761515410406 L 349.15598833825334 418.2391005165735 L 349.65001670578806 421.1776573462723 L 349.8065051727832 424.1533513364501 L 349.62453093818027 427.1276061387607 L 349.1075364725169 430.0622416620771 L 348.2632141363639 432.91995949273155 L 347.10333834153744 435.66480590294793 L 345.64354896262955 438.2626070319755 L 343.90309022718736 440.6813713822787 L 339.6733227505302 444.8668883346053 L 337.2376467206282 446.5836539565739 L 334.62781210652633 448.0219259252592 L 331.8759545720976 449.16525609027804 L 329.01559447782995 450.00091421976424 L 326.08120927503467 450.51997902398284 L 323.1078042332363 450.71738077571285 L 320.1304868716437 450.59189642734975 L 317.18405017945173 450.14609871375575 L 314.30256942110236 449.3862612273259 L 311.5190169888464 448.3222219423225 L 308.8648993763339 446.9672080630736 L 306.3699199319673 445.3376254636366 L 301.96535541918854 441.3347884608786 L 298.49598470011347 436.49865133660944 L 297.1593951759381 433.8351419902666 L 296.10737034988716 431.04694273450644 L 295.3502689325265 428.1646404812857 L 294.8951618805447 425.2195082719844 L 294.7458143969604 422.2431550372096 L 294.90270448057953 419.2671802937159 L 295.36307667495197 416.32283745718627 L 296.1210293188608 413.4407096485114 L 297.1676332872732 410.6503996866006 L 298.4910799343535 407.9802396497567 L 301.90794075387805 403.1057428736309 L 306.2267634024204 399.00876856542527 L 308.66999365326217 397.30226076664434 L 311.2700356855031 395.84576525078546 L 314.0009474734394 394.65254556319366 L 316.8358073930906 393.7331566165123 L 319.7469957285158 393.09539217272095 L 322.70647574160995 392.7442610485624 L 325.68607159484884 392.68199134337647 L 328.65774041820976 392.908061725056 L 331.5938351980906 393.4192585687799 L 334.46735921407674 394.20975752588913 L 337.252204373433 395.2712279079211 L 339.92337715878796 396.59295810421986 L 344.83153784568213 399.96333113707493 L 349.0216535933882 404.1934672471276 L 352.352758826402 409.12869887213503 L 353.6610913700034 411.80652713774134 L 354.71693764563696 414.59359334063515 L 355.51237380430837 417.4658540573879 L 356.04177216326104 420.39883690044087 L 356.301803185311 423.3678578399306 L 356.2914174178135 426.3482343081703 L 356.0118082431156 429.31549239331133 L 355.46635645614026 432.2455664673432 L 354.6605577845941 435.11498973140544 L 353.60193459289036 437.90107439687233 L 352.2999330960544 440.58208021157685 L 350.76580748547315 443.13737036473185 L 347.05446542582575 447.79461347067985 L 342.58901542836384 451.73482616533784 L 340.1169118207996 453.3997571443055 L 337.5104133980875 454.8452691419981 L 334.78940006570235 456.06160507631813 L 331.97434157114577 457.0408283420643 L 329.08613135013866 457.77684634524235 L 326.14592199945105 458.26541363694116 L 323.17496362715553 458.5041213825799 L 320.1944462777999 458.49238018726487 L 317.22534746714155 458.2313818370799 L 314.2882859019169 457.72405216091397 L 311.40338223299227 456.97499221484713 L 308.5901276735397 455.9904087999337 L 305.8672611874038 454.77803536591205 L 303.2526558524104 453.3470442657329 L 298.41477796764553 449.87251391780075 L 294.19846603691644 445.6651910896404 L 290.7062589959766 440.8397629099234 L 289.2579641518266 438.2346429425159 L 288.0194492852346 435.52349326081253 L 286.99737085086315 432.7235556246294 L 286.1969525866949 429.85237660171094 L 285.6219860295935 426.9276894571402 L 285.2748402902529 423.9672985845457 L 285.1564811494317 420.98896717775904 L 285.26649721916397 418.01030878535835 L 285.60313686719564 415.04868333233605 L 286.1633497573338 412.1210981335446 L 286.9428369795315 409.244114363167 L 287.9361052241643 406.43375938375414 L 289.1365300275507 403.70544527788144 L 290.53642197810905 401.073893865666 L 293.89894328406257 396.15611233558593 L 297.9435958733432 391.78196254726265 L 302.57810756521053 388.0383016478862 L 305.08503058418256 386.42573131577893 L 307.7006158436716 384.9961178309085 L 310.41107139023836 383.75573440502967 L 313.2023376836971 382.7097937087293 L 316.0601695531641 381.8624476080362 L 318.970215442617 381.21679284356276 L 321.91809448080335 380.7748823647224 L 324.8894710108988 380.53774206000634 L 327.8701262496011 380.5053922522202 L 330.846026779953 380.67687437439633 L 333.8033896168509 381.05028180914104 L 336.7287436186674 381.6227931578431 L 339.60898705244875 382.39071263836126 L 342.4314411535456 383.3495100571195 L 345.1838995530841 384.49386545174764 L 347.85467347821475 385.8177156596066 L 350.43263266044073 387.31430396865926 L 352.9072419163627 388.976229024013 L 357.50743449433156 392.7635807849475 L 361.5839891847113 397.10968771002763 L 365.0767846909074 401.937570131212 L 366.5886414505284 404.5066599880973 L 367.9372679438221 407.16507648245823 L 369.1184319249006 409.9020188845172 L 370.12863389224196 412.70657379834887 L 370.9651003853356 415.56776133063374 L 371.62577425653933 418.47458332821526 L 372.10930205723974 421.4160691002129 L 372.41501873564613 424.3813192371256 L 372.5429298476834 427.3595473982406 L 372.4936914851487 430.34011995652907 L 372.26858812664227 433.3125934076637 L 371.86950861685045 436.266749466757 L 371.2989204786277 439.19262779280507 L 370.559842760091 442.0805562965794 L 369.65581737257907 444.92117900277725 L 368.5908806007 447.7054814515594 L 367.3695311860424 450.4248136381615 L 365.9967003181486 453.070910501993 L 364.4777197715131 455.6359099885501 L 362.8182879536961 458.1123687947812 L 359.10253329276094 462.7720595402808 L 354.9011893382768 466.9992627357284 L 350.26986322191635 470.75057052567075 L 347.81114147718927 472.43623133990604 L 345.2670179810538 473.9900105608464 L 342.6450898429648 475.40857183541874 L 339.95301577897453 476.689036318818 L 337.1984891741954 477.82897659787614 L 334.3892121731161 478.8264091889353 L 331.53287085493037 479.6797864147533 L 328.63711154273744 480.38798285418636 L 325.70951828743995 480.9502911969645 L 322.75759155943916 481.3664030574872 L 319.78872817381045 481.63639939738727 L 316.81020246756 481.7607359273187 L 313.829148740846 481.7402284951945 L 310.85254496768505 481.57603785460356 L 307.8871977756793 481.2696539057999 L 304.9397286886983 480.82287949865474 L 302.0165616212359 480.2378138837086 L 299.1239116083234 479.5168358940009 L 296.267774750444 478.66258693671193 L 293.4539193488272 477.67795386986205 L 290.68787820281455 476.56605183540864 L 287.97494203767917 475.3302071160834 L 285.32015402832695 473.9739400792563 L 282.7283053817051 472.5009482670192 L 277.7513117526927 469.2203663588932 L 273.0771463661031 465.5209569740472 L 268.7348434830142 461.4370113413836 L 264.74930793530484 457.0041296369574 L 261.1413759975412 452.2587627394528 L 259.4844403410152 449.780415211 L 257.9279379362959 447.2377857563383 L 256.47338629034334 444.635485689761 L 255.1220752564449 441.97810575886786 L 253.8750765718271 439.27020586390324 L 252.73324361420606 436.5163053559904 L 251.69722457509346 433.72087391483797 L 250.76746812258145 430.8883230042512 L 249.94422746613847 428.02299790168826 L 249.22757177350715 425.129170296167 L 248.61739186705333 422.21103144704784 L 248.11340839372653 419.2726858945826 L 247.71517969419443 416.3181457116334 L 247.42210973268374 413.351325284625 L 247.23345605890836 410.37603676411237 L 247.1483377751149 407.3959852306642 L 247.16574348292116 404.4147659603078 L 247.28453918626337 401.4358605062061 L 247.5034761283907 398.4626340835391 L 247.8211985424472 395.4983332168173 L 248.236251296756 392.54608380629736 L 248.74708741746548 389.60888953822086 L 249.35207547271975 386.68963097195626 L 250.04950680398653 383.7910643848085 L 250.83760259159385 380.91582158761514 L 251.71452074290474 378.06640974419065 L 252.6783625928845 375.245211565575 L 253.72717940808948 372.4544857938214 L 254.8589786863288 369.6963679569841 L 256.07173024541646 366.9728713772046 L 257.36337209554335 364.28588841408475 L 258.7318160908551 361.63719192587257 L 260.17495335681997 359.028436931367 L 261.69065949091413 356.4611624558626 L 263.2767995350388 353.936793550206 L 264.9312327189143 351.45664343439216 L 268.4364132219865 346.6337073837976 L 272.1891244484412 342.00071433093586 L 276.1724621767262 337.5643941051656 L 280.36980666725793 333.3299339207881 L 284.76492101850664 329.3010696108471 L 289.34203629302147 325.48017910325706 L 294.0859240184239 321.86837688972895 L 298.9819567510117 318.46560835654134 L 301.4826331271329 316.8422979520219 L 304.01615743493466 315.2707429970616 L 306.5808905482622 313.75064904217976 L 309.1752383210256 312.28166565832913 L 311.7976522867067 310.86338913143254 L 314.4466302265761 309.4953651012051 L 317.12071661077385 308.17709114065514 L 319.81850291904396 306.90801927306035 L 322.53862784689295 305.6875584235982 L 325.279777402989 304.51507680317746 L 328.0406849035047 303.38990422236606 L 330.8201308689853 302.31133433364374 L 333.6169428291928 301.27862680052317 L 336.4299950412334 300.29100939238276 L 339.25820812612795 299.3476800041361 L 342.1005486288277 298.4478086001306 L 344.9560285065149 297.59053908191765 L 347.8237045498637 296.7749910797739 L 350.7026777417617 296.00026166807174 L 353.5920925578234 295.265427004806 L 356.4911362128464 294.56954389577413 L 359.39903785718843 293.9116512840876 L 362.3150677268607 293.2907716658581 L 365.2385362509592 292.70591243305535 L 368.168793119876 292.15606714467657 L 371.105226317556 291.64021672749647 L 374.04726112089406 291.1573306077886 L 376.99435906918904 290.70636777551726 L 379.94601690640866 290.28627778259965 L 382.90176549884774 289.8960016769289 L 385.86116873060223 289.5344728739317 L 388.823822379121 289.200617967507 L 391.78935297294396 288.89335748226057 L 394.75741663358224 288.61160656900955 L 397.7276979033531 288.3542756455837 L 400.699908560838 288.1202709849987 L 403.67378642549977 287.908495253116 L 406.6490941528598 287.71784799794364 L 409.62561802151504 287.5472260927606 L 412.60316671315127 287.3955241352771 L 415.5815700865959 287.2616348050662 L 418.56067794684583 287.14444918152145 L 421.5403588099009 287.0428570246137 L 424.52049866413836 286.9557470207322 L 427.5009997288713 286.88200699590965 L 430.4817792106494 286.82052409873717 L 433.46276805778126 286.770184955285 L 436.4439097134838 286.7298757983506 L 439.425158867997 286.6984825733589 L 442.4064802099431 286.6748910232445 L 445.38784717715066 286.6579867546484 L 448.3692407071194 286.6466552877608 L 451.35064798725494 286.63978209214747 L 454.3320612049694 286.6362526108938 L 457.3134762977096 286.63495227540227 L 460.29489170295415 286.63476651318126 L 463.2763071081987 286.63458075096025 L 466.2577222009389 286.63328041546873 L 469.23913541865335 286.62975093421505 L 472.2205426987889 286.62287773860174 L 475.20193622875763 286.61154627171413 L 478.1833031959652 286.594642003118 L 481.16462453791127 286.57105045300364 L 484.1458736924245 286.53965722801195 L 487.12701534812703 286.4993480710775 L 490.1080041952589 286.44900892762536 L 493.088783677037 286.3875260304529 L 496.06928474176993 286.31378600563033 L 499.0494245960073 286.22667600174884 L 502.02910545906246 286.1250838448411 L 505.0082133193124 286.00789822129633 L 507.986616692757 285.8740088910854 L 510.96416538439325 285.72230693360194 L 513.9406892530485 285.5516850284189 L 516.9159969804085 285.36103777324655 L 519.8898748450703 285.14926204136384 L 522.8620855025553 284.9152573807788 L 525.832366772326 284.65792645735297 L 528.8004304329644 284.37617554410195 L 531.7659610267873 284.0689150588555 L 534.7286146753061 283.73506015243083 L 537.6880179070606 283.3735313494336 L 540.6437664994996 282.98325524376287 L 543.5954243367192 282.56316525084526 L 546.5425222850142 282.11220241857393 L 549.4845570883523 281.62931629886606 L 552.4209902860323 281.11346588168595 L 555.3512471549491 280.5636205933072 L 558.2747156790476 279.97876136050445 L 561.1907455487199 279.3578817422749 L 564.0986471930619 278.6999891305884 L 566.9976908480849 278.00410602155654 L 569.8871056641466 277.2692713582908 L 572.7660788560446 276.49454194658864 L 575.6337548993934 275.67899394444487 L 578.4892347770806 274.8217244262319 L 581.3315752797803 273.92185302222634 L 584.1597883646749 272.97852363397976 L 586.9728405767155 271.99090622583935 L 589.769652536923 270.9581986927188 L 592.5490985024036 269.87962880399647 L 595.3100060029193 268.75445622318506 L 598.0511555590153 267.5819746027643 L 600.7712804868644 266.3615137533022 L 603.4690667951345 265.0924418857074 L 606.1431531793322 263.7741679251574 L 608.7921311192016 262.40614389493 L 611.4145450848828 260.9878673680334 L 614.0088928576461 259.51888398418276 L 616.5736259709736 257.99879002930095 L 619.1071502787754 256.4272350743406 L 621.6078266548966 254.8039246698212 L 626.5038593874845 251.40115613663357 L 631.2477471128868 247.78935392310544 L 635.8248623874017 243.96846341551543 L 640.2199767386503 239.93959910557442 L 644.4173212291821 235.70513892119692 L 648.4006589574672 231.26881869542666 L 652.1533701839218 226.6358256425649 L 655.658550686994 221.81288959197036 L 657.3129838708695 219.33273947615652 L 658.8991239149941 216.8083705704999 L 660.4148300490883 214.24109609499553 L 661.8579673150532 211.63234110048995 L 663.2264113103649 208.98364461227777 L 664.5180531604918 206.2966616491579 L 665.7308047195794 203.57316506937843 L 666.8626039978188 200.81504723254113 L 667.9114208130238 198.0243214607875 L 668.8752626630035 195.20312328217187 L 669.7521808143144 192.3537114387474 L 670.5402766019217 189.478468641554 L 671.2377079331886 186.5799020544062 L 671.8426959884429 183.66064348814163 L 672.3535321091522 180.72344922006516 L 672.7685848634611 177.7711998095452 L 673.0863072775176 174.80689894282335 L 673.3052442196449 171.83367252015643 L 673.424039922987 168.8547670660547 L 673.4414456307934 165.87354779569836 L 673.3563273469999 162.89349626225015 L 673.1676736732246 159.91820774173755 L 672.8746037117139 156.95138731472915 L 672.4763750121817 153.99684713177993 L 671.9723915388549 151.05850157931465 L 671.3622116324011 148.14036273019556 L 670.6455559397698 145.24653512467427 L 669.8223152833268 142.38121002211128 L 668.8925588308149 139.54865911152461 L 667.8565397917023 136.75322767037213 L 666.7147068340812 133.99932716245922 L 665.4677081494634 131.29142726749473 L 664.116397115565 128.63404733660155 L 662.6618454696124 126.03174727002417 L 661.1053430648931 123.48911781536253 L 659.4484074083671 121.01077028690972 L 655.8404754706035 116.2654033894051 L 651.8549399228941 111.83252168497893 L 647.5126370398052 107.74857605231534 L 642.8384716532155 104.04916666746928 L 637.8614780242033 100.76858475934333 L 635.2696293775813 99.29559294710623 L 632.6148413682291 97.9393259102792 L 629.9019052030937 96.70348119095385 L 627.135864057081 95.59157915650044 L 624.3220086554643 94.60694608965053 L 621.465871797585 93.75269713236156 L 618.5732217846723 93.03171914265394 L 615.65005471721 92.44665352770781 L 612.7025856302291 91.99987912056272 L 609.7372384382232 91.69349517175905 L 606.7606346650624 91.52930453116804 L 603.7795809383484 91.50879709904382 L 600.8010552320977 91.63313362897526 L 597.8321918464691 91.9031299688753 L 594.8802651184684 92.31924182939801 L 591.9526718631708 92.88155017217619 L 589.0569125509779 93.58974661160923 L 586.2005712327923 94.44312383742715 L 583.3912942317128 95.44055642848639 L 580.6367676269338 96.58049670754454 L 577.9446935629436 97.86096119094373 L 575.3227654248544 99.27952246551618 L 572.7786419287191 100.83330168645654 L 570.3199201839919 102.51896250069171 L 565.6885940676315 106.27027029063419 L 561.4872501131473 110.49747348608184 L 557.7714954522122 115.15716423158128 L 556.1120636343952 117.63362303781241 L 554.5930830877596 120.19862252436948 L 553.2202522198659 122.84471938820104 L 551.9989028052082 125.56405157480305 L 550.9339660333292 128.3483540235853 L 550.0299406458173 131.1889767297831 L 549.2908629272806 134.07690523355745 L 548.7202747890578 137.00278355960546 L 548.3211952792659 139.9569396186988 L 548.0960919207597 142.9294130698335 L 548.0468535582248 145.9099856281219 L 548.1747646702622 148.88821378923697 L 548.4804813486686 151.85346392614963 L 548.964009149369 154.79494969814726 L 549.6246830205728 157.7017716957288 L 550.4611495136663 160.56295922801365 L 551.4713514810077 163.36751414184533 L 552.6525154620861 166.10445654390435 L 554.0011419553799 168.7628730382653 L 555.5129987150009 171.33196289515058 L 559.005794221197 176.15984531633492 L 563.0823489115767 180.505952241415 L 567.6825414895455 184.29330400234954 L 570.1571507454677 185.95522905770326 L 572.7351099276935 187.451817366756 L 575.4058838528242 188.77566757461489 L 578.1583422523627 189.92002296924295 L 580.9807963534595 190.87882038800126 L 583.8610397872409 191.64673986851943 L 586.7863937890573 192.2192512172215 L 589.7437566259553 192.59265865196613 L 592.7196571563071 192.76414077414233 L 595.7003123950094 192.73179096635621 L 598.671688925105 192.49465066164015 L 601.6195679632914 192.05274018279974 L 604.5296138527442 191.4070854183263 L 607.3874457222112 190.55973931763327 L 610.1787120156699 189.51379862133282 L 612.8891675622367 188.2734151954541 L 615.5047528217257 186.8438017105836 L 618.0116758406978 185.2312313784763 L 622.646187532565 181.48757047910004 L 626.6908401218458 177.1134206907766 L 630.0533614277991 172.19563916069654 L 631.4532533783577 169.56408774848103 L 632.6536781817441 166.83577364260844 L 633.6469464263768 164.02541866319544 L 634.4264336485745 161.14843489281787 L 634.9866465387125 158.22084969402647 L 635.3232861867443 155.25922424100415 L 635.4333022564766 152.28056584860363 L 635.3149431156555 149.30223444181686 L 634.9677973763148 146.34184356922225 L 634.3928308192135 143.41715642465155 L 633.5924125550451 140.54597740173307 L 632.5703341206737 137.74603976554997 L 631.3318192540817 135.0348900838466 L 629.8835244099316 132.42977011643902 L 626.3913173689918 127.60434193672216 L 622.1750054382628 123.39701910856178 L 617.337127553498 119.92248876062962 L 614.7225222185041 118.4914976604505 L 611.9996557323685 117.27912422642896 L 609.1864011729164 116.29454081151545 L 606.3014975039915 115.5454808654485 L 603.3644359387666 115.03815118928262 L 600.3953371281087 114.77715283909765 L 597.4148197787526 114.76541164378273 L 594.4438614064571 115.00411938942145 L 591.5036520557696 115.49268668112023 L 588.6154418347625 116.22870468429818 L 585.8003833402059 117.2079279500444 L 583.0793700078208 118.4242638843645 L 580.4728715851086 119.86977588205696 L 578.0007679775445 121.53470686102463 L 573.5353179800825 125.47491955568267 L 569.8239759204351 130.1321626616308 L 568.2898503098539 132.68745281478573 L 566.9878488130176 135.3684586294902 L 565.9292256213146 138.15454329495708 L 565.1234269497679 141.0239665590193 L 564.577975162793 143.9540406330511 L 564.2983659880945 146.92129871819262 L 564.2879802205975 149.90167518643185 L 564.5480112426474 152.87069612592185 L 565.0774096015998 155.8036789689746 L 565.8728457602714 158.67593968572737 L 566.928692035905 161.46300588862115 L 568.2370245795063 164.14083415422743 L 571.5681298125202 169.076065779235 L 575.7582455602263 173.3062018892876 L 580.6664062471202 176.67657492214266 L 583.3375790324753 177.99830511844146 L 586.1224241918317 179.0597755004734 L 588.9959482078177 179.8502744575826 L 591.9320429876985 180.3614713013065 L 594.9037118110595 180.58754168298597 L 597.8833076642984 180.52527197780017 L 600.8427876773925 180.17414085364166 L 603.7539760128177 179.53637640985033 L 606.5888359324689 178.6169874631688 L 609.3197477204051 177.42376777557695 L 611.9197897526461 175.96727225971813 L 614.3630200034881 174.26076446093734 L 618.6818426520304 170.16379015273156 L 622.0987034715548 165.28929337660577 L 623.4221501186352 162.61913333976187 L 624.4687540870473 159.82882337785114 L 625.2267067309563 156.94669556917623 L 625.6870789253288 154.00235273264687 L 625.8439690089475 151.02637798915305 L 625.6946215253636 148.0500247543781 L 625.2395144733819 145.1048925450771 L 624.482413056021 142.22259029185597 L 623.4303882299702 139.43439103609592 L 622.0937987057952 136.77088168975305 L 618.6244279867196 131.93474456548373 L 614.2198634739416 127.93190756272591 L 611.7248840295745 126.30232496328907 L 609.0707664170623 124.94731108404008 L 606.2872139848055 123.88327179903666 L 603.4057332264564 123.12343431260672 L 600.4592965342649 122.67763659901277 L 597.4819791726716 122.55215225064961 L 594.5085741308742 122.74955400237971 L 591.5741889280785 123.26861880659843 L 588.7138288338114 124.10427693608474 L 585.9619712993825 125.24760710110328 L 583.3521366852796 126.6858790697888 L 580.9164606553777 128.40264469175725 L 576.6866931787215 132.5881616440839 L 574.9462344432787 135.00692599438676 L 573.486445064371 137.60472712341473 L 572.3265692695439 140.34957353363134 L 571.4822469333918 143.20729136428514 L 570.9652524677283 146.14192688760193 L 570.7832782331258 149.11618168991285 L 570.9397667001205 152.09187568009006 L 571.4337950676548 155.03043250978908 L 572.2600154572134 157.89338148532207 L 573.4086531359126 160.64286960941462 L 574.8655644998288 163.2421770220678 L 576.6123557678671 165.65622882210292 L 580.8818892754077 169.79947854050596 L 583.3485076907992 171.4711622491629 L 585.9934105110303 172.8434439833341 L 588.7808181942829 173.89651640974932 L 591.6726336967146 174.61480678961817 L 594.6289403192764 174.987263173337 L 597.6085366274194 175.0075824482464 L 600.5695017082508 174.67437523848025 L 603.4697833424854 173.99126345330177 L 606.2678010717931 172.9669071362228 L 608.9230556387517 171.6149579783014 L 613.652313974705 168.00705052008558 L 617.3778834289774 163.37014693454375 L 618.7912423986234 160.74712877663615 L 619.8741948739932 157.97134885654103 L 620.6095005219006 155.08396283815193 L 620.9850151800647 152.1281899892307 L 620.9939543686526 149.14868460700754 L 620.6350792609023 146.19086852069296 L 619.9128000922608 143.30024377999467 L 618.8371928035676 140.52168322193066 L 617.4239271649549 137.89871906697164 L 615.6941038361359 135.4728371912846 L 611.3947371326618 131.36393431215532 L 608.8918357331572 129.74762155523786 L 606.2047271017154 128.46062527082316 L 603.37616228294 127.5246429081927 L 600.4515658272127 126.95586618038607 L 597.478330039547 126.76463415970758 L 594.505061973626 126.95517742395634 L 591.5807946482994 127.52545734381411 L 588.7541749485764 128.46710923956772 L 586.0726414752427 129.7654904956248 L 583.5816062046028 131.39983659257908 L 579.3377757148317 135.56444515971177 L 577.6586450222709 138.02547099611488 L 576.3159597021491 140.6850293962202 L 575.333853770866 143.49775936626716 L 574.730396734055 146.41524932002017 L 574.5171904607137 149.38684464479337 L 574.6990719759895 152.36050928618982 L 575.273931975167 155.2837309004052 L 576.2326548582507 158.1044515915834 L 577.5591835358845 160.77200897701624 L 579.2307120252477 163.23807041043813 L 583.4858420188348 167.38944174098947 L 585.9935801487925 168.9976991654372 L 588.6958293302354 170.25189920664738 L 591.5432285928416 171.12791840326224 L 594.4833122059343 171.60846490088966 L 597.4614511208998 171.68349530078262 L 600.4218534172801 171.3505038582756 L 603.3086062741427 170.61467310504077 L 606.0667401365221 169.4888799922022 L 610.9883681940212 166.15638422528863 L 614.8057320889149 161.6008127132223 L 616.2022526407453 158.96945213997654 L 617.2173844823697 156.16878115691512 L 617.8301232192425 153.2535240251927 L 618.0272745218766 150.2811131587597 L 617.8038219077418 147.31057687495576 L 617.1631361466035 144.40137417906845 L 616.1170182205881 141.61219915123203 L 614.6855709834779 138.9997787915495 L 610.7866333811618 134.51521377261187 L 608.3973006772266 132.7362722653196 L 605.7775276973755 131.3184381428531 L 602.9811084865025 130.29207375235094 L 600.0659445820132 129.6796003495047 L 597.0928778943639 129.49492304676497 L 594.1244458695815 129.7430263981013 L 591.2235660104118 130.41975334859572 L 588.4522002869185 131.51177646785624 L 583.5330390514139 134.8437604016719 L 579.793343837634 139.46028898017414 L 578.4736985567848 142.13070301835185 L 577.56344005742 144.9668838352849 L 577.0836759311507 147.90665203727556 L 577.046117921414 150.88506055478786 L 577.4526988393657 153.83581251737397 L 578.2954080168861 156.69273455093293 L 579.556347980775 159.3912731369209 L 581.2080159017919 161.8699802485896 L 585.5287726634431 165.9461986127898 L 588.1004862302798 167.4488742398758 L 590.8702312416019 168.54439838476918 L 593.7742562811113 169.20637634100228 L 596.7452101592447 169.41833093998346 L 599.7136801627943 169.1742111858864 L 602.6098041435807 168.47866258688026 L 605.3649237408847 167.34704745684996 L 607.9132342051412 165.8052092024713 L 612.1500607513547 161.64344290060987 L 613.7352900067389 159.12194686358782 L 614.909800874113 156.3849170799445 L 615.644033123817 153.4984617365601 L 615.9189898256658 150.53281953831763 L 615.7268318656274 147.5606783368157 L 615.0712051896319 144.65540474444117 L 613.9672868764391 141.88922721719933 L 612.4415427371272 139.33141738729466 L 608.2834180796291 135.09264694271675 L 605.7542449631255 133.51997211296717 L 603.0072599529948 132.36931670583485 L 600.1120529282721 131.67101726301354 L 597.1425026606867 131.4440181883768 L 594.1749193218795 131.69525042720775 L 591.2860933344414 132.4193110993128 L 588.5512998224938 133.59846105313719 L 586.0423103148566 135.2029459881066 L 581.9598560058367 139.51300348985373 L 580.4956777539833 142.1063243351976 L 579.4727843394347 144.90323865082104 L 578.9195045552526 147.82947024593648 L 578.8517476876169 150.80676236692358 L 579.2724318081895 153.75494711349225 L 580.1712566521469 156.59410036500887 L 581.52483439045 159.24672420625177 L 583.2971820245343 161.63989746499772 L 587.8967048077865 165.3912902489961 L 590.5982369843774 166.6442636688834 L 593.4705293046434 167.43043345988912 L 596.4336701581327 167.7267944190061 L 599.4046622340952 167.52394758885237 L 602.29973377621 166.8265177858645 L 605.036707989786 165.65317779012193 L 609.7297197776771 162.02104594566603 L 612.9454313511357 157.03376566320782 L 613.8741686043172 154.20450188191862 L 614.3083648347392 151.25854394562919 L 614.2342699711702 148.28169893529244 L 613.6529644638234 145.36123912222652 L 612.5804891329008 142.5833436553948 L 611.0475323292854 140.03053055267011 L 606.7912082674767 135.89708180791504 L 604.1935491697583 134.44150926155672 L 601.3832976282639 133.45717475925483 L 598.4449839857843 132.97484211062616 L 595.4675717305633 133.01022018461407 L 592.5417867985076 133.56332165543301 L 589.757352570566 134.61829453138822 L 584.9498398162293 138.0935266816155 L 581.6398765498052 143.01597109680324 L 580.6852866286664 145.83631012237737 L 580.243901438316 148.78090436222539 L 580.3307093332846 151.75711370097528 L 580.9440521580008 154.67071450884552 L 582.0655034845335 157.428885506376 L 583.6602827371823 159.94319266775312 L 588.0551245717703 163.92554709387355 L 590.7148982653105 165.26359311062208 L 593.5717077515626 166.10222474441576 L 596.532778015019 166.4130725549569 L 599.5013455351061 166.1848837129088 L 602.379804161655 165.42406914831247 L 605.0729243755882 164.15467332124982 L 609.5530944140119 160.27020208256462 L 611.189443032712 157.7829702128797 L 612.3443099226467 155.0388601174942 L 612.9778119529528 152.12983428123107 L 613.0674716696079 149.15399567284447 L 612.6091586828726 146.21231223556137 L 611.6174164172219 143.4051967648962 L 608.182687983785 138.57293708689807 L 603.2255690990955 135.32150714306644 L 600.3817540165705 134.44079637847344 L 597.4237004117292 134.10501067036424 L 594.4549550370556 134.32699808640092 L 591.5800561945218 135.10003163928425 L 588.9008435586923 136.3978529355131 L 586.5128108466947 138.17541187790798 L 582.9400092556705 142.9047572301735 L 581.8849014340097 145.68843275849358 L 581.3753410923157 148.62140822559937 L 581.4308290155235 151.59778397385455 L 581.6709834664722 153.06844527800305 L 581.8434762047729 153.7934920206795 L 581.9954884833937 154.33141111715204 M 338.5393472770023 418.7600703291025 L 338.5394472770023 418.7600703291025" stroke-opacity="0.6980392156862745" stroke-linecap="round" stroke-linejoin="round" stroke-miterlimit="10" stroke-width="2.5"/><text fill="rgb(0,0,0)" stroke="none" font-family="geogebra-sans-serif, sans-serif" font-size="16px" font-style="normal" font-weight="normal" text-decoration="normal" x="240" y="491" text-anchor="start" dominant-baseline="alphabetic" fill-opacity="1">Euler</text><text fill="rgb(0,0,0)" stroke="none" font-family="geogebra-sans-serif, sans-serif" font-size="16px" font-style="normal" font-weight="normal" text-decoration="normal" x="240" y="491" text-anchor="start" dominant-baseline="alphabetic" fill-opacity="1">Euler</text><path fill="rgb(97,97,97)" stroke="none" paint-order="stroke fill markers" d=" M 661.379449132824 116.92503856465441 C 661.379449132824 119.68646231380838 659.140872881978 121.92503856465441 656.379449132824 121.92503856465441 C 653.61802538367 121.92503856465441 651.379449132824 119.68646231380838 651.379449132824 116.92503856465441 C 651.379449132824 114.16361481550045 653.61802538367 111.92503856465441 656.379449132824 111.92503856465441 C 659.140872881978 111.92503856465441 661.379449132824 114.16361481550045 661.379449132824 116.92503856465441 Z" fill-opacity="1"/><path fill="none" stroke="rgb(0,0,0)" paint-order="fill stroke markers" d=" M 661.379449132824 116.92503856465441 C 661.379449132824 119.68646231380838 659.140872881978 121.92503856465441 656.379449132824 121.92503856465441 C 653.61802538367 121.92503856465441 651.379449132824 119.68646231380838 651.379449132824 116.92503856465441 C 651.379449132824 114.16361481550045 653.61802538367 111.92503856465441 656.379449132824 111.92503856465441 C 659.140872881978 111.92503856465441 661.379449132824 114.16361481550045 661.379449132824 116.92503856465441 Z" stroke-opacity="1" stroke-linecap="round" stroke-linejoin="round" stroke-miterlimit="10"/><text fill="rgb(97,97,97)" stroke="none" font-family="geogebra-sans-serif, sans-serif" font-size="16px" font-style="normal" font-weight="normal" text-decoration="normal" x="660" y="107" text-anchor="start" dominant-baseline="alphabetic" fill-opacity="1">P</text><text fill="rgb(97,97,97)" stroke="none" font-family="geogebra-sans-serif, sans-serif" font-size="16px" font-style="normal" font-weight="normal" text-decoration="normal" x="660" y="107" text-anchor="start" dominant-baseline="alphabetic" fill-opacity="1">P</text></g></g></svg>