<svg version="1.1" xmlns="http://www.w3.org/2000/svg" xmlns:xlink="http://www.w3.org/1999/xlink" width="920" height="573"><defs><clipPath id="UtSOTFdSJASc"><path fill="none" stroke="none" d=" M 0 0 L 920 0 L 920 573 L 0 573 L 0 0 Z"/></clipPath></defs><g transform="scale(1,1)" clip-path="url(#UtSOTFdSJASc)"><g><rect fill="rgb(255,255,255)" stroke="none" x="0" y="0" width="920" height="573" fill-opacity="1"/><path fill="none" stroke="rgb(192,192,192)" paint-order="fill stroke markers" d=" M 46.5 0.5 L 46.5 573.5 M 46.5 0.5 L 46.5 573.5 M 113.5 0.5 L 113.5 573.5 M 180.5 0.5 L 180.5 573.5 M 246.5 0.5 L 246.5 573.5 M 313.5 0.5 L 313.5 573.5 M 380.5 0.5 L 380.5 573.5 M 513.5 0.5 L 513.5 573.5 M 579.5 0.5 L 579.5 573.5 M 646.5 0.5 L 646.5 573.5 M 713.5 0.5 L 713.5 573.5 M 779.5 0.5 L 779.5 573.5 M 846.5 0.5 L 846.5 573.5 M 913.5 0.5 L 913.5 573.5" stroke-opacity="1" stroke-linecap="round" stroke-linejoin="round" stroke-miterlimit="10"/><path fill="none" stroke="rgb(192,192,192)" paint-order="fill stroke markers" d="" stroke-opacity="0.23529411764705882" stroke-linecap="round" stroke-linejoin="round" stroke-miterlimit="10"/><path fill="none" stroke="rgb(192,192,192)" paint-order="fill stroke markers" d=" M 0.5 48.5 L 920.5 48.5 M 0.5 48.5 L 920.5 48.5 M 0.5 115.5 L 920.5 115.5 M 0.5 182.5 L 920.5 182.5 M 0.5 248.5 L 920.5 248.5 M 0.5 382.5 L 920.5 382.5 M 0.5 448.5 L 920.5 448.5 M 0.5 515.5 L 920.5 515.5" stroke-opacity="1" stroke-linecap="round" stroke-linejoin="round" stroke-miterlimit="10"/><path fill="none" stroke="rgb(192,192,192)" paint-order="fill stroke markers" d="" stroke-opacity="0.23529411764705882" stroke-linecap="round" stroke-linejoin="round" stroke-miterlimit="10"/><path fill="none" stroke="rgb(0,0,0)" paint-order="fill stroke markers" d=" M 446.5 2.5 L 446.5 573.5" stroke-opacity="1" stroke-miterlimit="10"/><path fill="none" stroke="rgb(0,0,0)" paint-order="fill stroke markers" d=" M 446.5 1.5 L 442.5 5.5" stroke-opacity="1" stroke-miterlimit="10"/><path fill="none" stroke="rgb(0,0,0)" paint-order="fill stroke markers" d=" M 446.5 1.5 L 450.5 5.5" stroke-opacity="1" stroke-miterlimit="10"/><path fill="none" stroke="rgb(0,0,0)" paint-order="fill stroke markers" d=" M 0.5 315.5 L 918.5 315.5" stroke-opacity="1" stroke-miterlimit="10"/><path fill="none" stroke="rgb(0,0,0)" paint-order="fill stroke markers" d=" M 919.5 315.5 L 915.5 311.5" stroke-opacity="1" stroke-miterlimit="10"/><path fill="none" stroke="rgb(0,0,0)" paint-order="fill stroke markers" d=" M 919.5 315.5 L 915.5 319.5" stroke-opacity="1" stroke-miterlimit="10"/><text fill="rgb(0,0,0)" stroke="none" font-family="geogebra-sans-serif, sans-serif" font-size="12px" font-style="normal" font-weight="normal" text-decoration="normal" x="41" y="331" text-anchor="start" dominant-baseline="alphabetic" fill-opacity="1">–3</text><text fill="none" stroke="rgb(255,255,255)" font-family="geogebra-sans-serif, sans-serif" font-size="12px" font-style="normal" font-weight="normal" text-decoration="normal" x="41" y="331" text-anchor="start" dominant-baseline="alphabetic" stroke-opacity="1" stroke-linejoin="bevel" stroke-miterlimit="10" stroke-width="3">–3</text><text fill="rgb(0,0,0)" stroke="none" font-family="geogebra-sans-serif, sans-serif" font-size="12px" font-style="normal" font-weight="normal" text-decoration="normal" x="41" y="331" text-anchor="start" dominant-baseline="alphabetic" fill-opacity="1">–3</text><text fill="rgb(0,0,0)" stroke="none" font-family="geogebra-sans-serif, sans-serif" font-size="12px" font-style="normal" font-weight="normal" text-decoration="normal" x="102" y="331" text-anchor="start" dominant-baseline="alphabetic" fill-opacity="1">–2.5</text><text fill="none" stroke="rgb(255,255,255)" font-family="geogebra-sans-serif, sans-serif" font-size="12px" font-style="normal" font-weight="normal" text-decoration="normal" x="102" y="331" text-anchor="start" dominant-baseline="alphabetic" stroke-opacity="1" stroke-linejoin="bevel" stroke-miterlimit="10" stroke-width="3">–2.5</text><text fill="rgb(0,0,0)" stroke="none" font-family="geogebra-sans-serif, sans-serif" font-size="12px" font-style="normal" font-weight="normal" text-decoration="normal" x="102" y="331" text-anchor="start" dominant-baseline="alphabetic" fill-opacity="1">–2.5</text><text fill="rgb(0,0,0)" stroke="none" font-family="geogebra-sans-serif, sans-serif" font-size="12px" font-style="normal" font-weight="normal" text-decoration="normal" x="175" y="331" text-anchor="start" dominant-baseline="alphabetic" fill-opacity="1">–2</text><text fill="none" stroke="rgb(255,255,255)" font-family="geogebra-sans-serif, sans-serif" font-size="12px" font-style="normal" font-weight="normal" text-decoration="normal" x="175" y="331" text-anchor="start" dominant-baseline="alphabetic" stroke-opacity="1" stroke-linejoin="bevel" stroke-miterlimit="10" stroke-width="3">–2</text><text fill="rgb(0,0,0)" stroke="none" font-family="geogebra-sans-serif, sans-serif" font-size="12px" font-style="normal" font-weight="normal" text-decoration="normal" x="175" y="331" text-anchor="start" dominant-baseline="alphabetic" fill-opacity="1">–2</text><text fill="rgb(0,0,0)" stroke="none" font-family="geogebra-sans-serif, sans-serif" font-size="12px" font-style="normal" font-weight="normal" text-decoration="normal" x="235" y="331" text-anchor="start" dominant-baseline="alphabetic" fill-opacity="1">–1.5</text><text fill="none" stroke="rgb(255,255,255)" font-family="geogebra-sans-serif, sans-serif" font-size="12px" font-style="normal" font-weight="normal" text-decoration="normal" x="235" y="331" text-anchor="start" dominant-baseline="alphabetic" stroke-opacity="1" stroke-linejoin="bevel" stroke-miterlimit="10" stroke-width="3">–1.5</text><text fill="rgb(0,0,0)" stroke="none" font-family="geogebra-sans-serif, sans-serif" font-size="12px" font-style="normal" font-weight="normal" text-decoration="normal" x="235" y="331" text-anchor="start" dominant-baseline="alphabetic" fill-opacity="1">–1.5</text><text fill="rgb(0,0,0)" stroke="none" font-family="geogebra-sans-serif, sans-serif" font-size="12px" font-style="normal" font-weight="normal" text-decoration="normal" x="308" y="331" text-anchor="start" dominant-baseline="alphabetic" fill-opacity="1">–1</text><text fill="none" stroke="rgb(255,255,255)" font-family="geogebra-sans-serif, sans-serif" font-size="12px" font-style="normal" font-weight="normal" text-decoration="normal" x="308" y="331" text-anchor="start" dominant-baseline="alphabetic" stroke-opacity="1" stroke-linejoin="bevel" stroke-miterlimit="10" stroke-width="3">–1</text><text fill="rgb(0,0,0)" stroke="none" font-family="geogebra-sans-serif, sans-serif" font-size="12px" font-style="normal" font-weight="normal" text-decoration="normal" x="308" y="331" text-anchor="start" dominant-baseline="alphabetic" fill-opacity="1">–1</text><text fill="rgb(0,0,0)" stroke="none" font-family="geogebra-sans-serif, sans-serif" font-size="12px" font-style="normal" font-weight="normal" text-decoration="normal" x="369" y="331" text-anchor="start" dominant-baseline="alphabetic" fill-opacity="1">–0.5</text><text fill="none" stroke="rgb(255,255,255)" font-family="geogebra-sans-serif, sans-serif" font-size="12px" font-style="normal" font-weight="normal" text-decoration="normal" x="369" y="331" text-anchor="start" dominant-baseline="alphabetic" stroke-opacity="1" stroke-linejoin="bevel" stroke-miterlimit="10" stroke-width="3">–0.5</text><text fill="rgb(0,0,0)" stroke="none" font-family="geogebra-sans-serif, sans-serif" font-size="12px" font-style="normal" font-weight="normal" text-decoration="normal" x="369" y="331" text-anchor="start" dominant-baseline="alphabetic" fill-opacity="1">–0.5</text><text fill="rgb(0,0,0)" stroke="none" font-family="geogebra-sans-serif, sans-serif" font-size="12px" font-style="normal" font-weight="normal" text-decoration="normal" x="505" y="331" text-anchor="start" dominant-baseline="alphabetic" fill-opacity="1">0.5</text><text fill="none" stroke="rgb(255,255,255)" font-family="geogebra-sans-serif, sans-serif" font-size="12px" font-style="normal" font-weight="normal" text-decoration="normal" x="505" y="331" text-anchor="start" dominant-baseline="alphabetic" stroke-opacity="1" stroke-linejoin="bevel" stroke-miterlimit="10" stroke-width="3">0.5</text><text fill="rgb(0,0,0)" stroke="none" font-family="geogebra-sans-serif, sans-serif" font-size="12px" font-style="normal" font-weight="normal" text-decoration="normal" x="505" y="331" text-anchor="start" dominant-baseline="alphabetic" fill-opacity="1">0.5</text><text fill="rgb(0,0,0)" stroke="none" font-family="geogebra-sans-serif, sans-serif" font-size="12px" font-style="normal" font-weight="normal" text-decoration="normal" x="577" y="331" text-anchor="start" dominant-baseline="alphabetic" fill-opacity="1">1</text><text fill="none" stroke="rgb(255,255,255)" font-family="geogebra-sans-serif, sans-serif" font-size="12px" font-style="normal" font-weight="normal" text-decoration="normal" x="577" y="331" text-anchor="start" dominant-baseline="alphabetic" stroke-opacity="1" stroke-linejoin="bevel" stroke-miterlimit="10" stroke-width="3">1</text><text fill="rgb(0,0,0)" stroke="none" font-family="geogebra-sans-serif, sans-serif" font-size="12px" font-style="normal" font-weight="normal" text-decoration="normal" x="577" y="331" text-anchor="start" dominant-baseline="alphabetic" fill-opacity="1">1</text><text fill="rgb(0,0,0)" stroke="none" font-family="geogebra-sans-serif, sans-serif" font-size="12px" font-style="normal" font-weight="normal" text-decoration="normal" x="638" y="331" text-anchor="start" dominant-baseline="alphabetic" fill-opacity="1">1.5</text><text fill="none" stroke="rgb(255,255,255)" font-family="geogebra-sans-serif, sans-serif" font-size="12px" font-style="normal" font-weight="normal" text-decoration="normal" x="638" y="331" text-anchor="start" dominant-baseline="alphabetic" stroke-opacity="1" stroke-linejoin="bevel" stroke-miterlimit="10" stroke-width="3">1.5</text><text fill="rgb(0,0,0)" stroke="none" font-family="geogebra-sans-serif, sans-serif" font-size="12px" font-style="normal" font-weight="normal" text-decoration="normal" x="638" y="331" text-anchor="start" dominant-baseline="alphabetic" fill-opacity="1">1.5</text><text fill="rgb(0,0,0)" stroke="none" font-family="geogebra-sans-serif, sans-serif" font-size="12px" font-style="normal" font-weight="normal" text-decoration="normal" x="711" y="331" text-anchor="start" dominant-baseline="alphabetic" fill-opacity="1">2</text><text fill="none" stroke="rgb(255,255,255)" font-family="geogebra-sans-serif, sans-serif" font-size="12px" font-style="normal" font-weight="normal" text-decoration="normal" x="711" y="331" text-anchor="start" dominant-baseline="alphabetic" stroke-opacity="1" stroke-linejoin="bevel" stroke-miterlimit="10" stroke-width="3">2</text><text fill="rgb(0,0,0)" stroke="none" font-family="geogebra-sans-serif, sans-serif" font-size="12px" font-style="normal" font-weight="normal" text-decoration="normal" x="711" y="331" text-anchor="start" dominant-baseline="alphabetic" fill-opacity="1">2</text><text fill="rgb(0,0,0)" stroke="none" font-family="geogebra-sans-serif, sans-serif" font-size="12px" font-style="normal" font-weight="normal" text-decoration="normal" x="771" y="331" text-anchor="start" dominant-baseline="alphabetic" fill-opacity="1">2.5</text><text fill="none" stroke="rgb(255,255,255)" font-family="geogebra-sans-serif, sans-serif" font-size="12px" font-style="normal" font-weight="normal" text-decoration="normal" x="771" y="331" text-anchor="start" dominant-baseline="alphabetic" stroke-opacity="1" stroke-linejoin="bevel" stroke-miterlimit="10" stroke-width="3">2.5</text><text fill="rgb(0,0,0)" stroke="none" font-family="geogebra-sans-serif, sans-serif" font-size="12px" font-style="normal" font-weight="normal" text-decoration="normal" x="771" y="331" text-anchor="start" dominant-baseline="alphabetic" fill-opacity="1">2.5</text><text fill="rgb(0,0,0)" stroke="none" font-family="geogebra-sans-serif, sans-serif" font-size="12px" font-style="normal" font-weight="normal" text-decoration="normal" x="844" y="331" text-anchor="start" dominant-baseline="alphabetic" fill-opacity="1">3</text><text fill="none" stroke="rgb(255,255,255)" font-family="geogebra-sans-serif, sans-serif" font-size="12px" font-style="normal" font-weight="normal" text-decoration="normal" x="844" y="331" text-anchor="start" dominant-baseline="alphabetic" stroke-opacity="1" stroke-linejoin="bevel" stroke-miterlimit="10" stroke-width="3">3</text><text fill="rgb(0,0,0)" stroke="none" font-family="geogebra-sans-serif, sans-serif" font-size="12px" font-style="normal" font-weight="normal" text-decoration="normal" x="844" y="331" text-anchor="start" dominant-baseline="alphabetic" fill-opacity="1">3</text><text fill="rgb(0,0,0)" stroke="none" font-family="geogebra-sans-serif, sans-serif" font-size="12px" font-style="normal" font-weight="normal" text-decoration="normal" x="416" y="520" text-anchor="start" dominant-baseline="alphabetic" fill-opacity="1">–1.5</text><text fill="none" stroke="rgb(255,255,255)" font-family="geogebra-sans-serif, sans-serif" font-size="12px" font-style="normal" font-weight="normal" text-decoration="normal" x="416" y="520" text-anchor="start" dominant-baseline="alphabetic" stroke-opacity="1" stroke-linejoin="bevel" stroke-miterlimit="10" stroke-width="3">–1.5</text><text fill="rgb(0,0,0)" stroke="none" font-family="geogebra-sans-serif, sans-serif" font-size="12px" font-style="normal" font-weight="normal" text-decoration="normal" x="416" y="520" text-anchor="start" dominant-baseline="alphabetic" fill-opacity="1">–1.5</text><text fill="rgb(0,0,0)" stroke="none" font-family="geogebra-sans-serif, sans-serif" font-size="12px" font-style="normal" font-weight="normal" text-decoration="normal" x="426" y="453" text-anchor="start" dominant-baseline="alphabetic" fill-opacity="1">–1</text><text fill="none" stroke="rgb(255,255,255)" font-family="geogebra-sans-serif, sans-serif" font-size="12px" font-style="normal" font-weight="normal" text-decoration="normal" x="426" y="453" text-anchor="start" dominant-baseline="alphabetic" stroke-opacity="1" stroke-linejoin="bevel" stroke-miterlimit="10" stroke-width="3">–1</text><text fill="rgb(0,0,0)" stroke="none" font-family="geogebra-sans-serif, sans-serif" font-size="12px" font-style="normal" font-weight="normal" text-decoration="normal" x="426" y="453" text-anchor="start" dominant-baseline="alphabetic" fill-opacity="1">–1</text><text fill="rgb(0,0,0)" stroke="none" font-family="geogebra-sans-serif, sans-serif" font-size="12px" font-style="normal" font-weight="normal" text-decoration="normal" x="416" y="387" text-anchor="start" dominant-baseline="alphabetic" fill-opacity="1">–0.5</text><text fill="none" stroke="rgb(255,255,255)" font-family="geogebra-sans-serif, sans-serif" font-size="12px" font-style="normal" font-weight="normal" text-decoration="normal" x="416" y="387" text-anchor="start" dominant-baseline="alphabetic" stroke-opacity="1" stroke-linejoin="bevel" stroke-miterlimit="10" stroke-width="3">–0.5</text><text fill="rgb(0,0,0)" stroke="none" font-family="geogebra-sans-serif, sans-serif" font-size="12px" font-style="normal" font-weight="normal" text-decoration="normal" x="416" y="387" text-anchor="start" dominant-baseline="alphabetic" fill-opacity="1">–0.5</text><text fill="rgb(0,0,0)" stroke="none" font-family="geogebra-sans-serif, sans-serif" font-size="12px" font-style="normal" font-weight="normal" text-decoration="normal" x="422" y="253" text-anchor="start" dominant-baseline="alphabetic" fill-opacity="1">0.5</text><text fill="none" stroke="rgb(255,255,255)" font-family="geogebra-sans-serif, sans-serif" font-size="12px" font-style="normal" font-weight="normal" text-decoration="normal" x="422" y="253" text-anchor="start" dominant-baseline="alphabetic" stroke-opacity="1" stroke-linejoin="bevel" stroke-miterlimit="10" stroke-width="3">0.5</text><text fill="rgb(0,0,0)" stroke="none" font-family="geogebra-sans-serif, sans-serif" font-size="12px" font-style="normal" font-weight="normal" text-decoration="normal" x="422" y="253" text-anchor="start" dominant-baseline="alphabetic" fill-opacity="1">0.5</text><text fill="rgb(0,0,0)" stroke="none" font-family="geogebra-sans-serif, sans-serif" font-size="12px" font-style="normal" font-weight="normal" text-decoration="normal" x="432" y="187" text-anchor="start" dominant-baseline="alphabetic" fill-opacity="1">1</text><text fill="none" stroke="rgb(255,255,255)" font-family="geogebra-sans-serif, sans-serif" font-size="12px" font-style="normal" font-weight="normal" text-decoration="normal" x="432" y="187" text-anchor="start" dominant-baseline="alphabetic" stroke-opacity="1" stroke-linejoin="bevel" stroke-miterlimit="10" stroke-width="3">1</text><text fill="rgb(0,0,0)" stroke="none" font-family="geogebra-sans-serif, sans-serif" font-size="12px" font-style="normal" font-weight="normal" text-decoration="normal" x="432" y="187" text-anchor="start" dominant-baseline="alphabetic" fill-opacity="1">1</text><text fill="rgb(0,0,0)" stroke="none" font-family="geogebra-sans-serif, sans-serif" font-size="12px" font-style="normal" font-weight="normal" text-decoration="normal" x="422" y="120" text-anchor="start" dominant-baseline="alphabetic" fill-opacity="1">1.5</text><text fill="none" stroke="rgb(255,255,255)" font-family="geogebra-sans-serif, sans-serif" font-size="12px" font-style="normal" font-weight="normal" text-decoration="normal" x="422" y="120" text-anchor="start" dominant-baseline="alphabetic" stroke-opacity="1" stroke-linejoin="bevel" stroke-miterlimit="10" stroke-width="3">1.5</text><text fill="rgb(0,0,0)" stroke="none" font-family="geogebra-sans-serif, sans-serif" font-size="12px" font-style="normal" font-weight="normal" text-decoration="normal" x="422" y="120" text-anchor="start" dominant-baseline="alphabetic" fill-opacity="1">1.5</text><text fill="rgb(0,0,0)" stroke="none" font-family="geogebra-sans-serif, sans-serif" font-size="12px" font-style="normal" font-weight="normal" text-decoration="normal" x="432" y="53" text-anchor="start" dominant-baseline="alphabetic" fill-opacity="1">2</text><text fill="none" stroke="rgb(255,255,255)" font-family="geogebra-sans-serif, sans-serif" font-size="12px" font-style="normal" font-weight="normal" text-decoration="normal" x="432" y="53" text-anchor="start" dominant-baseline="alphabetic" stroke-opacity="1" stroke-linejoin="bevel" stroke-miterlimit="10" stroke-width="3">2</text><text fill="rgb(0,0,0)" stroke="none" font-family="geogebra-sans-serif, sans-serif" font-size="12px" font-style="normal" font-weight="normal" text-decoration="normal" x="432" y="53" text-anchor="start" dominant-baseline="alphabetic" fill-opacity="1">2</text><text fill="rgb(0,0,0)" stroke="none" font-family="geogebra-sans-serif, sans-serif" font-size="12px" font-style="normal" font-weight="normal" text-decoration="normal" x="432" y="331" text-anchor="start" dominant-baseline="alphabetic" fill-opacity="1">0</text><text fill="none" stroke="rgb(255,255,255)" font-family="geogebra-sans-serif, sans-serif" font-size="12px" font-style="normal" font-weight="normal" text-decoration="normal" x="432" y="331" text-anchor="start" dominant-baseline="alphabetic" stroke-opacity="1" stroke-linejoin="bevel" stroke-miterlimit="10" stroke-width="3">0</text><text fill="rgb(0,0,0)" stroke="none" font-family="geogebra-sans-serif, sans-serif" font-size="12px" font-style="normal" font-weight="normal" text-decoration="normal" x="432" y="331" text-anchor="start" dominant-baseline="alphabetic" fill-opacity="1">0</text><path fill="none" stroke="rgb(46,125,50)" paint-order="fill stroke markers" d=" M 2.9101003558283196 0 L 4.750225955324652 1.7906249999999773 L 5.75 2.7728343998803098 L 6.585340630793951 3.5812500000000114 L 8.418206077621676 5.371874999999989 L 11.499999999999943 8.378855735098341 L 13.931991050117574 10.743750000000034 L 15.773588281458785 12.534375000000011 L 17.249999999999943 13.978742139525536 L 19.451179220622407 16.115624999999966 L 20.125 16.77706983188847 L 21.293363094629683 17.90625 L 22.999999999999943 19.572191470125063 L 24.976089166168435 21.487499999999955 L 25.874999999999943 22.36799663077636 L 26.81896315653455 23.278124999999932 L 28.65761853077794 25.068749999999966 L 31.624999999999943 27.951987055678842 L 34.19403004874022 30.440625000000068 L 36.044465045980644 32.2312500000001 L 37.37499999999994 33.52868798829371 L 37.88907022663085 34.02187500000008 L 39.73712970323692 35.81250000000006 L 40.24999999999994 36.314390581818316 L 41.58869043869413 37.603125000000034 L 43.12499999999994 39.0977239002267 L 45.287327191804025 41.184375000000045 L 45.99999999999994 41.88018672536185 L 48.875 44.658695178672076 L 50.84506270269384 46.556250000000034 L 51.74999999999994 47.4376906858422 L 54.54905048896791 50.13749999999999 L 56.410809552659146 51.92812500000002 L 57.5 52.986460845574754 L 60.121467113299786 55.50937499999998 L 63.25 58.52602646232367 L 63.84276017336674 59.09062499999999 L 65.70274513948578 60.881249999999966 L 67.56841381748097 62.67187499999997 L 68.99999999999994 64.05588542790773 L 71.2934560462017 66.25312499999998 L 71.87499999999994 66.81746947268539 L 74.74999999999994 69.5755018355668 L 76.89421582063738 71.625 L 77.625 72.33233008437554 L 78.76470628655812 73.415625 L 80.49999999999994 75.08430333910562 L 82.50568894469762 76.99687500000002 L 83.37499999999994 77.83604039829379 L 86.24630342552354 80.578125 L 88.1285927723955 82.36874999999998 L 89.12499999999994 83.32796416666167 L 90.00500040080038 84.15937499999998 L 91.87797139889466 85.95000000000005 L 94.875 88.80742075391842 L 97.5223324695857 91.32187500000003 L 100.625 94.27368159159334 L 101.29549860519046 94.90312500000005 L 103.18025938979366 96.69375000000002 L 106.375 99.72596633036821 L 108.85269650361255 102.06562500000001 L 110.75099560198782 103.85624999999999 L 112.125 105.16343866474278 L 112.64346374225596 105.64687500000002 L 114.54066635145824 107.4375 L 117.87499999999994 110.58520180454062 L 120.24527691214428 112.80937499999999 L 120.74999999999994 113.29003158834499 L 123.625 115.990293566557 L 125.96772953821892 118.18124999999998 L 126.49999999999994 118.68651226592709 L 127.88279609698805 119.97187499999998 L 129.37499999999994 121.37768105908034 L 131.70932764193702 123.55312499999997 L 132.25 124.06466580558936 L 133.6311429623757 125.34374999999997 L 135.125 126.74625493197601 L 137.47148618981151 128.925 L 137.99999999999994 129.4233353307571 L 140.87499999999994 132.09482316572678 L 143.25574206245176 134.29687500000003 L 146.62499999999994 137.42210437455674 L 147.12535084699664 137.878125 L 149.06376533261823 139.66875 L 152.37499999999994 142.7267206018963 L 154.89737150703434 145.04062500000006 L 156.85368888494708 146.83125000000004 L 158.12499999999994 148.00718959145232 L 158.80522122805758 148.62187500000005 L 160.75853476516147 150.41250000000002 L 163.87499999999994 153.26191652464223 L 166.64940220901565 155.78437500000004 L 169.62499999999994 158.4891852259347 L 170.6036899013024 159.36562500000002 L 172.49999999999994 161.09020464863366 L 174.56475906280906 162.946875 L 175.3749999999999 163.68714885271947 L 178.24999999999994 166.27364058282467 L 180.53680853775785 168.31875 L 181.12499999999994 168.8538201070139 L 182.5405012843322 170.109375 L 183.99999999999994 171.4248928856168 L 186.54767697003655 173.69062499999998 L 189.75 176.54175470624165 L 192.60051579134242 179.06249999999997 L 194.6390626185802 180.85312499999998 L 195.5 181.62185254566367 L 198.37499999999997 184.14658325316188 L 200.75746641162124 186.22500000000002 L 202.81468640765206 188.015625 L 204.12499999999997 189.1683355214837 L 204.8703896530552 189.80625000000003 L 206.92705746719855 191.596875 L 209.875 194.14679645707062 L 211.08708445628153 195.17812500000002 L 212.74999999999997 196.6184025850917 L 215.2579040847005 198.75937500000003 L 218.49999999999997 201.52834749337873 L 219.4709066413005 202.34062500000005 L 221.37499999999997 203.96308474292724 L 223.70665908401074 205.92187500000006 L 224.25 206.38724405243505 L 225.84399987434765 207.71250000000006 L 227.12499999999997 208.79766172129402 L 227.9832696949078 209.50312500000007 L 229.99999999999997 211.19246769796388 L 232.29122232140082 213.08437500000005 L 232.875 213.57597688442172 L 235.74999999999997 215.94411173620034 L 236.64414525523958 216.66562500000003 L 238.625 218.29560866258507 L 241.03239107921144 220.24687500000002 L 243.25159789900297 222.03750000000002 L 244.37499999999997 222.95599158473436 L 245.47676612807305 223.82812500000003 L 247.24999999999997 225.26045910066028 L 249.95422763911057 227.409375 L 253 229.82045123563293 L 255.87499999999997 232.073801998156 L 258.75 234.3077757955412 L 261.42048541171505 236.3625 L 263.76873435947573 238.153125 L 264.5 238.72121693954648 L 267.375 240.89821655298192 L 268.50529996676414 241.734375 L 270.25 243.0540340496888 L 273.12499999999994 245.18823944701853 L 275.7391767356139 247.10625000000005 L 278.87499999999994 249.39445252387785 L 281.74999999999994 251.46358172252383 L 283.1929785437269 252.47812500000003 L 284.62499999999994 253.50904601685022 L 285.7217599253538 254.26875000000004 L 287.49999999999994 255.53035917501188 L 290.37499999999994 257.52702471117107 L 293.2499999999999 259.49853592562175 L 296.10593261690633 261.4312500000001 L 298.790407316788 263.22187500000007 L 301.875 265.25895693107765 L 304.26442641929566 266.803125 L 307.05902412839237 268.59375000000006 L 307.625 268.96332644276583 L 309.89566581642384 270.38437500000003 L 310.5 270.7728330770661 L 313.375 272.5531318761191 L 315.7070820800159 273.96562500000005 L 316.24999999999994 274.30364871553917 L 318.68829039193594 275.75625 L 321.72439774382246 277.546875 L 324.87499999999994 279.37070760283547 L 327.74999999999994 280.9972376931689 L 330.62499999999994 282.5914997965921 L 331.242363674858 282.91875000000005 L 333.49999999999994 284.1526554976225 L 336.37499999999994 285.680115667787 L 339.24999999999994 287.17329952567763 L 341.46922891700115 288.290625 L 342.12499999999994 288.63163859140536 L 344.99999999999994 290.0547518278333 L 347.875 291.4442433276093 L 348.8052507905371 291.871875 L 350.75 292.7973088051337 L 353.625 294.11342972849457 L 356.5 295.39247611837214 L 359.375 296.6362858201254 L 362.25 297.8416737729946 L 365.125 299.00838191640685 L 368 300.13905129355936 L 370.87499999999994 301.2299745496894 L 373.74999999999994 302.2824619303076 L 374.72300379455845 302.615625 L 376.62499999999994 303.2963775065584 L 379.9356476678584 304.40625 L 382.37499999999994 305.20570241677734 L 385.24999999999994 306.10022822825556 L 388.12499999999994 306.9562467881375 L 390.99999999999994 307.77107444615905 L 391.83550772657054 307.9875 L 393.87499999999994 308.5463987538346 L 396.74999999999994 309.28100123241836 L 398.84607593179055 309.77812500000005 L 399.62499999999994 309.97471107509506 L 402.49999999999994 310.62851644354384 L 405.37499999999994 311.24087375733046 L 407.0764061239884 311.56875 L 408.24999999999994 311.8124268718395 L 411.12499999999994 312.34343539769674 L 413.99999999999994 312.8330521812998 L 416.875 313.2812636251504 L 417.473624043929 313.359375 L 419.75 313.6887523359098 L 422.625 314.0550431289696 L 425.5 314.3799836363805 L 428.375 314.66357120882833 L 431.25 314.9058012225007 L 434.12499999999994 315.1066648184168 L 435.06258389247296 315.15000000000003 L 436.99999999999994 315.26625555708523 L 439.87499999999994 315.38450654353204 L 442.74999999999994 315.4613246376513 M 446.6779814635626 315.15000000000003 L 446.67993263906465 313.359375 L 446.7063447949252 311.56875 L 446.74930149561135 309.77812500000005 L 446.80844030088576 307.9875 L 446.88367800459355 306.19687500000003 L 446.97498515202244 304.40625 L 447.082348670574 302.615625 L 447.2057618708172 300.82500000000005 L 447.3452209743258 299.034375 L 447.5007236855842 297.24375 L 447.67226852949574 295.453125 L 447.85985451492235 293.6625 L 448.0634809512549 291.871875 L 448.2831473425329 290.08125 L 448.49999999999994 288.44308384588095 L 448.7713388257914 286.5 L 449.03976984948287 284.709375 L 449.32420758799844 282.91875000000005 L 449.62465695938965 281.128125 L 449.94112190531064 279.33750000000003 L 450.2736056218699 277.546875 L 450.6221107279416 275.75625 L 450.98663938985095 273.96562500000005 L 451.36719341507785 272.175 L 451.76553600508794 270.38437500000003 L 452.1798752861186 268.59375000000006 L 452.61018309631265 266.803125 L 453.0564668810684 265.01250000000005 L 453.51873306004615 263.22187500000007 L 453.9969871979293 261.4312500000001 L 454.24999999999994 260.5292589913958 L 454.4926627710998 259.64062500000006 L 455.00578879180847 257.85 L 455.5348291225129 256.05937500000005 L 456.07979473415963 254.26875000000004 L 456.6406953385338 252.47812500000003 L 457.12499999999994 250.98164730207546 L 457.815053418196 248.89687500000002 L 458.4277612710712 247.10625000000005 L 459.0563328220082 245.315625 L 459.7007812837564 243.52500000000003 L 459.99999999999994 242.72466645633654 L 460.36399871525856 241.734375 L 461.0454285678087 239.94375 L 461.74264299062634 238.153125 L 462.45565955838305 236.3625 L 462.875 235.34226111596615 L 463.1872481362922 234.57187499999998 L 463.938332625622 232.78125 L 464.7051183036295 230.990625 L 465.4876267270239 229.2 L 465.75 228.619755666593 L 466.29107261589604 227.409375 L 467.11270524209954 225.61875000000003 L 467.94995358653694 223.82812500000003 L 468.625 222.41683130898912 L 469.682272362215 220.24687500000002 L 470.5753152286206 218.45625 L 471.48388752463353 216.66562500000003 L 472.418210385907 214.875 L 473.3680910696274 213.08437500000005 L 474.33338130350216 211.29375000000005 L 475.32538379786536 209.50312500000007 L 476.3331355250181 207.71250000000006 L 477.25 206.11063964547793 L 478.4090907811953 204.13125000000005 L 479.4757382547657 202.34062500000005 L 480.125 201.27319121472829 L 480.5634345283105 200.55000000000007 L 481.67504012141137 198.75937500000003 L 482.8016010536231 196.96875000000003 L 483.9566573195387 195.17812500000002 L 485.12934008579765 193.38750000000005 L 485.87499999999994 192.2697948460048 L 486.3235292427763 191.596875 L 487.5437229600859 189.80625000000003 L 488.74999999999994 188.0575868467248 L 490.048080520337 186.22500000000002 L 491.33154217399317 184.434375 L 492.6461087201189 182.64374999999998 L 493.97969518234447 180.85312499999998 L 494.49999999999994 180.16819641467683 L 495.34188013454167 179.06249999999997 L 496.72706338512495 177.271875 L 497.37499999999994 176.44918541693855 L 498.1398603464818 175.48125 L 499.5781494436298 173.69062499999998 L 500.24999999999994 172.86852647381914 L 501.0449290969096 171.89999999999998 L 502.5378715268717 170.109375 L 503.12499999999994 169.41753276679452 L 504.0624062360356 168.31875 L 505.61158919642753 166.52812500000002 L 507.1980826440138 164.7375 L 508.8051342129307 162.946875 L 510.4582564146875 161.15625 L 511.74999999999994 159.77286438585264 L 513.8497747196858 157.57500000000002 L 514.625 156.77791520890648 L 515.6002168463491 155.78437500000004 L 517.3800818986832 153.99375000000003 L 519.212075182863 152.20312500000003 L 520.3749999999999 151.08058407422126 L 521.0749545980225 150.41250000000002 L 522.977749671078 148.62187500000005 L 524.9342245164654 146.83125000000004 L 526.1249999999999 145.75650969017832 L 526.9288778187932 145.04062500000006 L 528.9652722453405 143.25000000000003 L 531.0684378124504 141.459375 L 531.875 140.781401124302 L 533.2195681103221 139.66875 L 534.75 138.4183099325415 L 535.42244825568 137.878125 L 537.625 136.13145531183724 L 540.0188678902748 134.29687500000003 L 542.4247166479366 132.50625 L 543.375 131.81090453386548 L 544.9035333660124 130.71562500000002 L 546.25 129.7634818292652 L 547.4627423196599 128.925 L 549.125 127.7909676837736 L 550.111000863034 127.13437499999998 L 552 125.893291590193 L 552.8584497354625 125.34374999999997 L 554.8749999999999 124.07025630560915 L 555.7170283970457 123.55312499999997 L 557.7499999999999 122.32154666627699 L 558.7008758357499 121.76249999999996 L 560.6249999999999 120.64673821571947 L 561.8268449966224 119.97187499999998 L 563.4999999999999 119.04530561246514 L 565.1151701216575 118.18124999999998 L 566.3749999999999 117.51663078901595 L 568.5903426398165 116.390625 L 569.2499999999999 116.06001083847227 L 572.1249999999999 114.67697306094979 L 574.9999999999999 113.3766607718679 L 576.3169365190528 112.80937499999999 L 577.875 112.14782063580927 L 580.6761555257261 111.01874999999998 L 583.625 109.92110035110616 L 585.6135441685219 109.228125 L 586.5 108.9237326916251 L 589.375 108.01252940082483 L 591.351773213007 107.4375 L 592.25 107.18011035869372 L 595.125 106.4397129272466 L 598 105.7796252189219 L 598.6736691216187 105.64687500000002 L 600.875 105.21978682788327 L 603.75 104.75449997318844 L 606.625 104.38620887314846 L 609.5 104.1219152286805 L 612.375 103.9691013433154 L 615.25 103.9357720793819 L 618.125 104.03050128758062 L 621 104.26248327646334 L 623.875 104.64158997183495 L 626.75 105.17843451370851 L 628.6697058189145 105.64687500000002 L 629.625 105.89370305174751 L 634.0981163617696 107.4375 L 635.375 107.96503412813715 L 637.965186355731 109.228125 L 640.9826078999508 111.01874999999998 L 643.4472792507956 112.80937499999999 L 644 113.24482271879819 L 645.5346441672019 114.59999999999997 L 646.8749999999999 115.8816029881967 L 647.3549729747137 116.390625 L 648.9184838850615 118.18124999999998 L 649.75 119.21838709301235 L 651.5017878948908 121.76249999999996 L 652.5915799992406 123.55312499999997 L 654.3365447931983 127.13437499999998 L 655.0733525990622 128.925 L 655.4999999999999 130.09033425899517 L 655.7121044557136 130.71562500000002 L 656.2498652243237 132.50625 L 656.7163453522065 134.29687500000003 L 657.1146241300372 136.0875 L 657.4476377426795 137.878125 L 657.7181874870149 139.66875 L 657.9289474299136 141.459375 L 658.0824715503451 143.25000000000003 L 658.1812004057197 145.04062500000006 L 658.2274673590304 146.83125000000007 M 448.49999999999994 315.49232631200584 L 451.37499999999994 315.44479926024366 L 454.24999999999994 315.35627619041895 L 457.12499999999994 315.22646945824283 L 458.2400679607865 315.15000000000003 L 459.99999999999994 315.0552727552506 L 462.875 314.84269677836966 L 465.75 314.5887948939755 L 468.625 314.293559730586 L 471.5 313.95698733223463 L 474.375 313.57907538563813 L 475.8106447821607 313.359375 L 477.25 313.1594462688897 L 480.125 312.69809028091146 L 483 312.19544681792456 L 485.87499999999994 311.65150327694295 L 488.74999999999994 311.0649838620704 L 491.62499999999994 310.43701838467985 L 494.45288093638953 309.77812500000005 L 497.37499999999994 309.0551376801456 L 500.24999999999994 308.3013400156365 L 501.3490641285604 307.9875 L 503.12499999999994 307.50461720782545 L 505.99999999999994 306.66563404169295 L 507.497092473931 306.19687500000003 L 508.87499999999994 305.7838718263363 L 511.74999999999994 304.8591398990629 L 513.0669673391532 304.40625 L 514.625 303.89110532699203 L 517.5 302.8800912085718 L 518.201163558389 302.615625 L 520.3749999999999 301.82437877952947 L 522.9829346219228 300.82500000000005 L 526.1249999999999 299.58164862747117 L 527.4267342561975 299.034375 L 528.9999999999999 298.39303902997216 L 531.6749745680833 297.24375 L 534.75 295.8801560980489 L 535.658975881789 295.453125 L 537.625 294.55411447206365 L 539.4763188670696 293.6625 L 540.5 293.1820256873638 L 543.149680155868 291.871875 L 546.25 290.2952102839507 L 549.125 288.77823244950605 L 550.0067425236266 288.290625 L 552 287.21211799007943 L 553.2520108722948 286.5 L 554.8749999999999 285.59593768320354 L 556.3894894867974 284.709375 L 557.7499999999999 283.9286988176717 L 559.4254288242472 282.91875000000005 L 560.6249999999999 282.2093469714205 L 562.3661108768745 281.128125 L 563.4999999999999 280.4367671695264 L 565.2177290301411 279.33750000000003 L 566.3749999999999 278.60978451422926 L 567.9863008075562 277.546875 L 569.2499999999999 276.7271643591233 L 570.677606995937 275.75625 L 572.1249999999999 274.7876120841457 L 573.2971515820394 273.96562500000005 L 574.9999999999999 272.7897725157011 L 575.8501378380311 272.175 L 577.875 270.73222902644204 L 580.75 268.6135023412897 L 583.1260599463875 266.803125 L 585.4242470485626 265.01250000000005 L 586.5 264.17692100818164 L 587.6760446614171 263.22187500000007 L 589.375 261.85887889382127 L 589.8851795294457 261.4312500000001 L 592.0428359323352 259.64062500000006 L 594.1315080421382 257.85 L 595.125 257.00387250871427 L 596.1871118550849 256.05937500000005 L 598 254.46385018833692 L 600.1706353079921 252.47812500000003 L 600.875 251.83908234084578 L 602.0915271005326 250.68750000000003 L 603.75 249.13183695914046 L 605.8253479536618 247.10625000000005 L 606.625 246.33099613858096 L 607.6295986774101 245.315625 L 609.4141384474906 243.52500000000003 L 611.128710524886 241.734375 L 612.375 240.43954840833578 L 614.4888740575262 238.153125 L 615.25 237.33226310344224 L 616.1134054872589 236.3625 L 617.7120077279334 234.57187499999998 L 619.2615973594011 232.78125 L 620.8005602670358 230.990625 L 622.2802197767226 229.2 L 623.7574214448034 227.409375 L 625.1721621381118 225.61875000000003 L 626.5858408789106 223.82812500000003 L 627.9406261593086 222.03750000000002 L 629.2893548683935 220.24687500000002 L 630.5890606049906 218.45625 L 631.8717210555765 216.66562500000003 L 632.4999999999999 215.7826584895442 L 633.1211031348038 214.875 L 634.3368605895755 213.08437500000005 L 635.375 211.54834403822383 L 636.6888073723002 209.50312500000007 L 637.831044579502 207.71250000000006 L 638.25 207.04720906240226 L 638.9316639069898 205.92187500000006 L 640.003780416954 204.13125000000005 L 641.0667680397679 202.34062500000005 L 642.0715594148134 200.55000000000007 L 643.0622097145201 198.75937500000003 L 644 197.04238932524555 L 644.9573368196136 195.17812500000002 L 645.8616363830711 193.38750000000005 L 646.7506538766313 191.596875 L 647.5873693669911 189.80625000000003 L 648.4008573887041 188.015625 L 649.1960272317419 186.22500000000002 L 649.75 184.94262560100952 L 649.9611856306403 184.434375 L 650.6798247983811 182.64374999999998 L 651.3771544290448 180.85312499999998 L 652.0520436506046 179.06249999999997 L 652.6249999999999 177.48528346595032 L 653.2954720474747 175.48125 L 653.8659598447392 173.69062499999998 L 654.409763400886 171.89999999999998 L 654.9255886067093 170.109375 L 655.4120885531293 168.31875 L 655.8497272915299 166.52812500000002 L 656.2520446593256 164.7375 L 656.6219211169406 162.946875 L 656.9578886460226 161.15625 L 657.2584193520664 159.36562500000002 L 657.5219223802487 157.57500000000002 L 657.7467406386461 155.78437500000004 L 657.9311473146499 153.99375000000003 L 658.0733421691914 152.20312500000003 L 658.1714475920651 150.41250000000002 L 658.2235044001872 148.62187500000005 L 658.2274673590304 146.83125000000004 M 446.6915604926221 318.73125000000005 L 446.7289084027915 320.521875 L 446.78207598455936 322.31250000000006 L 446.85119952918063 324.10312500000003 L 446.9363214647062 325.89375 L 447.0374592911315 327.68437500000005 L 447.15462154338223 329.475 L 447.2878128804316 331.26562500000006 L 447.4370360611975 333.05625000000003 L 447.60229282354044 334.846875 L 447.78358431661877 336.63750000000005 L 447.98091133070534 338.428125 L 448.1942744271426 340.21875000000006 L 448.4236740156415 342.00937500000003 L 448.49999999999994 342.5414666530936 L 448.9294552217604 345.59062500000005 L 449.2063424350911 347.38125 L 449.49929556415555 349.17187500000006 L 449.8083104062509 350.96250000000003 L 450.133383564861 352.753125 L 450.4745122651936 354.54375000000005 L 450.8316942181489 356.334375 L 451.20492751850713 358.12500000000006 L 451.37499999999994 358.88925687859864 L 451.59321451271916 359.91562500000003 L 451.9968134941821 361.70625000000007 L 452.41652070946395 363.49687500000005 L 452.8523286355119 365.2875 L 453.3042307881648 367.078125 L 453.7722215488059 368.86875000000003 L 454.24999999999994 370.63531880725554 L 454.7535716385224 372.45000000000005 L 455.2670426833574 374.240625 L 455.79666165132414 376.03125000000006 L 456.34241916915636 377.82187500000003 L 456.90430690078614 379.61250000000007 L 457.12499999999994 380.28469217220993 L 457.47991005962047 381.40312500000005 L 458.070200814071 383.19375 L 458.6766933904331 384.98437500000006 L 459.29937563160115 386.77500000000003 L 459.9382365550583 388.565625 L 461.25516496901133 392.146875 L 461.9377762441697 393.93750000000006 L 462.6366249731872 395.72812500000003 L 462.875 396.31646488255114 L 464.07317976046613 399.30937500000005 L 464.8149242377535 401.1 L 465.5729640407906 402.890625 L 466.3419590661426 404.68125000000003 L 467.125732381788 406.47187500000007 L 467.92587395285454 408.26250000000005 L 468.625 409.7916307748723 L 469.5662299521719 411.84375000000006 L 470.40766196542427 413.63437500000003 L 471.2655139922106 415.42500000000007 L 472.1333547624098 417.21562500000005 L 473.0153164927768 419.00625 L 473.91376629339993 420.79687500000006 L 474.375 421.6923796604547 L 475.7456801884026 424.37812500000007 L 476.6840103608087 426.16875000000005 L 477.25 427.22356455840276 L 478.5955205654724 429.75000000000006 L 479.57305478392124 431.54062500000003 L 480.125 432.5284361950828 L 480.5621512788632 433.33125000000007 L 481.5615802961337 435.12187500000005 L 482.57767916409193 436.9125 L 483 437.6388539410414 L 484.64061310820864 440.49375000000003 L 485.6946702197295 442.28437500000007 L 487.82940934961465 445.8656250000001 L 488.74999999999994 447.3729960972968 L 490.01335324607726 449.44687500000003 L 491.12481406363736 451.23750000000007 L 491.62499999999994 452.02608083765597 L 492.2451558707324 453.02812500000005 L 493.376011831608 454.81875 L 494.49999999999994 456.5719200900562 L 495.67309096204235 458.4 L 496.8396813474757 460.190625 L 497.37499999999994 460.99571582200815 L 499.1995668902793 463.771875 L 500.24999999999994 465.33482012616645 L 501.60204313804206 467.35312500000003 L 502.8217054463541 469.14375 L 504.04575625131105 470.93437500000005 L 505.28272647627045 472.725 L 505.99999999999994 473.74493749306674 L 507.78315794045534 476.30625000000003 L 508.87499999999994 477.84258759020724 L 510.32169561765096 479.88750000000005 L 511.60896005393954 481.678125 L 512.8970551785371 483.46875 L 514.2002892943358 485.25937500000003 L 514.625 485.8319387347974 L 516.8267665311105 488.84062500000005 L 517.5 489.73920166600055 L 518.1532290728704 490.63125 L 519.4871810505114 492.421875 L 520.3749999999999 493.5951816996727 L 522.1803516896396 496.00312500000007 L 523.2499999999999 497.4029426280582 L 524.9051289446063 499.584375 L 526.1249999999999 501.1654004787889 L 527.6603964720318 503.1656250000001 L 528.9999999999999 504.88532023479263 L 530.4450720855691 506.74687500000005 L 531.8532867064247 508.5375 L 533.2581083340206 510.32812500000006 L 534.67978364334 512.1187500000001 L 537.5333301373595 515.7 L 538.9652477239551 517.490625 L 540.4129615616265 519.28125 L 541.8574303792963 521.0718750000001 L 543.3177470783346 522.8625000000001 L 544.7741319552481 524.653125 L 546.2467892381733 526.44375 L 549.125 529.934959314265 L 550.6776239958274 531.8156250000001 L 552 533.396696300199 L 553.6627618121831 535.396875 L 554.8749999999999 536.8344552537045 L 556.6691115575547 538.9781250000001 L 557.7499999999999 540.249698805341 L 558.1821452180211 540.7687500000001 L 559.6959242849066 542.559375 L 560.6249999999999 543.6437931855332 L 562.7424803045171 546.140625 L 563.4999999999999 547.018014357674 L 564.2725045596874 547.93125 L 565.808088204288 549.721875 L 566.3749999999999 550.3735538891465 L 568.8920838613586 553.303125 L 570.4372088625657 555.09375 L 571.9938294536931 556.8843750000001 L 574.9999999999999 560.3362286146307 L 576.6712060618925 562.25625 L 577.875 563.6216159709119 L 579.8127195805521 565.8375000000001 L 580.75 566.893122761374 L 581.3899253599964 567.6281250000001 L 582.9698390646348 569.41875 L 583.625 570.1515618800272 L 584.5524941806958 571.209375 L 586.1420390342392 573" stroke-opacity="0.2" stroke-linecap="round" stroke-linejoin="round" stroke-miterlimit="10" stroke-width="7"/><path fill="none" stroke="rgb(46,125,50)" paint-order="fill stroke markers" d=" M 2.9101003558283196 0 L 4.750225955324652 1.7906249999999773 L 5.75 2.7728343998803098 L 6.585340630793951 3.5812500000000114 L 8.418206077621676 5.371874999999989 L 11.499999999999943 8.378855735098341 L 13.931991050117574 10.743750000000034 L 15.773588281458785 12.534375000000011 L 17.249999999999943 13.978742139525536 L 19.451179220622407 16.115624999999966 L 20.125 16.77706983188847 L 21.293363094629683 17.90625 L 22.999999999999943 19.572191470125063 L 24.976089166168435 21.487499999999955 L 25.874999999999943 22.36799663077636 L 26.81896315653455 23.278124999999932 L 28.65761853077794 25.068749999999966 L 31.624999999999943 27.951987055678842 L 34.19403004874022 30.440625000000068 L 36.044465045980644 32.2312500000001 L 37.37499999999994 33.52868798829371 L 37.88907022663085 34.02187500000008 L 39.73712970323692 35.81250000000006 L 40.24999999999994 36.314390581818316 L 41.58869043869413 37.603125000000034 L 43.12499999999994 39.0977239002267 L 45.287327191804025 41.184375000000045 L 45.99999999999994 41.88018672536185 L 48.875 44.658695178672076 L 50.84506270269384 46.556250000000034 L 51.74999999999994 47.4376906858422 L 54.54905048896791 50.13749999999999 L 56.410809552659146 51.92812500000002 L 57.5 52.986460845574754 L 60.121467113299786 55.50937499999998 L 63.25 58.52602646232367 L 63.84276017336674 59.09062499999999 L 65.70274513948578 60.881249999999966 L 67.56841381748097 62.67187499999997 L 68.99999999999994 64.05588542790773 L 71.2934560462017 66.25312499999998 L 71.87499999999994 66.81746947268539 L 74.74999999999994 69.5755018355668 L 76.89421582063738 71.625 L 77.625 72.33233008437554 L 78.76470628655812 73.415625 L 80.49999999999994 75.08430333910562 L 82.50568894469762 76.99687500000002 L 83.37499999999994 77.83604039829379 L 86.24630342552354 80.578125 L 88.1285927723955 82.36874999999998 L 89.12499999999994 83.32796416666167 L 90.00500040080038 84.15937499999998 L 91.87797139889466 85.95000000000005 L 94.875 88.80742075391842 L 97.5223324695857 91.32187500000003 L 100.625 94.27368159159334 L 101.29549860519046 94.90312500000005 L 103.18025938979366 96.69375000000002 L 106.375 99.72596633036821 L 108.85269650361255 102.06562500000001 L 110.75099560198782 103.85624999999999 L 112.125 105.16343866474278 L 112.64346374225596 105.64687500000002 L 114.54066635145824 107.4375 L 117.87499999999994 110.58520180454062 L 120.24527691214428 112.80937499999999 L 120.74999999999994 113.29003158834499 L 123.625 115.990293566557 L 125.96772953821892 118.18124999999998 L 126.49999999999994 118.68651226592709 L 127.88279609698805 119.97187499999998 L 129.37499999999994 121.37768105908034 L 131.70932764193702 123.55312499999997 L 132.25 124.06466580558936 L 133.6311429623757 125.34374999999997 L 135.125 126.74625493197601 L 137.47148618981151 128.925 L 137.99999999999994 129.4233353307571 L 140.87499999999994 132.09482316572678 L 143.25574206245176 134.29687500000003 L 146.62499999999994 137.42210437455674 L 147.12535084699664 137.878125 L 149.06376533261823 139.66875 L 152.37499999999994 142.7267206018963 L 154.89737150703434 145.04062500000006 L 156.85368888494708 146.83125000000004 L 158.12499999999994 148.00718959145232 L 158.80522122805758 148.62187500000005 L 160.75853476516147 150.41250000000002 L 163.87499999999994 153.26191652464223 L 166.64940220901565 155.78437500000004 L 169.62499999999994 158.4891852259347 L 170.6036899013024 159.36562500000002 L 172.49999999999994 161.09020464863366 L 174.56475906280906 162.946875 L 175.3749999999999 163.68714885271947 L 178.24999999999994 166.27364058282467 L 180.53680853775785 168.31875 L 181.12499999999994 168.8538201070139 L 182.5405012843322 170.109375 L 183.99999999999994 171.4248928856168 L 186.54767697003655 173.69062499999998 L 189.75 176.54175470624165 L 192.60051579134242 179.06249999999997 L 194.6390626185802 180.85312499999998 L 195.5 181.62185254566367 L 198.37499999999997 184.14658325316188 L 200.75746641162124 186.22500000000002 L 202.81468640765206 188.015625 L 204.12499999999997 189.1683355214837 L 204.8703896530552 189.80625000000003 L 206.92705746719855 191.596875 L 209.875 194.14679645707062 L 211.08708445628153 195.17812500000002 L 212.74999999999997 196.6184025850917 L 215.2579040847005 198.75937500000003 L 218.49999999999997 201.52834749337873 L 219.4709066413005 202.34062500000005 L 221.37499999999997 203.96308474292724 L 223.70665908401074 205.92187500000006 L 224.25 206.38724405243505 L 225.84399987434765 207.71250000000006 L 227.12499999999997 208.79766172129402 L 227.9832696949078 209.50312500000007 L 229.99999999999997 211.19246769796388 L 232.29122232140082 213.08437500000005 L 232.875 213.57597688442172 L 235.74999999999997 215.94411173620034 L 236.64414525523958 216.66562500000003 L 238.625 218.29560866258507 L 241.03239107921144 220.24687500000002 L 243.25159789900297 222.03750000000002 L 244.37499999999997 222.95599158473436 L 245.47676612807305 223.82812500000003 L 247.24999999999997 225.26045910066028 L 249.95422763911057 227.409375 L 253 229.82045123563293 L 255.87499999999997 232.073801998156 L 258.75 234.3077757955412 L 261.42048541171505 236.3625 L 263.76873435947573 238.153125 L 264.5 238.72121693954648 L 267.375 240.89821655298192 L 268.50529996676414 241.734375 L 270.25 243.0540340496888 L 273.12499999999994 245.18823944701853 L 275.7391767356139 247.10625000000005 L 278.87499999999994 249.39445252387785 L 281.74999999999994 251.46358172252383 L 283.1929785437269 252.47812500000003 L 284.62499999999994 253.50904601685022 L 285.7217599253538 254.26875000000004 L 287.49999999999994 255.53035917501188 L 290.37499999999994 257.52702471117107 L 293.2499999999999 259.49853592562175 L 296.10593261690633 261.4312500000001 L 298.790407316788 263.22187500000007 L 301.875 265.25895693107765 L 304.26442641929566 266.803125 L 307.05902412839237 268.59375000000006 L 307.625 268.96332644276583 L 309.89566581642384 270.38437500000003 L 310.5 270.7728330770661 L 313.375 272.5531318761191 L 315.7070820800159 273.96562500000005 L 316.24999999999994 274.30364871553917 L 318.68829039193594 275.75625 L 321.72439774382246 277.546875 L 324.87499999999994 279.37070760283547 L 327.74999999999994 280.9972376931689 L 330.62499999999994 282.5914997965921 L 331.242363674858 282.91875000000005 L 333.49999999999994 284.1526554976225 L 336.37499999999994 285.680115667787 L 339.24999999999994 287.17329952567763 L 341.46922891700115 288.290625 L 342.12499999999994 288.63163859140536 L 344.99999999999994 290.0547518278333 L 347.875 291.4442433276093 L 348.8052507905371 291.871875 L 350.75 292.7973088051337 L 353.625 294.11342972849457 L 356.5 295.39247611837214 L 359.375 296.6362858201254 L 362.25 297.8416737729946 L 365.125 299.00838191640685 L 368 300.13905129355936 L 370.87499999999994 301.2299745496894 L 373.74999999999994 302.2824619303076 L 374.72300379455845 302.615625 L 376.62499999999994 303.2963775065584 L 379.9356476678584 304.40625 L 382.37499999999994 305.20570241677734 L 385.24999999999994 306.10022822825556 L 388.12499999999994 306.9562467881375 L 390.99999999999994 307.77107444615905 L 391.83550772657054 307.9875 L 393.87499999999994 308.5463987538346 L 396.74999999999994 309.28100123241836 L 398.84607593179055 309.77812500000005 L 399.62499999999994 309.97471107509506 L 402.49999999999994 310.62851644354384 L 405.37499999999994 311.24087375733046 L 407.0764061239884 311.56875 L 408.24999999999994 311.8124268718395 L 411.12499999999994 312.34343539769674 L 413.99999999999994 312.8330521812998 L 416.875 313.2812636251504 L 417.473624043929 313.359375 L 419.75 313.6887523359098 L 422.625 314.0550431289696 L 425.5 314.3799836363805 L 428.375 314.66357120882833 L 431.25 314.9058012225007 L 434.12499999999994 315.1066648184168 L 435.06258389247296 315.15000000000003 L 436.99999999999994 315.26625555708523 L 439.87499999999994 315.38450654353204 L 442.74999999999994 315.4613246376513 M 446.6779814635626 315.15000000000003 L 446.67993263906465 313.359375 L 446.7063447949252 311.56875 L 446.74930149561135 309.77812500000005 L 446.80844030088576 307.9875 L 446.88367800459355 306.19687500000003 L 446.97498515202244 304.40625 L 447.082348670574 302.615625 L 447.2057618708172 300.82500000000005 L 447.3452209743258 299.034375 L 447.5007236855842 297.24375 L 447.67226852949574 295.453125 L 447.85985451492235 293.6625 L 448.0634809512549 291.871875 L 448.2831473425329 290.08125 L 448.49999999999994 288.44308384588095 L 448.7713388257914 286.5 L 449.03976984948287 284.709375 L 449.32420758799844 282.91875000000005 L 449.62465695938965 281.128125 L 449.94112190531064 279.33750000000003 L 450.2736056218699 277.546875 L 450.6221107279416 275.75625 L 450.98663938985095 273.96562500000005 L 451.36719341507785 272.175 L 451.76553600508794 270.38437500000003 L 452.1798752861186 268.59375000000006 L 452.61018309631265 266.803125 L 453.0564668810684 265.01250000000005 L 453.51873306004615 263.22187500000007 L 453.9969871979293 261.4312500000001 L 454.24999999999994 260.5292589913958 L 454.4926627710998 259.64062500000006 L 455.00578879180847 257.85 L 455.5348291225129 256.05937500000005 L 456.07979473415963 254.26875000000004 L 456.6406953385338 252.47812500000003 L 457.12499999999994 250.98164730207546 L 457.815053418196 248.89687500000002 L 458.4277612710712 247.10625000000005 L 459.0563328220082 245.315625 L 459.7007812837564 243.52500000000003 L 459.99999999999994 242.72466645633654 L 460.36399871525856 241.734375 L 461.0454285678087 239.94375 L 461.74264299062634 238.153125 L 462.45565955838305 236.3625 L 462.875 235.34226111596615 L 463.1872481362922 234.57187499999998 L 463.938332625622 232.78125 L 464.7051183036295 230.990625 L 465.4876267270239 229.2 L 465.75 228.619755666593 L 466.29107261589604 227.409375 L 467.11270524209954 225.61875000000003 L 467.94995358653694 223.82812500000003 L 468.625 222.41683130898912 L 469.682272362215 220.24687500000002 L 470.5753152286206 218.45625 L 471.48388752463353 216.66562500000003 L 472.418210385907 214.875 L 473.3680910696274 213.08437500000005 L 474.33338130350216 211.29375000000005 L 475.32538379786536 209.50312500000007 L 476.3331355250181 207.71250000000006 L 477.25 206.11063964547793 L 478.4090907811953 204.13125000000005 L 479.4757382547657 202.34062500000005 L 480.125 201.27319121472829 L 480.5634345283105 200.55000000000007 L 481.67504012141137 198.75937500000003 L 482.8016010536231 196.96875000000003 L 483.9566573195387 195.17812500000002 L 485.12934008579765 193.38750000000005 L 485.87499999999994 192.2697948460048 L 486.3235292427763 191.596875 L 487.5437229600859 189.80625000000003 L 488.74999999999994 188.0575868467248 L 490.048080520337 186.22500000000002 L 491.33154217399317 184.434375 L 492.6461087201189 182.64374999999998 L 493.97969518234447 180.85312499999998 L 494.49999999999994 180.16819641467683 L 495.34188013454167 179.06249999999997 L 496.72706338512495 177.271875 L 497.37499999999994 176.44918541693855 L 498.1398603464818 175.48125 L 499.5781494436298 173.69062499999998 L 500.24999999999994 172.86852647381914 L 501.0449290969096 171.89999999999998 L 502.5378715268717 170.109375 L 503.12499999999994 169.41753276679452 L 504.0624062360356 168.31875 L 505.61158919642753 166.52812500000002 L 507.1980826440138 164.7375 L 508.8051342129307 162.946875 L 510.4582564146875 161.15625 L 511.74999999999994 159.77286438585264 L 513.8497747196858 157.57500000000002 L 514.625 156.77791520890648 L 515.6002168463491 155.78437500000004 L 517.3800818986832 153.99375000000003 L 519.212075182863 152.20312500000003 L 520.3749999999999 151.08058407422126 L 521.0749545980225 150.41250000000002 L 522.977749671078 148.62187500000005 L 524.9342245164654 146.83125000000004 L 526.1249999999999 145.75650969017832 L 526.9288778187932 145.04062500000006 L 528.9652722453405 143.25000000000003 L 531.0684378124504 141.459375 L 531.875 140.781401124302 L 533.2195681103221 139.66875 L 534.75 138.4183099325415 L 535.42244825568 137.878125 L 537.625 136.13145531183724 L 540.0188678902748 134.29687500000003 L 542.4247166479366 132.50625 L 543.375 131.81090453386548 L 544.9035333660124 130.71562500000002 L 546.25 129.7634818292652 L 547.4627423196599 128.925 L 549.125 127.7909676837736 L 550.111000863034 127.13437499999998 L 552 125.893291590193 L 552.8584497354625 125.34374999999997 L 554.8749999999999 124.07025630560915 L 555.7170283970457 123.55312499999997 L 557.7499999999999 122.32154666627699 L 558.7008758357499 121.76249999999996 L 560.6249999999999 120.64673821571947 L 561.8268449966224 119.97187499999998 L 563.4999999999999 119.04530561246514 L 565.1151701216575 118.18124999999998 L 566.3749999999999 117.51663078901595 L 568.5903426398165 116.390625 L 569.2499999999999 116.06001083847227 L 572.1249999999999 114.67697306094979 L 574.9999999999999 113.3766607718679 L 576.3169365190528 112.80937499999999 L 577.875 112.14782063580927 L 580.6761555257261 111.01874999999998 L 583.625 109.92110035110616 L 585.6135441685219 109.228125 L 586.5 108.9237326916251 L 589.375 108.01252940082483 L 591.351773213007 107.4375 L 592.25 107.18011035869372 L 595.125 106.4397129272466 L 598 105.7796252189219 L 598.6736691216187 105.64687500000002 L 600.875 105.21978682788327 L 603.75 104.75449997318844 L 606.625 104.38620887314846 L 609.5 104.1219152286805 L 612.375 103.9691013433154 L 615.25 103.9357720793819 L 618.125 104.03050128758062 L 621 104.26248327646334 L 623.875 104.64158997183495 L 626.75 105.17843451370851 L 628.6697058189145 105.64687500000002 L 629.625 105.89370305174751 L 634.0981163617696 107.4375 L 635.375 107.96503412813715 L 637.965186355731 109.228125 L 640.9826078999508 111.01874999999998 L 643.4472792507956 112.80937499999999 L 644 113.24482271879819 L 645.5346441672019 114.59999999999997 L 646.8749999999999 115.8816029881967 L 647.3549729747137 116.390625 L 648.9184838850615 118.18124999999998 L 649.75 119.21838709301235 L 651.5017878948908 121.76249999999996 L 652.5915799992406 123.55312499999997 L 654.3365447931983 127.13437499999998 L 655.0733525990622 128.925 L 655.4999999999999 130.09033425899517 L 655.7121044557136 130.71562500000002 L 656.2498652243237 132.50625 L 656.7163453522065 134.29687500000003 L 657.1146241300372 136.0875 L 657.4476377426795 137.878125 L 657.7181874870149 139.66875 L 657.9289474299136 141.459375 L 658.0824715503451 143.25000000000003 L 658.1812004057197 145.04062500000006 L 658.2274673590304 146.83125000000007 M 448.49999999999994 315.49232631200584 L 451.37499999999994 315.44479926024366 L 454.24999999999994 315.35627619041895 L 457.12499999999994 315.22646945824283 L 458.2400679607865 315.15000000000003 L 459.99999999999994 315.0552727552506 L 462.875 314.84269677836966 L 465.75 314.5887948939755 L 468.625 314.293559730586 L 471.5 313.95698733223463 L 474.375 313.57907538563813 L 475.8106447821607 313.359375 L 477.25 313.1594462688897 L 480.125 312.69809028091146 L 483 312.19544681792456 L 485.87499999999994 311.65150327694295 L 488.74999999999994 311.0649838620704 L 491.62499999999994 310.43701838467985 L 494.45288093638953 309.77812500000005 L 497.37499999999994 309.0551376801456 L 500.24999999999994 308.3013400156365 L 501.3490641285604 307.9875 L 503.12499999999994 307.50461720782545 L 505.99999999999994 306.66563404169295 L 507.497092473931 306.19687500000003 L 508.87499999999994 305.7838718263363 L 511.74999999999994 304.8591398990629 L 513.0669673391532 304.40625 L 514.625 303.89110532699203 L 517.5 302.8800912085718 L 518.201163558389 302.615625 L 520.3749999999999 301.82437877952947 L 522.9829346219228 300.82500000000005 L 526.1249999999999 299.58164862747117 L 527.4267342561975 299.034375 L 528.9999999999999 298.39303902997216 L 531.6749745680833 297.24375 L 534.75 295.8801560980489 L 535.658975881789 295.453125 L 537.625 294.55411447206365 L 539.4763188670696 293.6625 L 540.5 293.1820256873638 L 543.149680155868 291.871875 L 546.25 290.2952102839507 L 549.125 288.77823244950605 L 550.0067425236266 288.290625 L 552 287.21211799007943 L 553.2520108722948 286.5 L 554.8749999999999 285.59593768320354 L 556.3894894867974 284.709375 L 557.7499999999999 283.9286988176717 L 559.4254288242472 282.91875000000005 L 560.6249999999999 282.2093469714205 L 562.3661108768745 281.128125 L 563.4999999999999 280.4367671695264 L 565.2177290301411 279.33750000000003 L 566.3749999999999 278.60978451422926 L 567.9863008075562 277.546875 L 569.2499999999999 276.7271643591233 L 570.677606995937 275.75625 L 572.1249999999999 274.7876120841457 L 573.2971515820394 273.96562500000005 L 574.9999999999999 272.7897725157011 L 575.8501378380311 272.175 L 577.875 270.73222902644204 L 580.75 268.6135023412897 L 583.1260599463875 266.803125 L 585.4242470485626 265.01250000000005 L 586.5 264.17692100818164 L 587.6760446614171 263.22187500000007 L 589.375 261.85887889382127 L 589.8851795294457 261.4312500000001 L 592.0428359323352 259.64062500000006 L 594.1315080421382 257.85 L 595.125 257.00387250871427 L 596.1871118550849 256.05937500000005 L 598 254.46385018833692 L 600.1706353079921 252.47812500000003 L 600.875 251.83908234084578 L 602.0915271005326 250.68750000000003 L 603.75 249.13183695914046 L 605.8253479536618 247.10625000000005 L 606.625 246.33099613858096 L 607.6295986774101 245.315625 L 609.4141384474906 243.52500000000003 L 611.128710524886 241.734375 L 612.375 240.43954840833578 L 614.4888740575262 238.153125 L 615.25 237.33226310344224 L 616.1134054872589 236.3625 L 617.7120077279334 234.57187499999998 L 619.2615973594011 232.78125 L 620.8005602670358 230.990625 L 622.2802197767226 229.2 L 623.7574214448034 227.409375 L 625.1721621381118 225.61875000000003 L 626.5858408789106 223.82812500000003 L 627.9406261593086 222.03750000000002 L 629.2893548683935 220.24687500000002 L 630.5890606049906 218.45625 L 631.8717210555765 216.66562500000003 L 632.4999999999999 215.7826584895442 L 633.1211031348038 214.875 L 634.3368605895755 213.08437500000005 L 635.375 211.54834403822383 L 636.6888073723002 209.50312500000007 L 637.831044579502 207.71250000000006 L 638.25 207.04720906240226 L 638.9316639069898 205.92187500000006 L 640.003780416954 204.13125000000005 L 641.0667680397679 202.34062500000005 L 642.0715594148134 200.55000000000007 L 643.0622097145201 198.75937500000003 L 644 197.04238932524555 L 644.9573368196136 195.17812500000002 L 645.8616363830711 193.38750000000005 L 646.7506538766313 191.596875 L 647.5873693669911 189.80625000000003 L 648.4008573887041 188.015625 L 649.1960272317419 186.22500000000002 L 649.75 184.94262560100952 L 649.9611856306403 184.434375 L 650.6798247983811 182.64374999999998 L 651.3771544290448 180.85312499999998 L 652.0520436506046 179.06249999999997 L 652.6249999999999 177.48528346595032 L 653.2954720474747 175.48125 L 653.8659598447392 173.69062499999998 L 654.409763400886 171.89999999999998 L 654.9255886067093 170.109375 L 655.4120885531293 168.31875 L 655.8497272915299 166.52812500000002 L 656.2520446593256 164.7375 L 656.6219211169406 162.946875 L 656.9578886460226 161.15625 L 657.2584193520664 159.36562500000002 L 657.5219223802487 157.57500000000002 L 657.7467406386461 155.78437500000004 L 657.9311473146499 153.99375000000003 L 658.0733421691914 152.20312500000003 L 658.1714475920651 150.41250000000002 L 658.2235044001872 148.62187500000005 L 658.2274673590304 146.83125000000004 M 446.6915604926221 318.73125000000005 L 446.7289084027915 320.521875 L 446.78207598455936 322.31250000000006 L 446.85119952918063 324.10312500000003 L 446.9363214647062 325.89375 L 447.0374592911315 327.68437500000005 L 447.15462154338223 329.475 L 447.2878128804316 331.26562500000006 L 447.4370360611975 333.05625000000003 L 447.60229282354044 334.846875 L 447.78358431661877 336.63750000000005 L 447.98091133070534 338.428125 L 448.1942744271426 340.21875000000006 L 448.4236740156415 342.00937500000003 L 448.49999999999994 342.5414666530936 L 448.9294552217604 345.59062500000005 L 449.2063424350911 347.38125 L 449.49929556415555 349.17187500000006 L 449.8083104062509 350.96250000000003 L 450.133383564861 352.753125 L 450.4745122651936 354.54375000000005 L 450.8316942181489 356.334375 L 451.20492751850713 358.12500000000006 L 451.37499999999994 358.88925687859864 L 451.59321451271916 359.91562500000003 L 451.9968134941821 361.70625000000007 L 452.41652070946395 363.49687500000005 L 452.8523286355119 365.2875 L 453.3042307881648 367.078125 L 453.7722215488059 368.86875000000003 L 454.24999999999994 370.63531880725554 L 454.7535716385224 372.45000000000005 L 455.2670426833574 374.240625 L 455.79666165132414 376.03125000000006 L 456.34241916915636 377.82187500000003 L 456.90430690078614 379.61250000000007 L 457.12499999999994 380.28469217220993 L 457.47991005962047 381.40312500000005 L 458.070200814071 383.19375 L 458.6766933904331 384.98437500000006 L 459.29937563160115 386.77500000000003 L 459.9382365550583 388.565625 L 461.25516496901133 392.146875 L 461.9377762441697 393.93750000000006 L 462.6366249731872 395.72812500000003 L 462.875 396.31646488255114 L 464.07317976046613 399.30937500000005 L 464.8149242377535 401.1 L 465.5729640407906 402.890625 L 466.3419590661426 404.68125000000003 L 467.125732381788 406.47187500000007 L 467.92587395285454 408.26250000000005 L 468.625 409.7916307748723 L 469.5662299521719 411.84375000000006 L 470.40766196542427 413.63437500000003 L 471.2655139922106 415.42500000000007 L 472.1333547624098 417.21562500000005 L 473.0153164927768 419.00625 L 473.91376629339993 420.79687500000006 L 474.375 421.6923796604547 L 475.7456801884026 424.37812500000007 L 476.6840103608087 426.16875000000005 L 477.25 427.22356455840276 L 478.5955205654724 429.75000000000006 L 479.57305478392124 431.54062500000003 L 480.125 432.5284361950828 L 480.5621512788632 433.33125000000007 L 481.5615802961337 435.12187500000005 L 482.57767916409193 436.9125 L 483 437.6388539410414 L 484.64061310820864 440.49375000000003 L 485.6946702197295 442.28437500000007 L 487.82940934961465 445.8656250000001 L 488.74999999999994 447.3729960972968 L 490.01335324607726 449.44687500000003 L 491.12481406363736 451.23750000000007 L 491.62499999999994 452.02608083765597 L 492.2451558707324 453.02812500000005 L 493.376011831608 454.81875 L 494.49999999999994 456.5719200900562 L 495.67309096204235 458.4 L 496.8396813474757 460.190625 L 497.37499999999994 460.99571582200815 L 499.1995668902793 463.771875 L 500.24999999999994 465.33482012616645 L 501.60204313804206 467.35312500000003 L 502.8217054463541 469.14375 L 504.04575625131105 470.93437500000005 L 505.28272647627045 472.725 L 505.99999999999994 473.74493749306674 L 507.78315794045534 476.30625000000003 L 508.87499999999994 477.84258759020724 L 510.32169561765096 479.88750000000005 L 511.60896005393954 481.678125 L 512.8970551785371 483.46875 L 514.2002892943358 485.25937500000003 L 514.625 485.8319387347974 L 516.8267665311105 488.84062500000005 L 517.5 489.73920166600055 L 518.1532290728704 490.63125 L 519.4871810505114 492.421875 L 520.3749999999999 493.5951816996727 L 522.1803516896396 496.00312500000007 L 523.2499999999999 497.4029426280582 L 524.9051289446063 499.584375 L 526.1249999999999 501.1654004787889 L 527.6603964720318 503.1656250000001 L 528.9999999999999 504.88532023479263 L 530.4450720855691 506.74687500000005 L 531.8532867064247 508.5375 L 533.2581083340206 510.32812500000006 L 534.67978364334 512.1187500000001 L 537.5333301373595 515.7 L 538.9652477239551 517.490625 L 540.4129615616265 519.28125 L 541.8574303792963 521.0718750000001 L 543.3177470783346 522.8625000000001 L 544.7741319552481 524.653125 L 546.2467892381733 526.44375 L 549.125 529.934959314265 L 550.6776239958274 531.8156250000001 L 552 533.396696300199 L 553.6627618121831 535.396875 L 554.8749999999999 536.8344552537045 L 556.6691115575547 538.9781250000001 L 557.7499999999999 540.249698805341 L 558.1821452180211 540.7687500000001 L 559.6959242849066 542.559375 L 560.6249999999999 543.6437931855332 L 562.7424803045171 546.140625 L 563.4999999999999 547.018014357674 L 564.2725045596874 547.93125 L 565.808088204288 549.721875 L 566.3749999999999 550.3735538891465 L 568.8920838613586 553.303125 L 570.4372088625657 555.09375 L 571.9938294536931 556.8843750000001 L 574.9999999999999 560.3362286146307 L 576.6712060618925 562.25625 L 577.875 563.6216159709119 L 579.8127195805521 565.8375000000001 L 580.75 566.893122761374 L 581.3899253599964 567.6281250000001 L 582.9698390646348 569.41875 L 583.625 570.1515618800272 L 584.5524941806958 571.209375 L 586.1420390342392 573" stroke-opacity="0.8" stroke-linecap="round" stroke-linejoin="round" stroke-miterlimit="10" stroke-width="2.5"/><text fill="rgb(46,125,50)" stroke="none" font-family="geogebra-sans-serif, sans-serif" font-size="16px" font-style="normal" font-weight="normal" text-decoration="normal" x="73" y="65" text-anchor="start" dominant-baseline="alphabetic" fill-opacity="1">Folium de Desartes</text><text fill="none" stroke="rgb(255,255,255)" font-family="geogebra-sans-serif, sans-serif" font-size="16px" font-style="normal" font-weight="normal" text-decoration="normal" x="73" y="65" text-anchor="start" dominant-baseline="alphabetic" stroke-opacity="1" stroke-linejoin="bevel" stroke-miterlimit="10" stroke-width="3">Folium de Desartes</text><text fill="rgb(46,125,50)" stroke="none" font-family="geogebra-sans-serif, sans-serif" font-size="16px" font-style="normal" font-weight="normal" text-decoration="normal" x="73" y="65" text-anchor="start" dominant-baseline="alphabetic" fill-opacity="1">Folium de Desartes</text><path fill="rgb(97,97,97)" stroke="none" paint-order="stroke fill markers" d=" M 451.6666666666667 315.50000000000006 C 451.6666666666667 318.261423749154 449.42809041582063 320.50000000000006 446.6666666666667 320.50000000000006 C 443.90524291751274 320.50000000000006 441.6666666666667 318.261423749154 441.6666666666667 315.50000000000006 C 441.6666666666667 312.7385762508461 443.90524291751274 310.50000000000006 446.6666666666667 310.50000000000006 C 449.42809041582063 310.50000000000006 451.6666666666667 312.7385762508461 451.6666666666667 315.50000000000006 Z" fill-opacity="1"/><path fill="rgb(97,97,97)" stroke="none" paint-order="stroke fill markers" d=" M 451.6666666666667 315.50000000000006 C 451.6666666666667 318.261423749154 449.42809041582063 320.50000000000006 446.6666666666667 320.50000000000006 C 443.90524291751274 320.50000000000006 441.6666666666667 318.261423749154 441.6666666666667 315.50000000000006 C 441.6666666666667 312.7385762508461 443.90524291751274 310.50000000000006 446.6666666666667 310.50000000000006 C 449.42809041582063 310.50000000000006 451.6666666666667 312.7385762508461 451.6666666666667 315.50000000000006 Z" fill-opacity="1"/></g></g></svg>